<?xml version="1.0" encoding="UTF-8" standalone="no"?>
<!-- Created with Inkscape (http://www.inkscape.org/) -->

<svg
   width="12mm"
   height="12mm"
   viewBox="0 0 12 12"
   version="1.1"
   id="svg8975"
   inkscape:version="1.2.2 (b0a8486541, 2022-12-01)"
   sodipodi:docname="ch3divory.svg"
   xmlns:inkscape="http://www.inkscape.org/namespaces/inkscape"
   xmlns:sodipodi="http://sodipodi.sourceforge.net/DTD/sodipodi-0.dtd"
   xmlns:xlink="http://www.w3.org/1999/xlink"
   xmlns="http://www.w3.org/2000/svg"
   xmlns:svg="http://www.w3.org/2000/svg">
  <sodipodi:namedview
     id="namedview8977"
     pagecolor="#ffffff"
     bordercolor="#000000"
     borderopacity="0.25"
     inkscape:showpageshadow="2"
     inkscape:pageopacity="0.0"
     inkscape:pagecheckerboard="0"
     inkscape:deskcolor="#d1d1d1"
     inkscape:document-units="mm"
     showgrid="false"
     inkscape:zoom="16"
     inkscape:cx="5.4375"
     inkscape:cy="20.46875"
     inkscape:window-width="1920"
     inkscape:window-height="1018"
     inkscape:window-x="0"
     inkscape:window-y="0"
     inkscape:window-maximized="1"
     inkscape:current-layer="layer1" />
  <defs
     id="defs8972">
    <radialGradient
       inkscape:collect="always"
       xlink:href="#linearGradient1141"
       id="radialGradient1143"
       cx="105"
       cy="148.5"
       fx="105"
       fy="148.5"
       r="66.15155"
       gradientUnits="userSpaceOnUse"
       gradientTransform="matrix(0.05290881,0,0,0.05290881,0.44457522,-1.8569598)" />
    <linearGradient
       inkscape:collect="always"
       id="linearGradient1141">
      <stop
         style="stop-color:#ffe6d5;stop-opacity:0;"
         offset="0.78829104"
         id="stop1139" />
      <stop
         style="stop-color:#ff9955;stop-opacity:1;"
         offset="1"
         id="stop1137" />
    </linearGradient>
  </defs>
  <g
     inkscape:label="Layer 1"
     inkscape:groupmode="layer"
     id="layer1">
    <circle
       style="fill:#ffe6d5;fill-opacity:1;stroke:none;stroke-width:0.000158726;stroke-linejoin:round"
       id="path238-5"
       cx="6"
       cy="6"
       r="3.5" />
    <circle
       style="fill:url(#radialGradient1143);fill-opacity:1;stroke:none;stroke-width:0.000158726;stroke-linejoin:round"
       id="path238"
       cx="6"
       cy="6"
       r="3.5" />
    <g
       id="g10713"
       transform="matrix(0.05726444,0,0,0.05726444,-0.01275598,-2.0307346)">
      <path
         id="path3537-1"
         style="fill:#ffb380;fill-opacity:1;stroke-width:0.00616979;stroke-linejoin:round"
         inkscape:transform-center-x="-0.00059908514"
         inkscape:transform-center-y="-46.050521"
         d="m 104.03138,36.263936 -0.60358,0.224276 -0.67593,0.454753 -0.54984,0.600997 -0.39326,0.713134 -0.21497,0.785482 -12.344467,82.461112 -0.09819,0.6594 -0.09819,0.65939 -0.09767,0.65939 -0.09715,0.65939 -0.09664,0.65991 -0.09663,0.65939 -0.0956,0.65991 -0.0956,0.65991 -0.09508,0.6599 -0.09457,0.65991 -0.09457,0.65991 -0.09353,0.65991 -15.22026,107.40171 -0.04237,0.53588 0.02481,0.53641 0.09147,0.52968 0.156063,0.51418 0.219108,0.49093 0.27802,0.4594 0.333313,0.42168 0.382922,0.37724 0.426847,0.32608 0.464055,0.2713 0.494026,0.21084 0.516765,0.14831 2.128035,0.46922 4.388363,0.8847 4.417301,0.72554 4.441073,0.56534 4.458642,0.40411 4.470014,0.24288 4.47569,0.0811 4.47622,-0.0811 4.47001,-0.24288 4.45864,-0.40411 4.44055,-0.56534 4.41782,-0.72554 4.38837,-0.8847 2.12803,-0.46922 0.51677,-0.14831 0.49402,-0.21084 0.46406,-0.2713 0.42684,-0.32608 0.38293,-0.37724 0.33331,-0.42168 0.27802,-0.4594 0.21911,-0.49093 0.15606,-0.51418 0.0915,-0.52968 0.0243,-0.53641 -0.0419,-0.53588 -15.22026,-107.40171 -0.094,-0.65991 -0.0941,-0.65991 -0.0946,-0.65991 -0.0951,-0.6599 -0.0956,-0.65991 -0.0961,-0.65991 -0.0961,-0.65939 -0.0966,-0.65991 -0.0971,-0.65939 -0.0977,-0.65939 -0.0982,-0.65939 -0.0987,-0.6594 -12.34446,-82.461112 -0.21446,-0.785482 -0.39378,-0.713134 -0.54983,-0.600997 -0.67541,-0.454753 -0.6041,-0.224276 a 3.7041667,3.175 0 0 1 -0.96842,0.111621 3.7041667,3.175 0 0 1 -0.96841,-0.111621 z" />
      <path
         id="path3537"
         style="fill:#ffe6d5;fill-opacity:1;stroke-width:0.00582024;stroke-linejoin:round"
         inkscape:transform-center-x="0.06318795"
         inkscape:transform-center-y="-45.986321"
         d="m 102.43354,35.462435 c -0.0291,0.0078 -0.0574,0.01836 -0.0847,0.03101 -0.0407,0.01864 -0.0789,0.03914 -0.11472,0.06615 -0.0373,0.02498 -0.0749,0.0494 -0.11472,0.06976 l -0.0987,0.382405 -10.982279,82.32107 -0.08837,0.66042 -0.08733,0.66095 -0.08733,0.66094 -0.08682,0.66094 -0.0863,0.66146 -0.0863,0.66094 -0.08527,0.66094 -0.08527,0.66146 -0.08527,0.66094 -0.08423,0.66146 -0.08423,0.66146 -0.08372,0.66145 -13.551628,107.30095 -0.10852,0.44958 -0.05323,0.45941 0.0026,0.4625 0.05839,0.45889 0.113171,0.44855 0.166915,0.43098 0.217558,0.40824 0.265617,0.37879 0.309025,0.34365 0.348816,0.30438 0.382406,0.25942 0.411344,0.21136 4.239018,0.98547 4.275708,0.81338 4.305163,0.63975 4.326868,0.4656 4.342378,0.28991 4.35063,0.11472 4.35219,-0.062 4.34547,-0.2372 4.33256,-0.41289 4.3124,-0.58756 4.285,-0.76171 4.25091,-0.9338 0.51935,-0.16226 0.49661,-0.22428 0.46508,-0.28267 0.4284,-0.33692 0.38396,-0.38551 0.33486,-0.42994 0.28009,-0.46665 0.22169,-0.49713 0.1602,-0.52089 0.0961,-0.53589 0.0305,-0.54364 -0.0357,-0.54363 -13.55163,-107.30095 -0.0837,-0.66145 -0.0837,-0.66146 -0.0847,-0.66146 -0.0847,-0.66094 -0.0853,-0.66146 -0.0858,-0.66094 -0.0858,-0.66094 -0.0868,-0.66146 -0.0868,-0.66094 -0.0868,-0.66094 -0.0878,-0.66095 -0.0879,-0.66042 -10.97453,-82.258541 c -0.0195,-0.03614 -0.0372,-0.07372 -0.0506,-0.112138 0.002,0.0028 0.006,0.0087 0.009,0.01292 -0.0127,-0.02011 -0.029,-0.04863 -0.03,-0.05633 -0.0185,-0.02716 -0.0332,-0.05579 -0.0475,-0.08527 -0.006,-0.01137 -0.008,-0.01722 -0.009,-0.02015 -5.7e-4,-7.13e-4 -8.8e-4,-6.99e-4 -0.002,-0.0016 -0.0294,-0.02507 -0.0512,-0.05241 -0.0672,-0.07183 -0.0165,-0.02523 -0.0326,-0.05012 -0.0444,-0.07751 -0.0153,-0.0042 -0.0309,-0.0083 -0.0455,-0.01499 -0.0305,-0.01298 -0.0608,-0.02521 -0.091,-0.03927 -0.027,-0.01506 -0.0469,-0.02347 -0.0847,-0.04031 -0.0341,-0.01891 -0.0677,-0.03898 -0.10077,-0.05943 -0.007,-0.0055 -0.0114,-0.0092 -0.015,-0.01189 -1.14092,-0.357356 -1.70506,0.647777 -2.53525,0.888318 -0.96277,-0.0099 -1.43273,-1.483178 -2.56625,-0.922424 z m 5.45548,0.204639 v 5.16e-4 c 0.004,0.0011 0.006,0.0013 0,-5.16e-4 z"
         sodipodi:nodetypes="scccccccccccccccccccccccccccccccccccccccccccccccccccccccccccccccccccccccccccccccccccsccc" />
      <path
         id="rect8568"
         style="fill:#aa4400;stroke-width:0.00220747;stroke-linejoin:round"
         d="m 103.66127,35.565271 c -0.0607,0.293857 -0.094,0.613077 -0.094,0.947229 v 63.5 c 0,1.46579 0.63892,2.64583 1.43255,2.64583 0.79362,0 1.43255,-1.18004 1.43255,-2.64583 v -63.5 c 0,-0.334179 -0.0334,-0.653353 -0.094,-0.947229 a 2.2623379,4.0979638 0 0 1 -1.33853,0.811837 2.2623379,4.0979638 0 0 1 -1.33854,-0.811837 z" />
    </g>
  </g>
</svg>
