<?xml version="1.0" encoding="UTF-8" standalone="no"?>
<!-- Created with Inkscape (http://www.inkscape.org/) -->

<svg
   version="1.1"
   id="svg2541"
   width="13mm"
   height="13mm"
   viewBox="0 0 49.13386 49.133859"
   sodipodi:docname="chickenhead_ivory_tweaked.svg"
   inkscape:version="1.2.2 (b0a8486541, 2022-12-01)"
   xmlns:inkscape="http://www.inkscape.org/namespaces/inkscape"
   xmlns:sodipodi="http://sodipodi.sourceforge.net/DTD/sodipodi-0.dtd"
   xmlns="http://www.w3.org/2000/svg"
   xmlns:svg="http://www.w3.org/2000/svg">
  <defs
     id="defs2545" />
  <sodipodi:namedview
     id="namedview2543"
     pagecolor="#ffffff"
     bordercolor="#000000"
     borderopacity="0.25"
     inkscape:showpageshadow="2"
     inkscape:pageopacity="0.0"
     inkscape:pagecheckerboard="0"
     inkscape:deskcolor="#d1d1d1"
     showgrid="true"
     inkscape:zoom="13.323859"
     inkscape:cx="25.968453"
     inkscape:cy="24.579966"
     inkscape:window-width="1920"
     inkscape:window-height="1018"
     inkscape:window-x="0"
     inkscape:window-y="0"
     inkscape:window-maximized="1"
     inkscape:current-layer="g2547"
     inkscape:document-units="mm">
    <inkscape:grid
       type="xygrid"
       id="grid304"
       originx="-8.5097426"
       originy="-0.091269989" />
  </sodipodi:namedview>
  <g
     inkscape:groupmode="layer"
     inkscape:label="Image"
     id="g2547"
     transform="translate(640.84308,-359.92001)">
    <path
       style="fill:#ffe6d5;stroke-width:0.049683"
       d="m -614.94786,361.94868 c 0.17058,0.22844 0.37792,0.65944 0.42212,0.87754 0.0563,0.27786 0.72513,4.09654 1.14133,6.51647 0.15177,0.88276 0.29104,1.60955 0.30939,1.61509 1.67429,0.50558 3.27968,1.22236 4.41433,1.97103 1.53217,1.01087 3.24031,2.97355 4.29805,4.93858 0.27169,0.50482 0.82896,1.9148 1.0082,2.55094 0.44676,1.5862 0.61802,3.52591 0.45749,5.18187 -0.11747,1.2119 -0.73296,3.16813 -1.44292,4.58634 -0.54085,1.08035 -0.79309,1.43925 -1.92324,2.73647 -1.12303,1.28909 -1.45986,1.60998 -2.68809,2.56085 -0.38325,0.29671 -0.69519,0.55879 -0.69315,0.58237 0.008,0.0943 0.34854,5.8061 0.4698,7.88194 0.12942,2.214 0.12942,2.214 -0.17006,2.55839 -0.26643,0.30652 -0.30815,0.37905 -0.37905,0.65849 -0.0437,0.17265 -0.1508,0.45231 -0.23783,0.62135 -0.15815,0.30736 -0.15815,0.30736 -0.85537,0.51274 -0.70635,0.20813 -1.71127,0.44607 -2.13267,0.50498 -0.12692,0.0177 -0.38616,0.0576 -0.57627,0.0892 -1.73204,0.28452 -4.35209,0.18626 -6.88531,-0.25808 -1.07825,-0.18918 -1.66445,-0.31664 -1.74404,-0.37921 -0.28429,-0.22344 -0.32939,-0.31054 -0.42666,-0.82391 -0.0899,-0.47462 -0.11505,-0.53584 -0.28799,-0.70333 -0.1042,-0.10097 -0.24977,-0.28539 -0.32355,-0.40996 -0.13476,-0.22772 -0.23122,-0.72978 -0.15656,-0.81559 0.0219,-0.0252 0.018,-0.0652 -0.0116,-0.0882 -0.0895,-0.0774 -0.0816,-0.49874 0.0109,-0.54744 0.0704,-0.0374 0.0676,-0.0484 -0.0203,-0.0686 -0.089,-0.0201 -0.11666,-0.1296 -0.18506,-0.72629 -0.0442,-0.38628 -0.0673,-0.72894 -0.0504,-0.76145 0.0169,-0.0324 0.0122,-0.0738 -0.008,-0.092 -0.0369,-0.0324 -0.12717,-0.60262 -0.2107,-1.33416 -0.0231,-0.20163 -0.0227,-0.51274 9.2e-4,-0.69131 0.12824,-0.96839 0.47735,-3.5778 0.58983,-4.40911 0.12547,-0.92653 0.12548,-0.96001 0.002,-1.01844 -0.0701,-0.0332 -0.61637,-0.4863 -1.21396,-1.00676 -0.92232,-0.80335 -1.16595,-1.03788 -1.61275,-1.55254 -1.98168,-2.28274 -3.00912,-4.47874 -3.48762,-7.45441 -0.458,-2.84826 0.0149,-5.44204 1.50216,-8.23976 0.43941,-0.82653 0.81892,-1.36233 1.6017,-2.26126 0.81839,-0.93978 1.16325,-1.25519 2.09713,-1.91794 1.30223,-0.92411 2.46975,-1.52336 4.3889,-2.25258 0.35906,-0.1365 0.30465,0.027 0.59007,-1.7727 0.0721,-0.45439 0.17897,-1.12519 0.23756,-1.49064 0.0586,-0.36541 0.17245,-1.08106 0.25308,-1.59034 0.67994,-4.29623 0.62131,-4.0134 0.87096,-4.20411 0.27488,-0.20998 0.3459,-0.2392 0.67981,-0.27963 0.23087,-0.0281 0.4451,0.0407 0.37568,0.12068 -0.0308,0.0357 -0.0606,0.99466 -0.037,1.20107 0.0109,0.0811 0.013,0.30548 0.007,0.49865 -0.007,0.1932 -0.002,0.53114 0.005,0.75117 0.007,0.22 0.004,0.46053 -0.003,0.53449 -0.0109,0.074 -0.0109,0.4625 -10e-4,0.86342 0.008,0.40088 0.016,0.90324 0.0155,1.11638 6.9e-4,0.21313 0.006,0.5423 0.0134,0.73152 0.004,0.1892 0.003,0.35477 -0.005,0.36789 -0.0124,0.013 -0.0122,0.23719 -10e-4,0.49777 0.0116,0.2606 0.013,0.5721 0.004,0.69221 -0.007,0.12023 -0.003,0.4501 0.0116,0.73333 0.0128,0.2832 0.0238,0.59785 0.0192,0.69931 -0.002,0.10128 -0.006,0.30617 -0.006,0.45495 -0.002,0.14891 -0.008,0.42629 -0.0202,0.61657 -0.0109,0.19032 -0.005,0.38018 0.005,0.42206 0.0153,0.0416 0.0151,0.0907 -0.002,0.10874 -0.0155,0.018 -0.0243,0.12165 -0.0196,0.23039 0.004,0.10898 9e-5,0.27525 -0.008,0.37014 -0.0109,0.095 -0.0174,0.20546 -0.0162,0.24578 10e-4,0.0406 -0.007,0.1842 -0.0174,0.31971 -0.0109,0.13549 -0.0141,0.28064 -0.007,0.32245 0.005,0.0416 -0.005,0.17999 -0.0252,0.30702 -0.0203,0.12706 -0.0306,0.34188 -0.0224,0.47744 0.008,0.13553 0.005,0.38461 -0.004,0.5534 -0.0231,0.36355 0.0349,0.85161 0.10832,0.91577 0.0289,0.025 0.0559,0.074 0.0596,0.10918 0.0148,0.11287 0.1984,0.30946 0.2866,0.30365 0.0654,-0.002 0.0658,0.005 10e-4,0.0385 -0.0647,0.0346 -0.0617,0.0614 0.0151,0.12715 0.10766,0.0939 0.46389,0.0476 0.56631,-0.0736 0.1139,-0.13495 0.16936,-0.45636 0.1606,-0.93335 -0.005,-0.26148 0.002,-0.54853 0.0127,-0.6378 0.0301,-0.22747 0.0438,-0.66644 0.0406,-1.30906 8.4e-4,-0.30268 -10e-4,-0.66791 -1.3e-4,-0.81176 0.002,-0.14394 -7.7e-4,-0.3533 -0.003,-0.46549 -0.003,-0.11217 -8.5e-4,-0.36186 0.005,-0.55489 0.007,-0.19305 0.005,-0.48857 5e-5,-0.65676 -0.004,-0.16819 -0.003,-0.41013 0.004,-0.53758 0.0426,-0.62901 0.0597,-2.45603 0.0325,-3.441 -0.006,-0.20677 -0.005,-0.57946 -2.8e-4,-0.82814 0.005,-0.2487 0.007,-0.69097 0.005,-0.98285 -10e-4,-0.2919 -0.002,-0.82595 -0.002,-1.18677 0.002,-0.36086 -6.6e-4,-0.7404 -0.002,-0.84351 -0.003,-0.10305 -0.004,-0.40041 -0.003,-0.66071 0.002,-0.26026 -0.004,-0.49983 -0.0127,-0.53232 -0.0204,-0.0729 0.16249,-0.16212 0.45675,-0.22288 0.2014,-0.0414 0.25394,-0.0208 0.38395,0.15349 z m -2.02425,14.0288 c -0.008,0.0122 -0.008,0.0262 0.001,0.0349 0.0121,0.008 0.0262,0.008 0.0349,-0.001 0.008,-0.0122 0.008,-0.0262 -0.001,-0.0349 -0.0123,-0.008 -0.0262,-0.008 -0.035,0.001 z m 0.0303,0.22582 c 0.0145,0.065 0.0613,0.14652 0.1059,0.18109 0.0793,0.0611 0.0797,0.0606 0.0215,-0.0205 -0.0325,-0.046 -0.0617,-0.11216 -0.0654,-0.14801 -10e-4,-0.0358 -0.0243,-0.0795 -0.0466,-0.0979 -0.0221,-0.0179 -0.0292,0.0201 -0.0157,0.0852 z m -6.55317,23.33261 c -0.008,0.0122 -0.008,0.0262 0.001,0.0348 0.0122,0.008 0.0262,0.008 0.0349,-0.001 0.008,-0.0122 0.008,-0.0262 -10e-4,-0.0349 -0.0122,-0.008 -0.0262,-0.008 -0.0349,0.001 z m 0.0618,3.4117 c -0.008,0.0121 -0.008,0.0262 10e-4,0.0351 0.0122,0.008 0.0262,0.008 0.0349,-10e-4 0.008,-0.0122 0.008,-0.0262 -10e-4,-0.0348 -0.0123,-0.008 -0.0262,-0.008 -0.0351,10e-4 z m 0.31685,0.41803 c 10e-4,0.0258 0.024,0.0451 0.0499,0.0434 0.0258,-10e-4 0.024,-0.0227 -10e-4,-0.0467 -0.0277,-0.024 -0.0488,-0.0223 -0.0467,10e-4 z m -0.26627,0.0538 c -0.0178,0.0204 -0.0167,0.0512 0.003,0.0683 0.0194,0.0173 0.0605,0.0227 0.0912,0.0135 0.0308,-0.008 0.0297,-0.0403 -0.003,-0.0682 -0.0321,-0.0279 -0.0733,-0.034 -0.0912,-0.0135 z m 0.1558,0.38092 c 0.007,0.0714 0.0861,0.0412 0.0989,-0.0367 0.0116,-0.0587 -6.6e-4,-0.0663 -0.045,-0.0395 -0.0313,0.0183 -0.0556,0.0527 -0.0538,0.076 z m 0.004,0.11647 c -0.008,0.008 -0.006,0.0416 0.003,0.0723 0.008,0.0306 0.0329,0.038 0.0515,0.0164 0.0188,-0.0219 0.0178,-0.0544 -0.003,-0.0725 -0.0204,-0.0178 -0.0441,-0.025 -0.0517,-0.0163 z m -0.12404,1.27854 c -0.008,0.0122 -0.008,0.0262 0.001,0.0349 0.012,0.008 0.0262,0.008 0.0349,-0.001 0.008,-0.0121 0.008,-0.0262 -0.001,-0.0349 -0.0122,-0.008 -0.0262,-0.008 -0.0349,0.001 z"
       id="path275" />
  </g>
</svg>
