<?xml version="1.0" encoding="UTF-8" standalone="no"?>
<!-- Created with Inkscape (http://www.inkscape.org/) -->

<svg
   version="1.1"
   id="svg2541"
   width="11.458mm"
   height="11.458mm"
   viewBox="0 0 43.305828 43.305827"
   sodipodi:docname="chickenhead_black.svg"
   inkscape:version="1.2.2 (b0a8486541, 2022-12-01)"
   xmlns:inkscape="http://www.inkscape.org/namespaces/inkscape"
   xmlns:sodipodi="http://sodipodi.sourceforge.net/DTD/sodipodi-0.dtd"
   xmlns="http://www.w3.org/2000/svg"
   xmlns:svg="http://www.w3.org/2000/svg">
  <defs
     id="defs2545" />
  <sodipodi:namedview
     id="namedview2543"
     pagecolor="#ffffff"
     bordercolor="#000000"
     borderopacity="0.25"
     inkscape:showpageshadow="2"
     inkscape:pageopacity="0.0"
     inkscape:pagecheckerboard="0"
     inkscape:deskcolor="#d1d1d1"
     showgrid="true"
     inkscape:zoom="26.647718"
     inkscape:cx="21.802993"
     inkscape:cy="11.576976"
     inkscape:window-width="1920"
     inkscape:window-height="1018"
     inkscape:window-x="0"
     inkscape:window-y="0"
     inkscape:window-maximized="1"
     inkscape:current-layer="g2547"
     inkscape:document-units="mm">
    <inkscape:grid
       type="xygrid"
       id="grid304"
       originx="0"
       originy="0" />
  </sodipodi:namedview>
  <g
     inkscape:groupmode="layer"
     inkscape:label="Image"
     id="g2547"
     transform="translate(649.35282,-359.82874)">
    <path
       style="fill:#000000;stroke-width:0.045443"
       d="m -625.95791,360.07804 c 0.15051,0.21295 0.32978,0.612 0.36497,0.81246 0.0448,0.25544 0.56493,3.76303 0.88753,5.98565 0.11765,0.81079 0.22759,1.47867 0.24424,1.48417 1.51876,0.50236 2.96948,1.1962 3.98904,1.90789 1.37672,0.96096 2.89156,2.79645 3.81165,4.61848 0.23635,0.4681 0.71213,1.77064 0.86075,2.35659 0.37053,1.46104 0.48069,3.2387 0.29425,4.74898 -0.13641,1.10527 -0.74603,2.87922 -1.42914,4.15895 -0.52038,0.97486 -0.75961,1.297 -1.82401,2.45604 -1.05771,1.15179 -1.37338,1.43714 -2.51916,2.27715 -0.35755,0.26211 -0.64904,0.49427 -0.64774,0.51589 0.005,0.0866 0.17967,5.31714 0.24086,7.21807 0.0654,2.02746 0.0654,2.02746 -0.21675,2.33521 -0.25096,0.27386 -0.29086,0.33918 -0.36236,0.59299 -0.0442,0.15681 -0.14872,0.40996 -0.23233,0.56243 -0.15197,0.27725 -0.15197,0.27725 -0.79439,0.44836 -0.65081,0.17337 -1.57538,0.36687 -1.96208,0.41066 -0.11648,0.013 -0.35449,0.0435 -0.52905,0.0676 -1.59051,0.2187 -3.98379,0.0662 -6.2894,-0.40083 -0.98135,-0.19878 -1.51428,-0.32935 -1.58557,-0.38847 -0.2546,-0.21111 -0.29374,-0.29184 -0.37038,-0.76356 -0.0708,-0.43612 -0.0923,-0.4927 -0.24648,-0.64997 -0.0928,-0.0948 -0.22156,-0.26694 -0.28602,-0.3826 -0.11778,-0.21144 -0.19395,-0.67281 -0.12363,-0.74948 0.0207,-0.0226 0.0181,-0.0591 -0.007,-0.0811 -0.0799,-0.073 -0.0626,-0.45797 0.0222,-0.50032 0.0654,-0.0327 0.0629,-0.0427 -0.0171,-0.0632 -0.0807,-0.0207 -0.10356,-0.12129 -0.15181,-0.66853 -0.0312,-0.35425 -0.044,-0.66811 -0.0279,-0.69741 0.0162,-0.0294 0.013,-0.0672 -0.005,-0.0844 -0.0331,-0.0306 -0.10194,-0.55406 -0.16071,-1.22493 -0.0163,-0.18493 -0.008,-0.46937 0.0177,-0.63208 0.14046,-0.88237 0.52214,-3.25991 0.64489,-4.01731 0.1369,-0.84419 0.13771,-0.87479 0.0265,-0.93118 -0.0633,-0.032 -0.55192,-0.45938 -1.08586,-0.94957 -0.82409,-0.75662 -1.04126,-0.97691 -1.43744,-1.45818 -1.75731,-2.13467 -2.64416,-4.16717 -3.01042,-6.89943 -0.35059,-2.61525 0.14385,-4.97555 1.57078,-7.49803 0.42156,-0.74521 0.78139,-1.22603 1.51864,-2.02922 0.7708,-0.8397 1.09367,-1.11983 1.96345,-1.70346 1.21278,-0.81379 2.29467,-1.33374 4.06689,-1.95455 0.33159,-0.11622 0.2779,0.032 0.58196,-1.60672 0.0767,-0.41377 0.19058,-1.02454 0.25291,-1.35729 0.0624,-0.33271 0.18358,-0.98434 0.26949,-1.44806 0.72456,-3.91198 0.66419,-3.65477 0.89702,-3.82317 0.25637,-0.18541 0.32199,-0.21042 0.62827,-0.2394 0.21177,-0.0202 0.406,0.048 0.34062,0.11934 -0.0291,0.032 -0.0792,0.90803 -0.0626,1.0973 0.006,0.0745 0.005,0.27966 -0.005,0.45614 -0.0108,0.17646 -0.0145,0.48559 -0.013,0.68693 10e-4,0.20134 -0.005,0.42125 -0.0164,0.48863 -0.0117,0.0674 -0.021,0.42264 -0.0225,0.78942 -10e-4,0.36675 -0.007,0.82626 -0.0117,1.02114 -0.005,0.19488 -0.006,0.49602 -0.005,0.66918 0.001,0.17316 -0.005,0.32448 -0.0145,0.33624 -0.0117,0.0117 -0.0168,0.21658 -0.013,0.4551 0.004,0.23855 -0.001,0.52341 -0.0117,0.63305 -0.0108,0.10972 -0.013,0.41147 -0.008,0.67075 0.005,0.25926 0.007,0.54721 6.1e-4,0.63988 -0.005,0.0927 -0.013,0.27979 -0.017,0.41583 -0.005,0.1361 -0.0191,0.38953 -0.0331,0.56327 -0.0145,0.17375 -0.0145,0.34748 -0.004,0.38606 0.013,0.0385 0.0117,0.0833 -0.005,0.0995 -0.0145,0.0162 -0.0251,0.11063 -0.0233,0.21018 10e-4,0.0996 -0.006,0.2517 -0.0171,0.33821 -0.0117,0.0866 -0.0207,0.18747 -0.0207,0.22435 10e-5,0.037 -0.0108,0.16825 -0.0235,0.29191 -0.013,0.12363 -0.0196,0.25626 -0.0145,0.29466 0.005,0.0383 -0.008,0.16444 -0.0305,0.2801 -0.0217,0.11569 -0.0362,0.31187 -0.032,0.43602 0.005,0.12415 -0.004,0.3518 -0.0177,0.50589 -0.0298,0.33187 0.0117,0.7795 0.0772,0.83991 0.0258,0.0236 0.0492,0.069 0.052,0.10118 0.0108,0.10356 0.17401,0.28771 0.25478,0.2845 0.0599,-10e-4 0.0603,0.005 10e-4,0.0352 -0.06,0.0301 -0.0581,0.0546 0.0108,0.11661 0.0963,0.0884 0.42301,0.0546 0.51955,-0.0537 0.10735,-0.12064 0.16578,-0.41322 0.16919,-0.84954 10e-4,-0.23922 0.0145,-0.5015 0.0269,-0.58287 0.033,-0.20727 0.056,-0.60832 0.0687,-1.19596 0.007,-0.27674 0.0145,-0.61073 0.019,-0.74224 0.005,-0.13155 0.008,-0.32304 0.008,-0.42568 10e-6,-0.10259 0.008,-0.33088 0.0182,-0.50723 0.0108,-0.17634 0.017,-0.44659 0.0163,-0.6005 -10e-4,-0.15391 0.006,-0.37508 0.0171,-0.49142 0.0539,-0.57412 0.11336,-2.24425 0.11206,-3.14549 -2.6e-4,-0.18922 0.008,-0.52996 0.0195,-0.75721 0.0117,-0.22725 0.0236,-0.6316 0.0284,-0.89854 0.005,-0.26694 0.0167,-0.75528 0.0267,-1.08517 0.0108,-0.32989 0.0175,-0.677 0.0169,-0.77133 -5.9e-4,-0.0942 0.005,-0.36622 0.013,-0.60419 0.008,-0.23794 0.008,-0.45713 6e-4,-0.48705 -0.017,-0.0671 0.15244,-0.14435 0.42297,-0.19286 0.18512,-0.0331 0.23269,-0.013 0.34738,0.14954 z m -2.18674,12.77871 c -0.008,0.0108 -0.008,0.0236 10e-4,0.032 0.0108,0.008 0.0236,0.008 0.032,-0.001 0.008,-0.0108 0.008,-0.0236 -10e-4,-0.032 -0.0108,-0.008 -0.0236,-0.008 -0.032,10e-4 z m 0.0222,0.20722 c 0.0117,0.0598 0.0526,0.13543 0.0924,0.1681 0.0709,0.0578 0.0713,0.0573 0.0203,-0.0182 -0.0287,-0.0427 -0.054,-0.10422 -0.0564,-0.1369 -10e-4,-0.0327 -0.0204,-0.0734 -0.0403,-0.0906 -0.02,-0.0171 -0.0273,0.0178 -0.0163,0.0776 z m -6.55052,21.17717 c -0.008,0.0108 -0.008,0.0236 10e-4,0.0319 0.0108,0.008 0.0236,0.008 0.032,-10e-4 0.008,-0.0108 0.008,-0.0236 -0.001,-0.032 -0.0108,-0.008 -0.0236,-0.008 -0.032,10e-4 z m -0.0247,3.12098 c -0.008,0.0108 -0.008,0.0236 10e-4,0.032 0.0108,0.008 0.0236,0.008 0.032,-10e-4 0.008,-0.0108 0.008,-0.0236 -10e-4,-0.0319 -0.0108,-0.008 -0.0236,-0.008 -0.032,10e-4 z m 0.27969,0.38981 c 10e-4,0.0235 0.021,0.0418 0.0447,0.0409 0.0235,-10e-4 0.0226,-0.0203 -10e-4,-0.0428 -0.0247,-0.0225 -0.044,-0.0217 -0.0428,0.001 z m -0.24473,0.0429 c -0.0168,0.0184 -0.0165,0.0466 6e-4,0.0624 0.0174,0.0162 0.0546,0.0223 0.083,0.0145 0.0284,-0.008 0.028,-0.0362 -5.9e-4,-0.0624 -0.0286,-0.0262 -0.0662,-0.0327 -0.083,-0.0145 z m 0.13333,0.35201 c 0.004,0.0654 0.0779,0.0396 0.0914,-0.0312 0.0108,-0.0534 0.001,-0.0607 -0.0402,-0.0371 -0.0291,0.0161 -0.0522,0.0469 -0.0512,0.0683 z m 10e-4,0.1066 c -0.008,0.008 -0.006,0.0378 10e-4,0.0662 0.008,0.0282 0.0291,0.0355 0.0469,0.0163 0.0178,-0.0196 0.0176,-0.0494 -0.001,-0.0663 -0.0184,-0.0168 -0.0397,-0.0239 -0.0469,-0.0162 z m -0.14403,1.16606 c -0.008,0.0108 -0.008,0.0236 10e-4,0.032 0.0108,0.008 0.0236,0.008 0.032,-0.001 0.008,-0.0108 0.008,-0.0236 -10e-4,-0.032 -0.0108,-0.008 -0.0236,-0.008 -0.032,0.001 z"
       id="path275" />
  </g>
</svg>
