<?xml version="1.0" encoding="UTF-8" standalone="no"?>
<!-- Created with Inkscape (http://www.inkscape.org/) -->

<svg
   version="1.1"
   id="svg2541"
   width="11.458mm"
   height="11.458mm"
   viewBox="0 0 43.305828 43.305827"
   sodipodi:docname="chickenhead_ivory.svg"
   inkscape:version="1.2.2 (b0a8486541, 2022-12-01)"
   xmlns:inkscape="http://www.inkscape.org/namespaces/inkscape"
   xmlns:sodipodi="http://sodipodi.sourceforge.net/DTD/sodipodi-0.dtd"
   xmlns="http://www.w3.org/2000/svg"
   xmlns:svg="http://www.w3.org/2000/svg">
  <defs
     id="defs2545" />
  <sodipodi:namedview
     id="namedview2543"
     pagecolor="#ffffff"
     bordercolor="#000000"
     borderopacity="0.25"
     inkscape:showpageshadow="2"
     inkscape:pageopacity="0.0"
     inkscape:pagecheckerboard="0"
     inkscape:deskcolor="#d1d1d1"
     showgrid="true"
     inkscape:zoom="13.323859"
     inkscape:cx="7.4302798"
     inkscape:cy="26.306193"
     inkscape:window-width="1920"
     inkscape:window-height="1018"
     inkscape:window-x="0"
     inkscape:window-y="0"
     inkscape:window-maximized="1"
     inkscape:current-layer="g2547"
     inkscape:document-units="mm">
    <inkscape:grid
       type="xygrid"
       id="grid304"
       originx="0"
       originy="0" />
  </sodipodi:namedview>
  <g
     inkscape:groupmode="layer"
     inkscape:label="Image"
     id="g2547"
     transform="translate(649.35282,-359.82874)">
    <path
       style="fill:#ffe6d5;stroke-width:0.0429227"
       d="m -626.58432,362.42952 c 0.14738,0.19736 0.32651,0.56972 0.3647,0.75813 0.0486,0.24006 0.62646,3.53914 0.98602,5.6298 0.13112,0.76264 0.25144,1.39054 0.2673,1.39532 1.44647,0.43679 2.83341,1.05604 3.81368,1.70284 1.32369,0.87331 2.7994,2.56895 3.71322,4.26659 0.23473,0.43614 0.71617,1.65426 0.87101,2.20385 0.38598,1.37036 0.53393,3.04614 0.39525,4.47678 -0.10149,1.04699 -0.63323,2.73705 -1.24659,3.96229 -0.46725,0.93334 -0.68517,1.24341 -1.66154,2.36412 -0.97023,1.11368 -1.26123,1.39091 -2.32233,2.2124 -0.33111,0.25634 -0.6006,0.48276 -0.59884,0.50312 0.008,0.0815 0.30112,5.01609 0.40588,6.80947 0.1118,1.91275 0.1118,1.91275 -0.14692,2.21028 -0.23018,0.2648 -0.26623,0.32746 -0.32748,0.56888 -0.0378,0.14916 -0.13028,0.39077 -0.20547,0.53681 -0.13663,0.26554 -0.13663,0.26554 -0.73898,0.44298 -0.61023,0.17979 -1.47842,0.38536 -1.84248,0.43626 -0.10965,0.0153 -0.33361,0.0498 -0.49785,0.077 -1.49637,0.24581 -3.75992,0.16093 -5.94845,-0.22296 -0.93153,-0.16343 -1.43797,-0.27355 -1.50673,-0.3276 -0.24561,-0.19304 -0.28458,-0.2683 -0.3686,-0.71181 -0.0777,-0.41004 -0.0994,-0.46293 -0.24881,-0.60763 -0.09,-0.0872 -0.21579,-0.24656 -0.27952,-0.35417 -0.11643,-0.19674 -0.19976,-0.63048 -0.13526,-0.70462 0.0189,-0.0219 0.0156,-0.0563 -0.01,-0.0763 -0.0773,-0.0669 -0.0705,-0.43087 0.009,-0.47295 0.0608,-0.0324 0.0584,-0.0418 -0.0176,-0.0593 -0.0768,-0.0174 -0.10078,-0.11196 -0.15988,-0.62747 -0.0382,-0.33372 -0.0581,-0.62975 -0.0435,-0.65783 0.0146,-0.028 0.0105,-0.0638 -0.008,-0.0795 -0.0319,-0.028 -0.10986,-0.52063 -0.18203,-1.15263 -0.0199,-0.1742 -0.0197,-0.44297 7.9e-4,-0.59725 0.11079,-0.83662 0.4124,-3.09097 0.50958,-3.80916 0.10839,-0.80046 0.1084,-0.82939 0.002,-0.87987 -0.0606,-0.0287 -0.5325,-0.42012 -1.04877,-0.86977 -0.79683,-0.69404 -1.00731,-0.89667 -1.39331,-1.34129 -1.71204,-1.97213 -2.59968,-3.86932 -3.01307,-6.44011 -0.39568,-2.4607 0.0129,-4.70155 1.29777,-7.11859 0.37962,-0.71406 0.70749,-1.17696 1.38375,-1.95357 0.70704,-0.81191 1.00497,-1.0844 1.81179,-1.65698 1.12503,-0.79836 2.13369,-1.31607 3.7917,-1.94607 0.31021,-0.11793 0.2632,0.0234 0.50978,-1.53149 0.0623,-0.39257 0.15462,-0.97209 0.20524,-1.28781 0.0506,-0.31569 0.14898,-0.93397 0.21865,-1.37395 0.58741,-3.71165 0.53677,-3.46731 0.75245,-3.63207 0.23747,-0.1814 0.29883,-0.20665 0.5873,-0.24157 0.19946,-0.0242 0.38454,0.0351 0.32457,0.10426 -0.0266,0.0308 -0.0523,0.85932 -0.032,1.03764 0.009,0.0701 0.0113,0.26392 0.007,0.4308 -0.007,0.16691 -0.002,0.45887 0.005,0.64895 0.007,0.19007 0.004,0.39788 -0.003,0.46177 -0.009,0.064 -0.009,0.39957 -0.001,0.74593 0.008,0.34634 0.0138,0.78034 0.0134,0.96448 6e-4,0.18413 0.006,0.46851 0.0115,0.63198 0.004,0.16347 0.003,0.3065 -0.005,0.31784 -0.0107,0.0113 -0.0105,0.20492 -0.001,0.43003 0.01,0.22514 0.0113,0.49426 0.004,0.59803 -0.007,0.10387 -0.003,0.38885 0.01,0.63355 0.0111,0.24466 0.0205,0.5165 0.0166,0.60415 -0.002,0.0875 -0.006,0.26451 -0.006,0.39305 -0.002,0.12865 -0.008,0.36829 -0.0175,0.53267 -0.009,0.16442 -0.005,0.32845 0.005,0.36463 0.0132,0.036 0.0131,0.0784 -0.002,0.094 -0.0134,0.0156 -0.021,0.10509 -0.0169,0.19904 0.004,0.0941 7e-5,0.2378 -0.008,0.31977 -0.009,0.0821 -0.015,0.17751 -0.014,0.21234 0.001,0.035 -0.007,0.15914 -0.015,0.2762 -0.009,0.11706 -0.0122,0.24246 -0.007,0.27858 0.005,0.036 -0.005,0.1555 -0.0219,0.26524 -0.0176,0.10977 -0.0264,0.29537 -0.0194,0.41248 0.008,0.11709 0.005,0.33228 -0.004,0.4781 -0.02,0.31409 0.0302,0.73574 0.0936,0.79116 0.025,0.0217 0.0483,0.0639 0.0515,0.0943 0.0128,0.0975 0.17142,0.26735 0.24761,0.26233 0.0565,-0.002 0.0569,0.005 0.001,0.0332 -0.0558,0.0299 -0.0534,0.0531 0.0131,0.10984 0.093,0.0811 0.40076,0.0411 0.48924,-0.0636 0.0984,-0.11658 0.14632,-0.39426 0.13875,-0.80634 -0.005,-0.2259 0.002,-0.47389 0.011,-0.55102 0.026,-0.19652 0.0378,-0.57576 0.0351,-1.13094 7.2e-4,-0.26149 -0.001,-0.57703 -1.2e-4,-0.70131 0.002,-0.12435 -6.6e-4,-0.30522 -0.003,-0.40215 -0.003,-0.0969 -7.3e-4,-0.31262 0.005,-0.47938 0.007,-0.16678 0.005,-0.4221 5e-5,-0.5674 -0.004,-0.1453 -0.003,-0.35432 0.004,-0.46443 0.0368,-0.54342 0.0516,-2.12185 0.0281,-2.97279 -0.006,-0.17864 -0.005,-0.50061 -2.4e-4,-0.71546 0.005,-0.21485 0.007,-0.59695 0.005,-0.84911 -0.001,-0.25219 -0.002,-0.71357 -0.002,-1.02529 0.002,-0.31176 -5.8e-4,-0.63966 -0.002,-0.72873 -0.003,-0.089 -0.004,-0.34593 -0.003,-0.57081 0.002,-0.22486 -0.004,-0.43183 -0.011,-0.45989 -0.0177,-0.063 0.14038,-0.14007 0.39461,-0.19256 0.17398,-0.0358 0.21938,-0.018 0.3317,0.1326 z m -1.7488,12.11993 c -0.008,0.0105 -0.008,0.0226 0.001,0.0302 0.0104,0.008 0.0226,0.008 0.0302,-0.001 0.008,-0.0105 0.008,-0.0226 -0.001,-0.0302 -0.0106,-0.008 -0.0226,-0.008 -0.0303,0.001 z m 0.0261,0.1951 c 0.0125,0.0561 0.053,0.12658 0.0915,0.15644 0.0685,0.0528 0.0689,0.0523 0.0186,-0.0178 -0.0281,-0.0397 -0.0534,-0.0969 -0.0565,-0.12788 -0.001,-0.0309 -0.021,-0.0687 -0.0403,-0.0846 -0.0191,-0.0155 -0.0253,0.0174 -0.0136,0.0736 z m -5.66149,20.15778 c -0.008,0.0105 -0.008,0.0226 0.001,0.0301 0.0105,0.008 0.0226,0.008 0.0302,-0.001 0.008,-0.0105 0.008,-0.0226 -0.001,-0.0302 -0.0105,-0.008 -0.0226,-0.008 -0.0302,0.001 z m 0.0534,2.94748 c -0.008,0.0105 -0.008,0.0226 0.001,0.0303 0.0105,0.008 0.0226,0.008 0.0302,-0.001 0.008,-0.0105 0.008,-0.0226 -0.001,-0.0301 -0.0106,-0.008 -0.0226,-0.008 -0.0303,0.001 z m 0.27373,0.36116 c 0.001,0.0222 0.0207,0.0389 0.0431,0.0375 0.0222,-0.001 0.0207,-0.0197 -0.001,-0.0404 -0.0239,-0.0207 -0.0422,-0.0193 -0.0404,0.001 z m -0.23002,0.0465 c -0.0154,0.0177 -0.0144,0.0443 0.003,0.059 0.0167,0.0149 0.0522,0.0197 0.0787,0.0116 0.0266,-0.008 0.0256,-0.0348 -0.003,-0.0589 -0.0277,-0.0241 -0.0634,-0.0293 -0.0787,-0.0116 z m 0.13459,0.32909 c 0.007,0.0617 0.0744,0.0356 0.0854,-0.0317 0.01,-0.0507 -5.6e-4,-0.0573 -0.0389,-0.0342 -0.0271,0.0158 -0.0481,0.0455 -0.0465,0.0657 z m 0.004,0.10062 c -0.008,0.008 -0.006,0.036 0.003,0.0625 0.008,0.0264 0.0284,0.0328 0.0446,0.0142 0.0162,-0.0189 0.0154,-0.047 -0.003,-0.0626 -0.0177,-0.0154 -0.0381,-0.0217 -0.0447,-0.0141 z m -0.10716,1.10457 c -0.008,0.0105 -0.008,0.0226 0.001,0.0302 0.0104,0.008 0.0226,0.008 0.0302,-0.001 0.008,-0.0105 0.008,-0.0226 -0.001,-0.0302 -0.0105,-0.008 -0.0226,-0.008 -0.0302,0.001 z"
       id="path275" />
  </g>
</svg>
