<?xml version="1.0" encoding="UTF-8" standalone="no"?>
<!-- Created with Inkscape (http://www.inkscape.org/) -->

<svg
   width="30.780001mm"
   height="128.5mm"
   viewBox="0 0 30.780003 128.50002"
   version="1.1"
   id="svg8"
   inkscape:version="1.2.2 (b0a8486541, 2022-12-01)"
   sodipodi:docname="GainsSendsReturns_6hp_Plus.svg"
   xml:space="preserve"
   xmlns:inkscape="http://www.inkscape.org/namespaces/inkscape"
   xmlns:sodipodi="http://sodipodi.sourceforge.net/DTD/sodipodi-0.dtd"
   xmlns:xlink="http://www.w3.org/1999/xlink"
   xmlns="http://www.w3.org/2000/svg"
   xmlns:svg="http://www.w3.org/2000/svg"
   xmlns:rdf="http://www.w3.org/1999/02/22-rdf-syntax-ns#"
   xmlns:cc="http://creativecommons.org/ns#"
   xmlns:dc="http://purl.org/dc/elements/1.1/"><defs
     id="defs2"><linearGradient
       inkscape:collect="always"
       id="linearGradient840"><stop
         style="stop-color:#16502d;stop-opacity:1;"
         offset="0"
         id="stop836" /><stop
         style="stop-color:#163650;stop-opacity:1;"
         offset="1"
         id="stop838" /></linearGradient><linearGradient
       inkscape:collect="always"
       xlink:href="#linearGradient840"
       id="linearGradient842"
       x1="29.399649"
       y1="297.12344"
       x2="29.337139"
       y2="168.29951"
       gradientUnits="userSpaceOnUse"
       gradientTransform="matrix(1.0098425,0,0,1,15.24,0)" /></defs><sodipodi:namedview
     id="base"
     pagecolor="#ffffff"
     bordercolor="#666666"
     borderopacity="1.0"
     inkscape:pageopacity="0.0"
     inkscape:pageshadow="2"
     inkscape:zoom="11.2"
     inkscape:cx="40"
     inkscape:cy="479.95535"
     inkscape:document-units="mm"
     inkscape:current-layer="layer1"
     showgrid="true"
     units="mm"
     inkscape:snap-bbox="true"
     inkscape:snap-page="true"
     inkscape:bbox-nodes="false"
     inkscape:snap-bbox-edge-midpoints="false"
     inkscape:window-width="1920"
     inkscape:window-height="1018"
     inkscape:window-x="0"
     inkscape:window-y="0"
     inkscape:window-maximized="1"
     inkscape:snap-bbox-midpoints="true"
     inkscape:snap-nodes="false"
     inkscape:showpageshadow="2"
     inkscape:pagecheckerboard="0"
     inkscape:deskcolor="#d1d1d1"><inkscape:grid
       type="xygrid"
       id="grid409"
       originx="3.2153322e-07"
       originy="5.1757821e-07" /></sodipodi:namedview><metadata
     id="metadata5"><rdf:RDF><cc:Work
         rdf:about=""><dc:format>image/svg+xml</dc:format><dc:type
           rdf:resource="http://purl.org/dc/dcmitype/StillImage" /></cc:Work></rdf:RDF></metadata><g
     inkscape:label="Layer 1"
     inkscape:groupmode="layer"
     id="layer1"
     transform="translate(-15.240002,-168.49997)"><rect
       style="display:inline;opacity:1;vector-effect:none;fill:url(#linearGradient842);fill-opacity:1;fill-rule:evenodd;stroke:none;stroke-width:0.652546;stroke-linecap:butt;stroke-linejoin:miter;stroke-miterlimit:4;stroke-dasharray:none;stroke-dashoffset:0;stroke-opacity:1;paint-order:normal;image-rendering:auto"
       id="rect420"
       width="30.780001"
       height="128.5"
       x="15.240002"
       y="168.49997" /><g
       id="g453-6-5"
       transform="matrix(0.84454783,0,0,1.1066192,1.2987302,124.92664)"
       style="fill:#461621;fill-opacity:1"><path
         id="path367-7-6"
         style="fill:#461621;fill-opacity:1;stroke-width:0.149643"
         d="m 48.009388,53.890553 a 6.5,6.5 0 0 1 -6.5,6.5 6.5,6.5 0 0 1 -6.5,-6.5 6.5,6.5 0 0 1 6.5,-6.5 6.5,6.5 0 0 1 6.5,6.5 z" /><path
         id="path367-3-5-2"
         style="fill:#461621;fill-opacity:1;stroke-width:0.149643"
         d="m 48.009388,67.982697 a 6.5,6.5 0 0 1 -6.5,6.5 6.5,6.5 0 0 1 -6.5,-6.5 6.5,6.5 0 0 1 6.5,-6.5 6.5,6.5 0 0 1 6.5,6.5 z" /><path
         id="rect448-3-9"
         style="fill:#461621;fill-opacity:1;stroke-width:0.264583"
         d="M 34.997028,52.734241 H 48.021749 V 68.45921 H 34.997028 Z" /></g><g
       inkscape:label="silkscreen"
       id="layer1-6"
       transform="matrix(0.26458333,0,0,0.26458333,-21.313645,156.61284)"><path
         inkscape:connector-curvature="0"
         id="path3015"
         style="font-style:normal;font-variant:normal;font-weight:500;font-stretch:normal;font-size:12px;line-height:125%;font-family:OCRA;-inkscape-font-specification:'OCRA Medium';text-align:start;letter-spacing:0px;word-spacing:0px;writing-mode:lr-tb;text-anchor:start;fill:#461621;fill-opacity:1;stroke:none"
         d="m 228.50553,502.44523 c 0.08,-0.016 0.16399,-0.012 0.252,0.012 0.024,0.008 0.06,0.02 0.108,0.036 0.11199,0.056 0.19599,0.14401 0.252,0.264 0.024,0.04 0.41199,1.35601 1.164,3.948 0.75999,2.59201 1.13999,3.90001 1.14,3.924 0.008,0.024 0.012,0.06 0.012,0.108 -1e-5,0.19201 -0.076,0.344 -0.228,0.456 -0.14401,0.112 -0.30801,0.144 -0.492,0.096 -0.18401,-0.048 -0.31201,-0.164 -0.384,-0.348 -0.008,-0.032 -0.088,-0.29999 -0.24,-0.804 l -0.216,-0.756 h -1.272 -1.26 l -0.228,0.768 c -0.144,0.51201 -0.224,0.78001 -0.24,0.804 -0.04,0.11201 -0.112,0.2 -0.216,0.264 -0.16,0.112 -0.332,0.132 -0.516,0.06 -0.184,-0.08 -0.3,-0.21599 -0.348,-0.408 -0.024,-0.088 -0.024,-0.17599 0,-0.264 0.008,-0.048 0.388,-1.35199 1.14,-3.912 0.75199,-2.56799 1.13199,-3.86399 1.14,-3.888 0.024,-0.064 0.068,-0.12799 0.132,-0.192 0.088,-0.088 0.18799,-0.14399 0.3,-0.168 m 0.564,4.212 c -0.30401,-1.05599 -0.45601,-1.58399 -0.456,-1.584 -1e-5,-0.008 -0.024,0.06 -0.072,0.204 -0.04,0.13601 -0.096,0.32801 -0.168,0.576 -0.072,0.24001 -0.14801,0.50401 -0.228,0.792 l -0.468,1.584 h 0.468 c 0.31199,1e-5 0.61999,1e-5 0.924,0 h 0.468 l -0.468,-1.572" /><path
         inkscape:connector-curvature="0"
         id="path3017"
         style="font-style:normal;font-variant:normal;font-weight:500;font-stretch:normal;font-size:12px;line-height:125%;font-family:OCRA;-inkscape-font-specification:'OCRA Medium';text-align:start;letter-spacing:0px;word-spacing:0px;writing-mode:lr-tb;text-anchor:start;fill:#000000;fill-opacity:1;stroke:none"
         d="m 234.35965,506.87323 v -4.44 h 1.788 l 1.788,0.012 0.108,0.012 c 0.52,0.08 0.956,0.30001 1.308,0.66 0.112,0.11201 0.212,0.23201 0.3,0.36 0.2,0.30401 0.32,0.64801 0.36,1.032 0.008,0.072 0.012,0.21601 0.012,0.432 0,0.21601 -0.004,0.36001 -0.012,0.432 -0.056,0.55201 -0.276,1.01601 -0.66,1.392 l -0.108,0.108 0.108,0.108 c 0.112,0.10401 0.212,0.22401 0.3,0.36 0.184,0.28001 0.3,0.59601 0.348,0.948 0.016,0.08 0.024,0.25201 0.024,0.516 0,0.26401 -0.008,0.43601 -0.024,0.516 -0.064,0.42401 -0.224,0.80001 -0.48,1.128 -0.104,0.13601 -0.224,0.25601 -0.36,0.36 -0.304,0.24001 -0.648,0.396 -1.032,0.468 -0.136,0.024 -0.812,0.036 -2.028,0.036 h -1.74 v -4.44 m 3.588,-3.264 -0.084,-0.024 h -1.176 -1.188 v 1.356 1.356 h 1.188 1.176 l 0.084,-0.024 c 0.224,-0.048 0.412,-0.14399 0.564,-0.288 0.16,-0.15199 0.268,-0.33599 0.324,-0.552 0.024,-0.10399 0.036,-0.28399 0.036,-0.54 0,-0.19999 -0.008,-0.32399 -0.024,-0.372 -0.072,-0.37599 -0.276,-0.64799 -0.612,-0.816 -0.088,-0.04 -0.184,-0.072 -0.288,-0.096 m 0,3.852 -0.084,-0.012 h -1.176 -1.188 v 1.356 1.356 h 1.188 1.176 l 0.084,-0.012 c 0.368,-0.08 0.636,-0.28399 0.804,-0.612 0.048,-0.096 0.08,-0.19999 0.096,-0.312 0.016,-0.048 0.024,-0.18799 0.024,-0.42 0,-0.23199 -0.008,-0.37199 -0.024,-0.42 -0.072,-0.37599 -0.276,-0.64799 -0.612,-0.816 -0.088,-0.048 -0.184,-0.084 -0.288,-0.108" /><path
         inkscape:connector-curvature="0"
         id="path3019"
         style="font-style:normal;font-variant:normal;font-weight:500;font-stretch:normal;font-size:12px;line-height:125%;font-family:OCRA;-inkscape-font-specification:'OCRA Medium';text-align:start;letter-spacing:0px;word-spacing:0px;writing-mode:lr-tb;text-anchor:start;fill:#000000;fill-opacity:1;stroke:none"
         d="m 244.05378,502.44523 c 0.048,-0.008 0.576,-0.012 1.584,-0.012 1.00799,1e-5 1.53999,0.004 1.596,0.012 0.36799,0.048 0.67599,0.20001 0.924,0.456 0.24799,0.25601 0.39199,0.56401 0.432,0.924 0.032,0.24001 -0.024,0.42801 -0.168,0.564 -0.11201,0.10401 -0.24401,0.15601 -0.396,0.156 -0.056,10e-6 -0.10801,-0.004 -0.156,-0.012 -0.10401,-0.032 -0.18801,-0.084 -0.252,-0.156 -0.096,-0.10399 -0.15201,-0.23599 -0.168,-0.396 -1e-5,-0.056 -0.008,-0.10399 -0.024,-0.144 -0.04,-0.11199 -0.12001,-0.18799 -0.24,-0.228 l -0.048,-0.024 h -1.476 -1.488 l -0.024,0.024 c -0.072,0.048 -0.092,0.10801 -0.06,0.18 0.016,0.016 0.72799,0.93201 2.136,2.748 1.41599,1.81601 2.13599,2.74001 2.16,2.772 0.11199,0.16801 0.17999,0.35201 0.204,0.552 0.04,0.32001 -0.032,0.61601 -0.216,0.888 -0.18401,0.26401 -0.43201,0.436 -0.744,0.516 -0.088,0.024 -0.19601,0.04 -0.324,0.048 -0.12001,0 -0.59601,0 -1.428,0 -1.00001,0 -1.528,-0.004 -1.584,-0.012 -0.368,-0.048 -0.676,-0.2 -0.924,-0.456 -0.248,-0.25599 -0.392,-0.56399 -0.432,-0.924 -0.024,-0.22399 0.028,-0.40399 0.156,-0.54 0.072,-0.08 0.16,-0.13199 0.264,-0.156 0.04,-0.016 0.088,-0.024 0.144,-0.024 0.152,10e-6 0.284,0.052 0.396,0.156 0.112,0.10401 0.172,0.24001 0.18,0.408 0.008,0.064 0.016,0.11201 0.024,0.144 0.048,0.11201 0.128,0.18801 0.24,0.228 l 0.048,0.024 h 1.476 1.464 l 0.036,-0.012 c 0.088,-0.04 0.11199,-0.1 0.072,-0.18 -1e-5,-0.016 -0.71201,-0.93199 -2.136,-2.748 -1.416,-1.82399 -2.136,-2.75199 -2.16,-2.784 -0.136,-0.21599 -0.204,-0.45199 -0.204,-0.708 0,-0.26399 0.072,-0.49999 0.216,-0.708 0.216,-0.32799 0.516,-0.51999 0.9,-0.576" /><path
         inkscape:connector-curvature="0"
         id="path3096"
         style="font-style:normal;font-variant:normal;font-weight:500;font-stretch:normal;font-size:28px;line-height:125%;font-family:OCRA;-inkscape-font-specification:'OCRA Medium';text-align:start;letter-spacing:0px;word-spacing:0px;writing-mode:lr-tb;text-anchor:start;fill:#000000;fill-opacity:1;stroke:none"
         d="m 182.34374,502.29445 c 0.18667,-0.0373 0.38267,-0.028 0.588,0.028 0.056,0.0187 0.14,0.0467 0.252,0.084 0.26133,0.13069 0.45733,0.33602 0.588,0.616 0.0747,0.14935 0.112,0.30802 0.112,0.476 0.0187,0.14935 0.028,0.85869 0.028,2.128 l 0.028,2.268 1.96,5.012 c 0.336,0.91468 0.65333,1.75468 0.952,2.52 0.31733,0.76534 0.55999,1.37201 0.728,1.82 0.18666,0.44801 0.27999,0.67201 0.28,0.672 -10e-6,-0.0187 0.65333,-1.69866 1.96,-5.04 l 1.96,-5.012 v -2.184 c -1e-5,-1.53065 0.028,-2.37065 0.084,-2.52 0.056,-0.16798 0.15866,-0.32665 0.308,-0.476 0.16799,-0.16798 0.33599,-0.27998 0.504,-0.336 0.35466,-0.11198 0.69999,-0.0933 1.036,0.056 0.27999,0.13069 0.48532,0.33602 0.616,0.616 0.0746,0.14935 0.11199,0.31735 0.112,0.504 0.0186,0.16802 0.028,0.95202 0.028,2.352 v 2.492 l -2.688,6.916 c -1.79201,4.592 -2.70667,6.916 -2.744,6.972 -0.056,0.13067 -0.14934,0.252 -0.28,0.364 -0.33601,0.31733 -0.72801,0.42933 -1.176,0.336 -0.42934,-0.0933 -0.74667,-0.34533 -0.952,-0.756 -0.0187,-0.0747 -0.896,-2.324 -2.632,-6.748 -1.71733,-4.42399 -2.604,-6.71065 -2.66,-6.86 l -0.084,-0.224 v -2.436 c 0,-1.69865 0.028,-2.62265 0.084,-2.772 0.056,-0.16798 0.15867,-0.32665 0.308,-0.476 0.20533,-0.20531 0.43867,-0.33598 0.7,-0.392" /><path
         inkscape:connector-curvature="0"
         id="path3098"
         style="font-style:normal;font-variant:normal;font-weight:500;font-stretch:normal;font-size:28px;line-height:125%;font-family:OCRA;-inkscape-font-specification:'OCRA Medium';text-align:start;letter-spacing:0px;word-spacing:0px;writing-mode:lr-tb;text-anchor:start;fill:#000000;fill-opacity:1;stroke:none"
         d="m 205.54326,502.29445 c 0.14932,-0.0186 0.95199,-0.028 2.408,-0.028 1.45598,2e-5 2.22132,0.009 2.296,0.028 0.31732,0.056 0.57865,0.21469 0.784,0.476 0.20532,0.24269 0.30798,0.52269 0.308,0.84 -2e-5,0.26135 -0.0747,0.51335 -0.224,0.756 -0.14935,0.22402 -0.34535,0.38269 -0.588,0.476 -0.13068,0.056 -0.28002,0.0933 -0.448,0.112 -0.14935,2e-5 -0.83068,2e-5 -2.044,0 -1.25068,2e-5 -1.96001,0.009 -2.128,0.028 -0.14935,2e-5 -0.29868,0.0374 -0.448,0.112 -0.14935,0.0747 -0.30801,0.21468 -0.476,0.42 -0.16801,0.18668 -0.75601,0.93335 -1.764,2.24 -1.23201,1.58668 -1.87601,2.41735 -1.932,2.492 -0.18667,0.28001 -0.32667,0.61601 -0.42,1.008 l -0.028,0.168 v 3.892 c -1e-5,2.57601 0.009,3.90134 0.028,3.976 0.11199,0.41067 0.35466,0.7 0.728,0.868 0.13066,0.0747 0.28932,0.12134 0.476,0.14 0.20532,0 1.09199,0 2.66,0 1.58665,0 2.47332,0 2.66,0 0.20532,-0.0187 0.38265,-0.0653 0.532,-0.14 0.27999,-0.13066 0.48532,-0.336 0.616,-0.616 0.0746,-0.14933 0.11198,-0.28 0.112,-0.392 0.0186,-0.13066 0.028,-0.60666 0.028,-1.428 v -1.512 h -1.372 c -0.97068,10e-6 -1.54001,-0.028 -1.708,-0.084 -0.16801,-0.056 -0.32668,-0.15866 -0.476,-0.308 -0.14934,-0.14933 -0.25201,-0.31733 -0.308,-0.504 -0.11201,-0.27999 -0.12134,-0.56932 -0.028,-0.868 0.0747,-0.18666 0.18666,-0.35466 0.336,-0.504 0.14932,-0.14932 0.30799,-0.25199 0.476,-0.308 0.16799,-0.056 1.18532,-0.084 3.052,-0.084 h 2.716 v 2.828 c -2e-5,1.86667 -0.009,2.89334 -0.028,3.08 -0.056,0.448 -0.18668,0.87734 -0.392,1.288 -0.29868,0.59734 -0.72802,1.092 -1.288,1.484 -0.54135,0.392 -1.14802,0.63467 -1.82,0.728 -0.18668,0.0187 -1.21335,0.028 -3.08,0.028 -2.01601,0 -3.16401,-0.028 -3.444,-0.084 -0.44801,-0.112 -0.86801,-0.28 -1.26,-0.504 -1.10134,-0.69067 -1.72667,-1.68933 -1.876,-2.996 -0.0373,-0.168 -0.056,-1.52133 -0.056,-4.06 0.0187,-2.53866 0.0373,-3.90132 0.056,-4.088 0.0747,-0.91465 0.36399,-1.73599 0.868,-2.464 0.0933,-0.13065 0.76533,-1.00798 2.016,-2.632 1.26932,-1.64265 1.96932,-2.51998 2.1,-2.632 0.65332,-0.69065 1.44666,-1.10131 2.38,-1.232" /><path
         inkscape:connector-curvature="0"
         id="path3100"
         style="font-style:normal;font-variant:normal;font-weight:500;font-stretch:normal;font-size:28px;line-height:125%;font-family:OCRA;-inkscape-font-specification:'OCRA Medium';text-align:start;letter-spacing:0px;word-spacing:0px;writing-mode:lr-tb;text-anchor:start;fill:#000000;fill-opacity:1;stroke:none"
         d="m 219.25888,502.29445 c 0.18667,-0.0373 0.38267,-0.028 0.588,0.028 0.18666,0.0374 0.35466,0.12135 0.504,0.252 0.20533,0.18669 0.35466,0.42002 0.448,0.7 0.0187,0.0747 0.028,2.93068 0.028,8.568 v 8.456 h 4.676 c 3.09866,0 4.68532,0.009 4.76,0.028 0.31732,0.056 0.57865,0.21467 0.784,0.476 0.20532,0.24267 0.30799,0.52267 0.308,0.84 -1e-5,0.31733 -0.10268,0.60667 -0.308,0.868 -0.20535,0.24267 -0.46668,0.392 -0.784,0.448 -0.0747,0.0187 -2.10934,0.028 -6.104,0.028 h -5.992 v -9.744 c 0,-5.28265 0,-8.25065 0,-8.904 0,-0.67198 0.028,-1.07331 0.084,-1.204 0.056,-0.14931 0.15867,-0.29865 0.308,-0.448 0.20533,-0.20531 0.43867,-0.33598 0.7,-0.392" /><path
         style="fill:#461621;fill-opacity:1;stroke-width:0.126269"
         d="M 7.0353077,20.889866 C 6.8805625,20.781478 6.6762683,20.539988 6.5813208,20.353223 6.4863732,20.166455 5.2366339,16.998144 3.8041225,13.312529 L 1.1995561,6.6114098 V 4.0282805 c 0,-2.832774 0.028705,-2.9568669 0.7730111,-3.34176256 0.5162584,-0.26696757 1.1767989,-0.0505322 1.5091326,0.49448856 0.2152359,0.3529825 0.2423464,0.6522681 0.2427657,2.6799975 4.546e-4,2.1720462 0.01651,2.3219315 0.3314818,3.0935922 0.1820555,0.4460232 0.9517906,2.4259802 1.7105226,4.3999038 1.6823645,4.376854 1.8832054,4.849098 2.0073806,4.720025 0.053699,-0.05582 0.9545259,-2.305074 2.0018368,-4.998346 l 1.9042017,-4.8968574 0.0071,-2.1742101 c 0.0083,-2.5340137 0.101111,-2.9290413 0.769101,-3.27371125 0.544975,-0.28119704 0.972136,-0.21128921 1.415,0.23157463 0.297914,0.29791392 0.309039,0.37910502 0.391887,2.86011542 l 0.08527,2.5534976 -0.839481,2.1465741 c -0.461715,1.1806158 -1.691333,4.334186 -2.732484,7.007933 -2.0471021,5.257101 -2.210983,5.555839 -3.0477903,5.555839 -0.2265198,0 -0.5384637,-0.08868 -0.693209,-0.197068 z"
         id="path21921"
         transform="translate(180.13563,501.78988)" /><path
         style="fill:#461621;fill-opacity:1;stroke-width:0.126269"
         d="m 20.549248,20.818604 c -0.909027,-0.349359 -1.815661,-1.253919 -2.140443,-2.135547 -0.315216,-0.85566 -0.43655,-3.867786 -0.30499,-7.571379 0.110257,-3.1038843 0.08711,-3.0495755 2.800001,-6.5702795 3.135092,-4.06862826 2.971969,-3.9731877 6.790808,-3.9731877 h 2.693349 l 0.368675,0.41236656 c 0.423339,0.47350614 0.486558,1.06777494 0.162771,1.53004654 -0.38551,0.550394 -0.876064,0.6461028 -3.311584,0.6461028 -1.97012,0 -2.297164,0.028591 -2.52765,0.2209708 -0.559559,0.4670481 -4.154379,5.2476448 -4.292381,5.7082536 -0.09342,0.311822 -0.142812,1.8842149 -0.142812,4.5468179 v 4.070154 l 0.435527,0.435526 0.435526,0.435528 3.173702,-0.03778 3.173702,-0.03778 0.368247,-0.412367 c 0.366361,-0.410253 0.368248,-0.420687 0.368248,-2.036629 V 14.42516 l -1.594321,-0.05308 -1.59432,-0.05308 -0.36285,-0.406101 c -0.49772,-0.557044 -0.495424,-1.172851 0.0062,-1.674518 l 0.369094,-0.369095 h 2.850767 2.850767 v 3.007964 c 0,3.659942 -0.05295,3.883365 -1.189629,5.020048 -1.155121,1.155121 -1.317858,1.190991 -5.367289,1.18305 -3.054123,-0.006 -3.414784,-0.02948 -4.019159,-0.26175 z"
         id="path21923"
         transform="translate(180.13563,501.78988)" /><path
         style="fill:#461621;fill-opacity:1;stroke-width:0.126269"
         d="m 38.070124,11.423295 c 0,-10.69696107 -0.02287,-10.3844664 0.784669,-10.72187781 0.556982,-0.23272192 1.046293,-0.1183519 1.426424,0.33340811 l 0.314288,0.3735105 v 8.5766085 8.5766087 h 4.741361 c 5.281888,0 5.344886,0.0092 5.687924,0.830199 0.231235,0.553426 0.12229,0.981441 -0.351229,1.379882 l -0.374714,0.3153 h -6.114361 -6.114362 z"
         id="path21925"
         transform="translate(180.13563,501.78988)" /><path
         style="fill:#461621;fill-opacity:1;stroke-width:0.126269"
         d="m 55.90563,4.4528737 c 0.329877,-0.026011 0.869678,-0.026011 1.199556,0 0.329878,0.026011 0.05998,0.047293 -0.599778,0.047293 -0.659756,0 -0.929656,-0.021282 -0.599778,-0.047293 z"
         id="path21927"
         transform="translate(180.13563,501.78988)" /><path
         style="fill:#461621;fill-opacity:1;stroke-width:0.126269"
         d="M 54.232564,5.1138972 V 0.7576144 h 1.977644 c 1.860137,0 2.008395,0.0180209 2.495172,0.3032911 0.729046,0.4272496 1.083023,1.1102661 1.083023,2.0897471 0,0.8098705 -0.109922,1.1404721 -0.534264,1.6068492 L 59.00397,5.0324515 59.36462,5.505287 c 0.328555,0.430758 0.360649,0.5644784 0.360649,1.5026462 0,0.9404781 -0.03159,1.0712256 -0.364149,1.5072346 -0.611293,0.8014461 -1.117526,0.94904 -3.266087,0.9522391 l -1.862469,0.00277 z m 4.241223,2.9287146 c 0.234115,-0.2724212 0.304464,-0.5004503 0.304464,-0.9868864 0,-1.2274133 -0.411751,-1.4998864 -2.266573,-1.4998864 h -1.268961 v 1.4629601 1.4629601 l 1.463303,-0.042433 c 1.423633,-0.041283 1.471557,-0.052038 1.767767,-0.3967144 z m -0.06463,-3.8660196 c 0.312459,-0.3124591 0.369094,-0.4689507 0.369094,-1.0198655 0,-0.5509149 -0.05663,-0.7074064 -0.369094,-1.0198656 C 58.045638,1.7733429 58.018932,1.7677669 56.64139,1.7677669 h -1.398673 v 1.3889598 1.3889597 h 1.398673 c 1.377542,0 1.404248,-0.00558 1.767767,-0.3690942 z"
         id="path21929"
         transform="translate(180.13563,501.78988)" /><path
         style="fill:#461621;fill-opacity:1;stroke-width:0.126269"
         d="M 63.568065,9.1840667 C 63.326124,9.0210225 63.065015,8.6917374 62.961035,8.4185388 62.790444,7.9703265 62.795632,7.9220609 63.040738,7.676955 63.37757,7.3401228 63.645402,7.4470154 63.881715,8.0125917 l 0.18695,0.4474358 h 1.647941 c 1.286512,0 1.647941,-0.036809 1.647941,-0.1678305 0,-0.092307 -0.971389,-1.413397 -2.158643,-2.9357558 -1.187254,-1.522359 -2.210126,-2.899716 -2.273049,-3.0607935 -0.15515,-0.3971668 -0.02719,-0.8327845 0.357672,-1.2176479 0.315335,-0.31533503 0.351119,-0.3203854 2.27005,-0.3203854 h 1.949665 l 0.362628,0.3626277 c 0.641362,0.641362 0.639534,1.4682738 -0.0032,1.4682738 -0.280213,0 -0.4147,-0.1453023 -0.555138,-0.5997781 -0.06044,-0.1955834 -0.256474,-0.2209709 -1.706291,-0.2209709 -0.900905,0 -1.668976,0.050106 -1.706825,0.1113471 -0.03785,0.061241 0.593984,0.9561728 1.404073,1.9887377 2.894968,3.6900182 3.069457,3.938953 3.066449,4.374759 -0.0031,0.4424417 -0.280757,0.8644795 -0.714938,1.0865217 -0.162636,0.083173 -0.970995,0.1410476 -1.970065,0.1410476 -1.55144,0 -1.730049,-0.024118 -2.118824,-0.2861133 z"
         id="path21931"
         transform="translate(180.13563,501.78988)" /></g><g
       id="g453-6-5-3"
       transform="matrix(0.04606625,0,0,4.2447729,13.62782,-25.912164)"
       style="fill:#855560;fill-opacity:1"><path
         id="path367-7-6-6"
         style="fill:#855560;fill-opacity:1;stroke-width:0.149643"
         d="m 48.009388,53.890553 a 6.5,6.5 0 0 1 -6.5,6.5 6.5,6.5 0 0 1 -6.5,-6.5 6.5,6.5 0 0 1 6.5,-6.5 6.5,6.5 0 0 1 6.5,6.5 z" /><path
         id="path367-3-5-2-7"
         style="fill:#855560;fill-opacity:1;stroke-width:0.149643"
         d="m 48.009388,67.982697 a 6.5,6.5 0 0 1 -6.5,6.5 6.5,6.5 0 0 1 -6.5,-6.5 6.5,6.5 0 0 1 6.5,-6.5 6.5,6.5 0 0 1 6.5,6.5 z" /><path
         id="rect448-3-9-5"
         style="fill:#855560;fill-opacity:1;stroke-width:0.264583"
         d="M 34.997028,52.734241 H 48.021749 V 68.45921 H 34.997028 Z" /></g><g
       aria-label="Loop"
       id="text5045"
       style="font-size:4.23333px;font-family:OCRA;-inkscape-font-specification:'OCRA, Normal';text-align:center;text-anchor:middle;fill:#855560;stroke-width:0.2;stroke-linejoin:bevel"><path
         d="m 30.971088,169.68048 q 0.04233,-0.008 0.0889,0.004 0.01693,0.004 0.0381,0.0169 0.0254,0.008 0.0381,0.0212 0.02117,0.0212 0.0381,0.0508 0.02117,0.0254 0.02963,0.055 l 0.0042,1.2954 v 1.27846 h 0.706966 q 0.702732,0 0.719666,0.004 0.07197,0.0127 0.118533,0.072 0.04657,0.055 0.04657,0.127 0,0.072 -0.04657,0.13124 -0.04657,0.055 -0.118533,0.0677 -0.01693,0.004 -0.922866,0.004 h -0.905933 v -1.47319 q 0,-1.19804 0,-1.3462 0,-0.1524 0.0127,-0.18204 0.0127,-0.0339 0.04657,-0.0677 0.0254,-0.0254 0.04657,-0.0381 0.0254,-0.0127 0.05927,-0.0212 z"
         id="path5771" /><path
         d="m 34.510152,170.53138 q 0.0254,0 0.3302,0 0.3048,0 0.3302,0.004 0.0254,0.004 0.05927,0.0127 0.0381,0.008 0.05927,0.0169 0.04233,0.0169 0.0889,0.0466 0.0508,0.0254 0.08043,0.0466 0.04657,0.0381 0.110067,0.0974 0.06773,0.055 0.08043,0.072 0.0762,0.072 0.118533,0.1651 0.04657,0.0931 0.05927,0.19896 0,0.008 0,0.0254 0.0042,0.0169 0.0042,0.0466 0,0.0296 0,0.0847 0,0.055 0,0.13123 0,0.072 0,0.1905 0,0.44873 -0.0042,0.48683 -0.02963,0.20743 -0.1778,0.3556 -0.04657,0.0466 -0.1905,0.1651 -0.105833,0.0847 -0.249766,0.11853 -0.07197,0.0127 -0.376766,0.0127 -0.313267,0 -0.381,-0.0127 -0.131233,-0.0296 -0.2413,-0.1143 -0.1397,-0.11006 -0.211666,-0.18626 -0.1397,-0.14394 -0.160867,-0.35137 -0.0042,-0.0296 -0.0042,-0.47413 0,-0.44873 0.0042,-0.48683 0.0127,-0.1016 0.0508,-0.18627 0.04233,-0.0847 0.110067,-0.15663 0.08043,-0.0847 0.215899,-0.18627 0.127,-0.0974 0.296333,-0.12277 z m 0.6223,0.41064 q -0.0042,-0.004 -0.0127,-0.004 -0.0085,0 -0.04233,0 -0.03387,0 -0.08467,0 -0.04657,-0.004 -0.156633,-0.004 -0.2921,0 -0.321733,0.0127 -0.01693,0.004 -0.03387,0.0127 -0.0127,0.008 -0.0254,0.0169 -0.0127,0.0127 -0.0889,0.0804 -0.06773,0.0593 -0.0889,0.0804 -0.01693,0.0212 -0.02963,0.0593 l -0.0085,0.0212 v 0.44874 q 0,0.0381 0,0.1016 0,0.36406 0.0127,0.39369 l 0.0042,0.004 q 0.02117,0.0423 0.122766,0.127 0.05927,0.0508 0.0762,0.0677 0.02117,0.0127 0.03387,0.0212 0.03387,0.0169 0.06773,0.0212 0.03387,0 0.275167,0 0.01693,0 0.04657,0 0.249767,0 0.2794,-0.0127 0.0042,-0.004 0.0042,-0.004 0.02963,-0.0127 0.127,-0.0974 0.04233,-0.0339 0.05927,-0.0508 0.02117,-0.0169 0.03387,-0.0339 0.01693,-0.0169 0.02117,-0.0254 0.0042,-0.0127 0.0127,-0.0339 l 0.0085,-0.0254 v -0.44873 q 0,-0.31327 0,-0.381 0,-0.072 -0.0042,-0.0804 -0.0042,-0.0169 -0.01693,-0.0381 -0.0085,-0.0254 -0.02117,-0.0381 0,0 -0.02117,-0.0169 -0.01693,-0.0169 -0.04233,-0.0381 -0.0254,-0.0254 -0.0508,-0.0466 -0.0254,-0.0212 -0.04657,-0.0381 -0.02117,-0.0212 -0.02963,-0.0254 -0.0254,-0.0169 -0.05927,-0.0254 z"
         id="path5773" /><path
         d="m 37.536984,170.53138 q 0.0254,0 0.3302,0 0.304799,0 0.330199,0.004 0.0254,0.004 0.05927,0.0127 0.0381,0.008 0.05927,0.0169 0.04233,0.0169 0.0889,0.0466 0.0508,0.0254 0.08043,0.0466 0.04657,0.0381 0.110066,0.0974 0.06773,0.055 0.08043,0.072 0.0762,0.072 0.118533,0.1651 0.04657,0.0931 0.05927,0.19896 0,0.008 0,0.0254 0.0042,0.0169 0.0042,0.0466 0,0.0296 0,0.0847 0,0.055 0,0.13123 0,0.072 0,0.1905 0,0.44873 -0.0042,0.48683 -0.02963,0.20743 -0.177799,0.3556 -0.04657,0.0466 -0.1905,0.1651 -0.105834,0.0847 -0.249767,0.11853 -0.07197,0.0127 -0.376766,0.0127 -0.313267,0 -0.381,-0.0127 -0.131233,-0.0296 -0.2413,-0.1143 -0.139699,-0.11006 -0.211666,-0.18626 -0.1397,-0.14394 -0.160867,-0.35137 -0.0042,-0.0296 -0.0042,-0.47413 0,-0.44873 0.0042,-0.48683 0.0127,-0.1016 0.0508,-0.18627 0.04233,-0.0847 0.110067,-0.15663 0.08043,-0.0847 0.2159,-0.18627 0.127,-0.0974 0.296333,-0.12277 z m 0.622299,0.41064 q -0.0042,-0.004 -0.0127,-0.004 -0.0085,0 -0.04233,0 -0.03387,0 -0.08467,0 -0.04657,-0.004 -0.156633,-0.004 -0.2921,0 -0.321733,0.0127 -0.01693,0.004 -0.03387,0.0127 -0.0127,0.008 -0.0254,0.0169 -0.0127,0.0127 -0.0889,0.0804 -0.06773,0.0593 -0.0889,0.0804 -0.01693,0.0212 -0.02963,0.0593 l -0.0085,0.0212 v 0.44874 q 0,0.0381 0,0.1016 0,0.36406 0.0127,0.39369 l 0.0042,0.004 q 0.02117,0.0423 0.122767,0.127 0.05927,0.0508 0.0762,0.0677 0.02117,0.0127 0.03387,0.0212 0.03387,0.0169 0.06773,0.0212 0.03387,0 0.275167,0 0.01693,0 0.04657,0 0.249766,0 0.279399,-0.0127 0.0042,-0.004 0.0042,-0.004 0.02963,-0.0127 0.127,-0.0974 0.04233,-0.0339 0.05927,-0.0508 0.02117,-0.0169 0.03387,-0.0339 0.01693,-0.0169 0.02117,-0.0254 0.0042,-0.0127 0.0127,-0.0339 l 0.0085,-0.0254 v -0.44873 q 0,-0.31327 0,-0.381 0,-0.072 -0.0042,-0.0804 -0.0042,-0.0169 -0.01693,-0.0381 -0.0085,-0.0254 -0.02117,-0.0381 0,0 -0.02117,-0.0169 -0.01693,-0.0169 -0.04233,-0.0381 -0.0254,-0.0254 -0.0508,-0.0466 -0.0254,-0.0212 -0.04657,-0.0381 -0.02117,-0.0212 -0.02963,-0.0254 -0.0254,-0.0169 -0.05927,-0.0254 z"
         id="path5775" /><path
         d="m 40.038882,170.45095 q 0.04657,-0.0127 0.09737,0 0.1143,0.0254 0.148166,0.14393 0.0042,0.0127 0.0042,0.0254 0,0.0127 0,0.0635 l 0.0042,0.072 0.08043,-0.0847 q 0.08043,-0.0804 0.1016,-0.0974 0.143933,-0.11007 0.321733,-0.127 0.02963,-0.004 0.1143,0 0.08467,0 0.110067,0.004 0.03387,0.004 0.0635,0.0127 0.03387,0.008 0.0635,0.0212 0.02963,0.0127 0.05927,0.0296 0.02963,0.0127 0.05503,0.0254 0.0085,0.008 0.01693,0.0169 0.0085,0.004 0.01693,0.0127 0.0085,0.004 0.02117,0.0169 0.01693,0.008 0.02963,0.0212 0.01693,0.0127 0.04233,0.0381 0.300567,0.25824 0.325967,0.28364 0.131233,0.13546 0.1651,0.3302 0.0042,0.0296 0.0042,0.41063 v 0.381 l -0.0085,0.0339 q -0.03387,0.1905 -0.156633,0.32174 -0.01693,0.0169 -0.186266,0.16086 -0.1651,0.14394 -0.220134,0.1905 -0.135466,0.11007 -0.313266,0.13124 -0.03387,0.004 -0.110067,0.004 -0.07197,0 -0.105833,-0.004 -0.169333,-0.0212 -0.309033,-0.127 -0.02117,-0.0169 -0.1016,-0.0974 l -0.08467,-0.0804 v 0.45296 q 0,0.38524 -0.0042,0.42757 0,0.0466 -0.01693,0.0804 -0.02963,0.0635 -0.0889,0.0931 -0.04233,0.0212 -0.09313,0.0212 -0.04657,0 -0.0889,-0.0212 -0.01693,-0.008 -0.0381,-0.0254 -0.01693,-0.0127 -0.02963,-0.0296 -0.0127,-0.0169 -0.02117,-0.0381 -0.0042,-0.008 -0.0127,-0.0212 -0.0042,-0.008 -0.0042,-0.0169 -0.0042,-0.0169 -0.0042,-1.45626 v -1.4351 l 0.0042,-0.0212 q 0.03387,-0.11853 0.148166,-0.14393 z m 0.948266,0.4064 q -0.0085,-0.004 -0.0254,-0.004 -0.01693,0 -0.0381,0 -0.02117,-0.004 -0.04657,-0.004 -0.02117,0 -0.04233,0.004 -0.01693,0 -0.02117,0 -0.0254,0.004 -0.04657,0.0127 -0.01693,0.008 -0.03387,0.0212 -0.0127,0.008 -0.198966,0.19474 -0.186267,0.18626 -0.198967,0.2032 -0.0127,0.0169 -0.02117,0.0296 -0.0085,0.0127 -0.0127,0.0339 l -0.0085,0.0254 v 0.28363 q -0.0042,0.28363 0,0.3048 0.0042,0.0169 0.0127,0.0381 0.0085,0.0212 0.01693,0.0381 l 0.3937,0.39793 0.0085,0.004 q 0.03387,0.0296 0.07197,0.0381 0.02117,0.008 0.09737,0.008 0.0508,0 0.0635,0 0.01693,-0.004 0.02963,-0.008 0.03387,-0.008 0.0635,-0.0296 0.03387,-0.0254 0.182033,-0.15663 0.186267,-0.15664 0.198967,-0.17357 0.0127,-0.0127 0.02117,-0.0296 0.0127,-0.0212 0.01693,-0.0423 l 0.0085,-0.0212 v -0.3556 q 0,-0.254 0,-0.3048 0,-0.055 -0.0042,-0.0677 -0.0127,-0.0381 -0.03387,-0.072 -0.0085,-0.008 -0.1905,-0.1651 -0.182033,-0.16087 -0.203199,-0.17357 -0.0085,-0.008 -0.02117,-0.0127 -0.0085,-0.004 -0.02117,-0.008 -0.0085,-0.004 -0.01693,-0.008 z"
         id="path5777" /></g><g
       aria-label="Poly
Aux8"
       id="text6709"
       style="font-size:3.175px;font-family:OCRA;-inkscape-font-specification:'OCRA, Normal';text-align:center;text-anchor:middle;fill:#461621;stroke-width:0.2;stroke-linejoin:bevel"><path
         d="m 16.860313,289.77234 v -1.1049 h 0.542925 q 0.4572,0.003 0.511175,0.003 0.05715,0 0.09842,0.0127 0.09208,0.0222 0.1651,0.0794 0.07302,0.0571 0.12065,0.1397 0.04763,0.0794 0.05715,0.17145 0,0.0127 0,0.0794 0.0032,0.0635 0.0032,0.1524 0,0.0889 0,0.1778 0,0.0889 -0.0032,0.15558 0,0.0667 0,0.0762 -0.01905,0.15875 -0.130175,0.27305 -0.111125,0.11112 -0.2667,0.13017 -0.03175,0.003 -0.41275,0.003 h -0.384175 v 0.38417 q 0,0.32703 -0.0032,0.36513 0,0.0349 -0.0127,0.0603 -0.02223,0.0476 -0.06668,0.0698 -0.06033,0.0286 -0.12065,0.006 -0.0095,-0.003 -0.01905,-0.006 -0.0095,-0.006 -0.01905,-0.0127 -0.0064,-0.006 -0.01588,-0.0159 -0.0254,-0.0286 -0.03492,-0.054 -0.0095,-0.0222 -0.0095,-0.13335 0,-0.1143 0,-1.01282 z m 1.0795,-0.79693 q -0.0095,-0.003 -0.3937,-0.003 h -0.384175 v 0.42227 0.42228 h 0.384175 q 0.320675,0 0.358775,0 0.0381,-0.003 0.0635,-0.0159 0.04763,-0.0222 0.06985,-0.0698 0.0032,-0.003 0.0032,-0.006 0.0127,-0.0222 0.0127,-0.26352 0,-0.0413 0,-0.0667 v -0.29527 l -0.0064,-0.0159 q -0.02222,-0.0826 -0.10795,-0.10795 z"
         id="path6920" /><path
         d="m 19.638438,289.30879 q 0.01905,0 0.24765,0 0.2286,0 0.24765,0.003 0.01905,0.003 0.04445,0.01 0.02858,0.006 0.04445,0.0127 0.03175,0.0127 0.06668,0.0349 0.0381,0.0191 0.06032,0.0349 0.03493,0.0286 0.08255,0.073 0.0508,0.0413 0.06032,0.054 0.05715,0.054 0.0889,0.12382 0.03492,0.0699 0.04445,0.14923 0,0.006 0,0.0191 0.0032,0.0127 0.0032,0.0349 0,0.0222 0,0.0635 0,0.0413 0,0.0984 0,0.054 0,0.14287 0,0.33655 -0.0032,0.36513 -0.02222,0.15557 -0.13335,0.2667 -0.03492,0.0349 -0.142875,0.12382 -0.07937,0.0635 -0.187325,0.0889 -0.05398,0.01 -0.282575,0.01 -0.23495,0 -0.28575,-0.01 -0.09842,-0.0222 -0.180975,-0.0857 -0.104775,-0.0826 -0.15875,-0.1397 -0.104775,-0.10795 -0.12065,-0.26353 -0.0032,-0.0222 -0.0032,-0.3556 0,-0.33655 0.0032,-0.36512 0.0095,-0.0762 0.0381,-0.1397 0.03175,-0.0635 0.08255,-0.11748 0.06032,-0.0635 0.161925,-0.1397 0.09525,-0.073 0.22225,-0.0921 z m 0.466725,0.30797 q -0.0032,-0.003 -0.0095,-0.003 -0.0064,0 -0.03175,0 -0.0254,0 -0.0635,0 -0.03493,-0.003 -0.117475,-0.003 -0.219075,0 -0.2413,0.01 -0.0127,0.003 -0.0254,0.01 -0.0095,0.006 -0.01905,0.0127 -0.0095,0.01 -0.06668,0.0603 -0.0508,0.0444 -0.06668,0.0603 -0.0127,0.0159 -0.02222,0.0444 l -0.0064,0.0159 v 0.33655 q 0,0.0286 0,0.0762 0,0.27305 0.0095,0.29527 l 0.0032,0.003 q 0.01587,0.0317 0.09207,0.0953 0.04445,0.0381 0.05715,0.0508 0.01588,0.01 0.0254,0.0159 0.0254,0.0127 0.0508,0.0159 0.0254,0 0.206375,0 0.0127,0 0.03493,0 0.187325,0 0.20955,-0.01 0.0032,-0.003 0.0032,-0.003 0.02222,-0.01 0.09525,-0.073 0.03175,-0.0254 0.04445,-0.0381 0.01587,-0.0127 0.0254,-0.0254 0.0127,-0.0127 0.01588,-0.019 0.0032,-0.01 0.0095,-0.0254 l 0.0064,-0.019 v -0.33655 q 0,-0.23495 0,-0.28575 0,-0.054 -0.0032,-0.0603 -0.0032,-0.0127 -0.0127,-0.0286 -0.0064,-0.019 -0.01588,-0.0286 0,0 -0.01587,-0.0127 -0.0127,-0.0127 -0.03175,-0.0286 -0.01905,-0.019 -0.0381,-0.0349 -0.01905,-0.0159 -0.03492,-0.0286 -0.01588,-0.0159 -0.02223,-0.019 -0.01905,-0.0127 -0.04445,-0.019 z"
         id="path6922" /><path
         d="m 21.676789,288.67061 q 0.0095,-0.003 0.254,-0.003 0.01905,0 0.05397,0.003 0.200025,0 0.22225,0.01 0.0063,0.003 0.0095,0.003 0.06032,0.0317 0.07937,0.0984 0.0032,0.0127 0.0032,0.97155 v 0.95885 h 0.161925 l 0.161925,0.003 0.0127,0.003 q 0.03175,0.01 0.05715,0.0318 0.0254,0.019 0.0381,0.0476 0.01587,0.0286 0.01587,0.0667 0,0.0381 -0.01587,0.0667 -0.0127,0.0286 -0.0381,0.0508 -0.0254,0.019 -0.05715,0.0286 l -0.01588,0.006 h -0.473075 -0.4699 l -0.01588,-0.006 q -0.0508,-0.0127 -0.08255,-0.054 -0.02858,-0.0413 -0.02858,-0.0921 0,-0.0254 0.0064,-0.0476 0.0095,-0.0254 0.02222,-0.0444 0.01588,-0.0191 0.03493,-0.0318 0.02222,-0.0159 0.04762,-0.0222 l 0.0127,-0.003 0.161925,-0.003 h 0.161925 v -0.86995 -0.86995 h -0.161925 -0.161925 l -0.0127,-0.006 q -0.04127,-0.01 -0.06985,-0.0381 -0.0254,-0.0286 -0.0381,-0.0667 -0.0095,-0.0381 0,-0.0762 0.0095,-0.0445 0.04445,-0.0762 0.03493,-0.0317 0.07937,-0.0381 z"
         id="path6924" /><path
         d="m 23.794514,289.30879 q 0.05398,-0.01 0.104775,0.019 0.0095,0.006 0.02858,0.0254 0.01905,0.019 0.0254,0.0317 0.0063,0.01 0.0095,0.0222 0.0095,0.019 0.0095,0.0413 0,0.0222 0,0.11747 v 0.11748 l 0.200025,0.45085 0.19685,0.45085 h 0.0508 0.0508 l 0.19685,-0.45085 0.19685,-0.45085 v -0.11748 q 0,-0.0953 0,-0.11747 0.0032,-0.0222 0.0095,-0.0413 0.0095,-0.0286 0.03493,-0.054 0.02858,-0.0254 0.05715,-0.0381 0.0508,-0.0159 0.1016,0 0.02858,0.0127 0.05397,0.0381 0.01588,0.0159 0.02223,0.0286 0.0095,0.01 0.01587,0.0254 0.0095,0.0254 0.0095,0.18098 0,0.15557 -0.0127,0.18732 l -0.79375,1.80658 q -0.0127,0.019 -0.03493,0.0381 -0.02222,0.019 -0.04445,0.0254 -0.0254,0.01 -0.2667,0.01 h -0.22225 l -0.0127,-0.003 q -0.0508,-0.0159 -0.08255,-0.0572 -0.02858,-0.0381 -0.02858,-0.0921 0,-0.0508 0.02858,-0.0921 0.03175,-0.0381 0.08255,-0.054 0.0127,-0.003 0.180975,-0.006 h 0.17145 l 0.09842,-0.2286 q 0.0127,-0.0286 0.02222,-0.054 0.0127,-0.0254 0.02223,-0.0476 0.0127,-0.0222 0.01905,-0.0413 0.0095,-0.0222 0.01587,-0.0381 0.0064,-0.0159 0.0127,-0.0254 0.0063,-0.0127 0.0063,-0.019 0.0032,-0.006 0.0032,-0.006 h -0.0381 q -0.06668,0 -0.104775,-0.0222 -0.03493,-0.019 -0.05398,-0.054 0,-0.003 -0.1143,-0.26035 -0.111125,-0.25718 -0.225425,-0.51435 -0.1143,-0.26035 -0.117475,-0.26988 -0.0095,-0.0349 -0.0095,-0.18097 0,-0.15558 0.0095,-0.18098 0.0095,-0.0286 0.03493,-0.054 0.01905,-0.0191 0.03492,-0.0286 0.01905,-0.01 0.04445,-0.0159 z"
         id="path6926" /><path
         d="m 17.581038,292.63936 q 0.03175,-0.006 0.06668,0.003 0.0032,0 0.0095,0.003 0.0095,0.003 0.01905,0.006 0.04445,0.0222 0.06668,0.0698 0.0095,0.0159 0.307975,1.04458 0.301625,1.0287 0.301625,1.03822 0.0032,0.01 0.0032,0.0286 0,0.0508 -0.02858,0.0889 -0.0254,0.0381 -0.06985,0.054 -0.04445,0.0159 -0.09208,0.003 -0.07302,-0.019 -0.1016,-0.0921 -0.0032,-0.0127 -0.0635,-0.21272 l -0.05715,-0.20003 h -0.33655 -0.333375 l -0.06032,0.2032 q -0.0032,0.019 -0.0095,0.0381 -0.0064,0.0159 -0.0127,0.0349 -0.0032,0.0159 -0.0095,0.0317 -0.0032,0.0159 -0.0063,0.0286 -0.0032,0.0127 -0.0064,0.0254 -0.0032,0.0127 -0.0064,0.0222 -0.0032,0.01 -0.0063,0.0159 -0.0032,0.006 -0.0032,0.0127 0,0.003 -0.0032,0.003 -0.01588,0.0444 -0.05715,0.0698 -0.0635,0.0445 -0.136525,0.0159 -0.07303,-0.0317 -0.09208,-0.10795 -0.0095,-0.0349 0,-0.0698 0.0032,-0.019 0.301625,-1.03505 0.29845,-1.01917 0.301625,-1.0287 0.0095,-0.0254 0.03493,-0.0508 0.01905,-0.019 0.03492,-0.0286 0.01905,-0.01 0.04445,-0.0159 z m 0.149225,1.11443 q -0.12065,-0.4191 -0.12065,-0.4191 0,-0.003 -0.0064,0.019 -0.0063,0.0222 -0.01905,0.0603 -0.0127,0.0381 -0.02858,0.0889 -0.0127,0.0508 -0.03175,0.11748 -0.01905,0.0635 -0.0381,0.13017 l -0.123825,0.4191 h 0.123825 q 0.0508,0 0.12065,0 0.07302,0 0.123825,0 h 0.123825 z"
         id="path6928" /><path
         d="m 19.257438,293.27754 q 0.02858,-0.006 0.0635,0.003 0.0381,0.0127 0.06668,0.0413 0.02857,0.0286 0.04127,0.0698 0.0032,0.0159 0.02222,0.5842 0.0127,0.33655 0.01588,0.4572 0.0063,0.12065 0.0063,0.13017 0.01588,0.0826 0.09843,0.11113 l 0.01905,0.006 h 0.111125 q 0.09208,0 0.111125,0 0.01905,-0.003 0.0381,-0.0127 0.01588,-0.006 0.244475,-0.1524 l 0.2286,-0.14923 v -0.47625 q 0,-0.38417 0,-0.43815 0.0032,-0.054 0.0095,-0.0762 0.0032,-0.006 0.0063,-0.0127 0.0032,-0.01 0.0064,-0.0127 0.01905,-0.0349 0.05398,-0.054 0.0127,-0.006 0.02858,-0.01 0.01587,-0.006 0.02858,-0.01 0.0508,-0.006 0.09525,0.019 0.03492,0.019 0.05397,0.054 0.01588,0.0254 0.01905,0.054 0.0032,0.0159 0.0032,0.7366 0,0.51435 -0.0032,0.61912 0,0.10478 0,0.11113 -0.0127,0.0349 -0.03175,0.0571 -0.03175,0.0413 -0.07937,0.0508 -0.01905,0.006 -0.04128,0.006 -0.01905,0 -0.0381,-0.006 -0.01905,-0.006 -0.03492,-0.0159 -0.01905,-0.01 -0.0381,-0.0317 -0.01905,-0.0222 -0.0254,-0.0413 -0.0095,-0.0254 -0.0127,-0.0984 v -0.0635 l -0.1524,0.0984 q -0.18415,0.11747 -0.238125,0.13335 -0.04763,0.0159 -0.09525,0.0222 -0.02858,0.003 -0.149225,0.003 -0.117475,0 -0.136525,-0.003 -0.155575,-0.0286 -0.257175,-0.13335 -0.10795,-0.1143 -0.127,-0.26987 l -0.0381,-1.143 q 0,-0.0413 0.0127,-0.0698 0.03175,-0.073 0.1143,-0.0889 z"
         id="path6930" /><path
         d="m 21.559314,293.27754 q 0.0064,0 0.01588,0 0.0127,0 0.0254,0 0.0127,0 0.01905,0.003 0.01905,0.006 0.0381,0.019 0.02222,0.01 0.03493,0.0222 0.0032,0.003 0.06985,0.0857 0.06985,0.0825 0.161925,0.19368 0.22225,0.2667 0.225425,0.2667 0.0032,-0.003 0.225425,-0.26988 0.22225,-0.2667 0.2286,-0.27622 0.0095,-0.01 0.02223,-0.0159 0.0127,-0.01 0.0254,-0.0159 0.06985,-0.0317 0.136525,0.01 0.06985,0.0381 0.0762,0.11748 0.0032,0.0127 0,0.0286 0,0.0127 -0.0064,0.0286 -0.0032,0.0127 -0.0127,0.0254 -0.0064,0.0127 -0.254,0.31115 -0.244475,0.29845 -0.244475,0.30162 0,0 0.257175,0.31115 0.06668,0.0825 0.127,0.15558 0.06032,0.073 0.09525,0.11747 0.0381,0.0445 0.04127,0.0476 0.03493,0.0444 0.02858,0.10477 -0.0032,0.0572 -0.04763,0.0953 -0.04445,0.0444 -0.10795,0.0413 -0.0635,-0.003 -0.10795,-0.0508 -0.0032,-0.003 -0.0762,-0.0921 -0.07302,-0.0889 -0.17145,-0.20637 l -0.23495,-0.28575 -0.0127,0.01 q -0.0095,0.0127 -0.244475,0.29528 -0.231775,0.28257 -0.2413,0.2921 -0.05715,0.0508 -0.13335,0.0349 -0.07303,-0.0159 -0.104775,-0.0857 -0.0095,-0.019 -0.0127,-0.0381 -0.0032,-0.0222 -0.0032,-0.0413 0.0032,-0.019 0.0095,-0.0381 0.0095,-0.019 0.02222,-0.0349 0.0064,-0.0127 0.263525,-0.32068 0.257175,-0.31115 0.257175,-0.31115 0,-0.003 -0.24765,-0.30162 -0.130175,-0.15875 -0.1905,-0.2286 -0.05715,-0.073 -0.06032,-0.0825 -0.0254,-0.0413 -0.01905,-0.0826 l 0.0127,-0.0571 q 0.03493,-0.0699 0.1143,-0.0826 z"
         id="path6932" /><path
         d="m 24.092964,292.63936 q 0.0064,0 0.06985,0 0.06668,-0.003 0.26035,-0.003 h 0.0032 0.0032 0.0063 0.0032 0.0032 0.0032 0.0032 0.0032 0.0032 0.0032 0.0032 0.0032 0.0032 0.0032 0.0032 0.0032 0.0032 0.0032 0.0032 l 0.0032,0.003 h 0.0032 0.0032 0.0063 q 0.254,0 0.27305,0.01 l 0.0095,0.003 q 0.0095,0.006 0.01905,0.0159 0.0127,0.006 0.01905,0.0159 0.0095,0.006 0.01588,0.0159 0.0063,0.01 0.0127,0.0222 0.0127,0.0254 0.0127,0.0699 0.0032,0.0413 0.0032,0.4191 v 0.44768 h 0.0095 q 0.0254,0 0.0635,0.01 0.03175,0.01 0.06033,0.0254 0.03175,0.0127 0.05715,0.0349 0.0254,0.0222 0.04445,0.0476 0.02223,0.0254 0.03493,0.0572 0.01588,0.0286 0.02222,0.0603 0.0095,0.0381 0.0095,0.44132 v 0.38735 l -0.0063,0.0191 q -0.01588,0.0762 -0.0635,0.13335 -0.0127,0.0159 -0.02858,0.0286 -0.0127,0.0127 -0.02858,0.0254 -0.01588,0.01 -0.03493,0.019 -0.01587,0.01 -0.03492,0.019 -0.01588,0.006 -0.03493,0.0127 -0.01905,0.003 -0.04127,0.003 -0.01588,0.003 -0.48895,0.003 h -0.473075 l -0.01905,-0.006 q -0.10795,-0.0254 -0.1778,-0.10478 -0.04127,-0.054 -0.05715,-0.11747 -0.0095,-0.0381 -0.0095,-0.43498 0,-0.39687 0.0095,-0.43497 0.01588,-0.0603 0.05398,-0.11113 0.04127,-0.0508 0.09525,-0.0794 0.05715,-0.0317 0.12065,-0.0381 h 0.01905 v -0.44133 q 0,-0.3556 0,-0.4064 0,-0.054 0.0095,-0.0762 0.0095,-0.0254 0.03493,-0.0508 0.0127,-0.0127 0.02222,-0.019 0.0127,-0.01 0.0254,-0.0159 0.01588,-0.006 0.03175,-0.01 z m 0.473075,0.6604 v -0.35877 h -0.149225 -0.14605 v 0.35877 0.35878 h 0.14605 0.149225 z m 0.29845,1.02235 v -0.35877 h -0.4445 -0.447675 v 0.35877 0.35878 h 0.447675 0.4445 z"
         id="path6934" /></g></g></svg>
