<?xml version="1.0" encoding="UTF-8" standalone="no"?>
<!-- Created with Inkscape (http://www.inkscape.org/) -->

<svg
   width="30.780001mm"
   height="128.5mm"
   viewBox="0 0 30.780003 128.50002"
   version="1.1"
   id="svg8"
   inkscape:version="1.2.2 (b0a8486541, 2022-12-01)"
   sodipodi:docname="GainsSendsReturns_6hp_Plus.svg"
   xml:space="preserve"
   xmlns:inkscape="http://www.inkscape.org/namespaces/inkscape"
   xmlns:sodipodi="http://sodipodi.sourceforge.net/DTD/sodipodi-0.dtd"
   xmlns:xlink="http://www.w3.org/1999/xlink"
   xmlns="http://www.w3.org/2000/svg"
   xmlns:svg="http://www.w3.org/2000/svg"
   xmlns:rdf="http://www.w3.org/1999/02/22-rdf-syntax-ns#"
   xmlns:cc="http://creativecommons.org/ns#"
   xmlns:dc="http://purl.org/dc/elements/1.1/"><defs
     id="defs2"><linearGradient
       inkscape:collect="always"
       id="linearGradient840"><stop
         style="stop-color:#16502d;stop-opacity:1;"
         offset="0"
         id="stop836" /><stop
         style="stop-color:#163650;stop-opacity:1;"
         offset="1"
         id="stop838" /></linearGradient><linearGradient
       inkscape:collect="always"
       xlink:href="#linearGradient840"
       id="linearGradient842"
       x1="29.399649"
       y1="296.25482"
       x2="90.871651"
       y2="154.06741"
       gradientUnits="userSpaceOnUse"
       gradientTransform="matrix(1.0098425,0,0,1,15.24,0)" /></defs><sodipodi:namedview
     id="base"
     pagecolor="#ffffff"
     bordercolor="#666666"
     borderopacity="1.0"
     inkscape:pageopacity="0.0"
     inkscape:pageshadow="2"
     inkscape:zoom="3.959798"
     inkscape:cx="36.112953"
     inkscape:cy="88.262079"
     inkscape:document-units="mm"
     inkscape:current-layer="layer1"
     showgrid="true"
     units="mm"
     inkscape:snap-bbox="true"
     inkscape:snap-page="true"
     inkscape:bbox-nodes="false"
     inkscape:snap-bbox-edge-midpoints="false"
     inkscape:window-width="1920"
     inkscape:window-height="1018"
     inkscape:window-x="0"
     inkscape:window-y="0"
     inkscape:window-maximized="1"
     inkscape:snap-bbox-midpoints="true"
     inkscape:snap-nodes="false"
     inkscape:showpageshadow="2"
     inkscape:pagecheckerboard="0"
     inkscape:deskcolor="#d1d1d1"><inkscape:grid
       type="xygrid"
       id="grid409"
       originx="3.2153322e-07"
       originy="5.1757821e-07" /></sodipodi:namedview><metadata
     id="metadata5"><rdf:RDF><cc:Work
         rdf:about=""><dc:format>image/svg+xml</dc:format><dc:type
           rdf:resource="http://purl.org/dc/dcmitype/StillImage" /></cc:Work></rdf:RDF></metadata><g
     inkscape:label="Layer 1"
     inkscape:groupmode="layer"
     id="layer1"
     transform="translate(-15.240002,-168.49997)"><rect
       style="display:inline;opacity:1;vector-effect:none;fill:url(#linearGradient842);fill-opacity:1;fill-rule:evenodd;stroke:none;stroke-width:0.652546;stroke-linecap:butt;stroke-linejoin:miter;stroke-miterlimit:4;stroke-dasharray:none;stroke-dashoffset:0;stroke-opacity:1;paint-order:normal;image-rendering:auto"
       id="rect420"
       width="30.780001"
       height="128.5"
       x="15.240002"
       y="168.49997" /><g
       id="g453-6-5"
       transform="matrix(0.84454783,0,0,1.1066192,2.6189607,122.00818)"
       style="fill:#461621;fill-opacity:1"><path
         id="path367-7-6"
         style="fill:#461621;fill-opacity:1;stroke-width:0.149643"
         d="m 48.009388,53.890553 a 6.5,6.5 0 0 1 -6.5,6.5 6.5,6.5 0 0 1 -6.5,-6.5 6.5,6.5 0 0 1 6.5,-6.5 6.5,6.5 0 0 1 6.5,6.5 z" /><path
         id="path367-3-5-2"
         style="fill:#461621;fill-opacity:1;stroke-width:0.149643"
         d="m 48.009388,67.982697 a 6.5,6.5 0 0 1 -6.5,6.5 6.5,6.5 0 0 1 -6.5,-6.5 6.5,6.5 0 0 1 6.5,-6.5 6.5,6.5 0 0 1 6.5,6.5 z" /><path
         id="rect448-3-9"
         style="fill:#461621;fill-opacity:1;stroke-width:0.264583"
         d="M 34.997028,52.734241 H 48.021749 V 68.45921 H 34.997028 Z" /></g><g
       inkscape:label="silkscreen"
       id="layer1-6"
       transform="matrix(0.26458333,0,0,0.26458333,-21.313645,156.61284)"><path
         inkscape:connector-curvature="0"
         id="path3015"
         style="font-style:normal;font-variant:normal;font-weight:500;font-stretch:normal;font-size:12px;line-height:125%;font-family:OCRA;-inkscape-font-specification:'OCRA Medium';text-align:start;letter-spacing:0px;word-spacing:0px;writing-mode:lr-tb;text-anchor:start;fill:#461621;fill-opacity:1;stroke:none"
         d="m 228.50553,502.44523 c 0.08,-0.016 0.16399,-0.012 0.252,0.012 0.024,0.008 0.06,0.02 0.108,0.036 0.11199,0.056 0.19599,0.14401 0.252,0.264 0.024,0.04 0.41199,1.35601 1.164,3.948 0.75999,2.59201 1.13999,3.90001 1.14,3.924 0.008,0.024 0.012,0.06 0.012,0.108 -1e-5,0.19201 -0.076,0.344 -0.228,0.456 -0.14401,0.112 -0.30801,0.144 -0.492,0.096 -0.18401,-0.048 -0.31201,-0.164 -0.384,-0.348 -0.008,-0.032 -0.088,-0.29999 -0.24,-0.804 l -0.216,-0.756 h -1.272 -1.26 l -0.228,0.768 c -0.144,0.51201 -0.224,0.78001 -0.24,0.804 -0.04,0.11201 -0.112,0.2 -0.216,0.264 -0.16,0.112 -0.332,0.132 -0.516,0.06 -0.184,-0.08 -0.3,-0.21599 -0.348,-0.408 -0.024,-0.088 -0.024,-0.17599 0,-0.264 0.008,-0.048 0.388,-1.35199 1.14,-3.912 0.75199,-2.56799 1.13199,-3.86399 1.14,-3.888 0.024,-0.064 0.068,-0.12799 0.132,-0.192 0.088,-0.088 0.18799,-0.14399 0.3,-0.168 m 0.564,4.212 c -0.30401,-1.05599 -0.45601,-1.58399 -0.456,-1.584 -1e-5,-0.008 -0.024,0.06 -0.072,0.204 -0.04,0.13601 -0.096,0.32801 -0.168,0.576 -0.072,0.24001 -0.14801,0.50401 -0.228,0.792 l -0.468,1.584 h 0.468 c 0.31199,1e-5 0.61999,1e-5 0.924,0 h 0.468 l -0.468,-1.572" /><path
         inkscape:connector-curvature="0"
         id="path3017"
         style="font-style:normal;font-variant:normal;font-weight:500;font-stretch:normal;font-size:12px;line-height:125%;font-family:OCRA;-inkscape-font-specification:'OCRA Medium';text-align:start;letter-spacing:0px;word-spacing:0px;writing-mode:lr-tb;text-anchor:start;fill:#000000;fill-opacity:1;stroke:none"
         d="m 234.35965,506.87323 v -4.44 h 1.788 l 1.788,0.012 0.108,0.012 c 0.52,0.08 0.956,0.30001 1.308,0.66 0.112,0.11201 0.212,0.23201 0.3,0.36 0.2,0.30401 0.32,0.64801 0.36,1.032 0.008,0.072 0.012,0.21601 0.012,0.432 0,0.21601 -0.004,0.36001 -0.012,0.432 -0.056,0.55201 -0.276,1.01601 -0.66,1.392 l -0.108,0.108 0.108,0.108 c 0.112,0.10401 0.212,0.22401 0.3,0.36 0.184,0.28001 0.3,0.59601 0.348,0.948 0.016,0.08 0.024,0.25201 0.024,0.516 0,0.26401 -0.008,0.43601 -0.024,0.516 -0.064,0.42401 -0.224,0.80001 -0.48,1.128 -0.104,0.13601 -0.224,0.25601 -0.36,0.36 -0.304,0.24001 -0.648,0.396 -1.032,0.468 -0.136,0.024 -0.812,0.036 -2.028,0.036 h -1.74 v -4.44 m 3.588,-3.264 -0.084,-0.024 h -1.176 -1.188 v 1.356 1.356 h 1.188 1.176 l 0.084,-0.024 c 0.224,-0.048 0.412,-0.14399 0.564,-0.288 0.16,-0.15199 0.268,-0.33599 0.324,-0.552 0.024,-0.10399 0.036,-0.28399 0.036,-0.54 0,-0.19999 -0.008,-0.32399 -0.024,-0.372 -0.072,-0.37599 -0.276,-0.64799 -0.612,-0.816 -0.088,-0.04 -0.184,-0.072 -0.288,-0.096 m 0,3.852 -0.084,-0.012 h -1.176 -1.188 v 1.356 1.356 h 1.188 1.176 l 0.084,-0.012 c 0.368,-0.08 0.636,-0.28399 0.804,-0.612 0.048,-0.096 0.08,-0.19999 0.096,-0.312 0.016,-0.048 0.024,-0.18799 0.024,-0.42 0,-0.23199 -0.008,-0.37199 -0.024,-0.42 -0.072,-0.37599 -0.276,-0.64799 -0.612,-0.816 -0.088,-0.048 -0.184,-0.084 -0.288,-0.108" /><path
         inkscape:connector-curvature="0"
         id="path3019"
         style="font-style:normal;font-variant:normal;font-weight:500;font-stretch:normal;font-size:12px;line-height:125%;font-family:OCRA;-inkscape-font-specification:'OCRA Medium';text-align:start;letter-spacing:0px;word-spacing:0px;writing-mode:lr-tb;text-anchor:start;fill:#000000;fill-opacity:1;stroke:none"
         d="m 244.05378,502.44523 c 0.048,-0.008 0.576,-0.012 1.584,-0.012 1.00799,1e-5 1.53999,0.004 1.596,0.012 0.36799,0.048 0.67599,0.20001 0.924,0.456 0.24799,0.25601 0.39199,0.56401 0.432,0.924 0.032,0.24001 -0.024,0.42801 -0.168,0.564 -0.11201,0.10401 -0.24401,0.15601 -0.396,0.156 -0.056,10e-6 -0.10801,-0.004 -0.156,-0.012 -0.10401,-0.032 -0.18801,-0.084 -0.252,-0.156 -0.096,-0.10399 -0.15201,-0.23599 -0.168,-0.396 -1e-5,-0.056 -0.008,-0.10399 -0.024,-0.144 -0.04,-0.11199 -0.12001,-0.18799 -0.24,-0.228 l -0.048,-0.024 h -1.476 -1.488 l -0.024,0.024 c -0.072,0.048 -0.092,0.10801 -0.06,0.18 0.016,0.016 0.72799,0.93201 2.136,2.748 1.41599,1.81601 2.13599,2.74001 2.16,2.772 0.11199,0.16801 0.17999,0.35201 0.204,0.552 0.04,0.32001 -0.032,0.61601 -0.216,0.888 -0.18401,0.26401 -0.43201,0.436 -0.744,0.516 -0.088,0.024 -0.19601,0.04 -0.324,0.048 -0.12001,0 -0.59601,0 -1.428,0 -1.00001,0 -1.528,-0.004 -1.584,-0.012 -0.368,-0.048 -0.676,-0.2 -0.924,-0.456 -0.248,-0.25599 -0.392,-0.56399 -0.432,-0.924 -0.024,-0.22399 0.028,-0.40399 0.156,-0.54 0.072,-0.08 0.16,-0.13199 0.264,-0.156 0.04,-0.016 0.088,-0.024 0.144,-0.024 0.152,10e-6 0.284,0.052 0.396,0.156 0.112,0.10401 0.172,0.24001 0.18,0.408 0.008,0.064 0.016,0.11201 0.024,0.144 0.048,0.11201 0.128,0.18801 0.24,0.228 l 0.048,0.024 h 1.476 1.464 l 0.036,-0.012 c 0.088,-0.04 0.11199,-0.1 0.072,-0.18 -1e-5,-0.016 -0.71201,-0.93199 -2.136,-2.748 -1.416,-1.82399 -2.136,-2.75199 -2.16,-2.784 -0.136,-0.21599 -0.204,-0.45199 -0.204,-0.708 0,-0.26399 0.072,-0.49999 0.216,-0.708 0.216,-0.32799 0.516,-0.51999 0.9,-0.576" /><path
         inkscape:connector-curvature="0"
         id="path3096"
         style="font-style:normal;font-variant:normal;font-weight:500;font-stretch:normal;font-size:28px;line-height:125%;font-family:OCRA;-inkscape-font-specification:'OCRA Medium';text-align:start;letter-spacing:0px;word-spacing:0px;writing-mode:lr-tb;text-anchor:start;fill:#000000;fill-opacity:1;stroke:none"
         d="m 182.34374,502.29445 c 0.18667,-0.0373 0.38267,-0.028 0.588,0.028 0.056,0.0187 0.14,0.0467 0.252,0.084 0.26133,0.13069 0.45733,0.33602 0.588,0.616 0.0747,0.14935 0.112,0.30802 0.112,0.476 0.0187,0.14935 0.028,0.85869 0.028,2.128 l 0.028,2.268 1.96,5.012 c 0.336,0.91468 0.65333,1.75468 0.952,2.52 0.31733,0.76534 0.55999,1.37201 0.728,1.82 0.18666,0.44801 0.27999,0.67201 0.28,0.672 -10e-6,-0.0187 0.65333,-1.69866 1.96,-5.04 l 1.96,-5.012 v -2.184 c -1e-5,-1.53065 0.028,-2.37065 0.084,-2.52 0.056,-0.16798 0.15866,-0.32665 0.308,-0.476 0.16799,-0.16798 0.33599,-0.27998 0.504,-0.336 0.35466,-0.11198 0.69999,-0.0933 1.036,0.056 0.27999,0.13069 0.48532,0.33602 0.616,0.616 0.0746,0.14935 0.11199,0.31735 0.112,0.504 0.0186,0.16802 0.028,0.95202 0.028,2.352 v 2.492 l -2.688,6.916 c -1.79201,4.592 -2.70667,6.916 -2.744,6.972 -0.056,0.13067 -0.14934,0.252 -0.28,0.364 -0.33601,0.31733 -0.72801,0.42933 -1.176,0.336 -0.42934,-0.0933 -0.74667,-0.34533 -0.952,-0.756 -0.0187,-0.0747 -0.896,-2.324 -2.632,-6.748 -1.71733,-4.42399 -2.604,-6.71065 -2.66,-6.86 l -0.084,-0.224 v -2.436 c 0,-1.69865 0.028,-2.62265 0.084,-2.772 0.056,-0.16798 0.15867,-0.32665 0.308,-0.476 0.20533,-0.20531 0.43867,-0.33598 0.7,-0.392" /><path
         inkscape:connector-curvature="0"
         id="path3098"
         style="font-style:normal;font-variant:normal;font-weight:500;font-stretch:normal;font-size:28px;line-height:125%;font-family:OCRA;-inkscape-font-specification:'OCRA Medium';text-align:start;letter-spacing:0px;word-spacing:0px;writing-mode:lr-tb;text-anchor:start;fill:#000000;fill-opacity:1;stroke:none"
         d="m 205.54326,502.29445 c 0.14932,-0.0186 0.95199,-0.028 2.408,-0.028 1.45598,2e-5 2.22132,0.009 2.296,0.028 0.31732,0.056 0.57865,0.21469 0.784,0.476 0.20532,0.24269 0.30798,0.52269 0.308,0.84 -2e-5,0.26135 -0.0747,0.51335 -0.224,0.756 -0.14935,0.22402 -0.34535,0.38269 -0.588,0.476 -0.13068,0.056 -0.28002,0.0933 -0.448,0.112 -0.14935,2e-5 -0.83068,2e-5 -2.044,0 -1.25068,2e-5 -1.96001,0.009 -2.128,0.028 -0.14935,2e-5 -0.29868,0.0374 -0.448,0.112 -0.14935,0.0747 -0.30801,0.21468 -0.476,0.42 -0.16801,0.18668 -0.75601,0.93335 -1.764,2.24 -1.23201,1.58668 -1.87601,2.41735 -1.932,2.492 -0.18667,0.28001 -0.32667,0.61601 -0.42,1.008 l -0.028,0.168 v 3.892 c -1e-5,2.57601 0.009,3.90134 0.028,3.976 0.11199,0.41067 0.35466,0.7 0.728,0.868 0.13066,0.0747 0.28932,0.12134 0.476,0.14 0.20532,0 1.09199,0 2.66,0 1.58665,0 2.47332,0 2.66,0 0.20532,-0.0187 0.38265,-0.0653 0.532,-0.14 0.27999,-0.13066 0.48532,-0.336 0.616,-0.616 0.0746,-0.14933 0.11198,-0.28 0.112,-0.392 0.0186,-0.13066 0.028,-0.60666 0.028,-1.428 v -1.512 h -1.372 c -0.97068,10e-6 -1.54001,-0.028 -1.708,-0.084 -0.16801,-0.056 -0.32668,-0.15866 -0.476,-0.308 -0.14934,-0.14933 -0.25201,-0.31733 -0.308,-0.504 -0.11201,-0.27999 -0.12134,-0.56932 -0.028,-0.868 0.0747,-0.18666 0.18666,-0.35466 0.336,-0.504 0.14932,-0.14932 0.30799,-0.25199 0.476,-0.308 0.16799,-0.056 1.18532,-0.084 3.052,-0.084 h 2.716 v 2.828 c -2e-5,1.86667 -0.009,2.89334 -0.028,3.08 -0.056,0.448 -0.18668,0.87734 -0.392,1.288 -0.29868,0.59734 -0.72802,1.092 -1.288,1.484 -0.54135,0.392 -1.14802,0.63467 -1.82,0.728 -0.18668,0.0187 -1.21335,0.028 -3.08,0.028 -2.01601,0 -3.16401,-0.028 -3.444,-0.084 -0.44801,-0.112 -0.86801,-0.28 -1.26,-0.504 -1.10134,-0.69067 -1.72667,-1.68933 -1.876,-2.996 -0.0373,-0.168 -0.056,-1.52133 -0.056,-4.06 0.0187,-2.53866 0.0373,-3.90132 0.056,-4.088 0.0747,-0.91465 0.36399,-1.73599 0.868,-2.464 0.0933,-0.13065 0.76533,-1.00798 2.016,-2.632 1.26932,-1.64265 1.96932,-2.51998 2.1,-2.632 0.65332,-0.69065 1.44666,-1.10131 2.38,-1.232" /><path
         inkscape:connector-curvature="0"
         id="path3100"
         style="font-style:normal;font-variant:normal;font-weight:500;font-stretch:normal;font-size:28px;line-height:125%;font-family:OCRA;-inkscape-font-specification:'OCRA Medium';text-align:start;letter-spacing:0px;word-spacing:0px;writing-mode:lr-tb;text-anchor:start;fill:#000000;fill-opacity:1;stroke:none"
         d="m 219.25888,502.29445 c 0.18667,-0.0373 0.38267,-0.028 0.588,0.028 0.18666,0.0374 0.35466,0.12135 0.504,0.252 0.20533,0.18669 0.35466,0.42002 0.448,0.7 0.0187,0.0747 0.028,2.93068 0.028,8.568 v 8.456 h 4.676 c 3.09866,0 4.68532,0.009 4.76,0.028 0.31732,0.056 0.57865,0.21467 0.784,0.476 0.20532,0.24267 0.30799,0.52267 0.308,0.84 -1e-5,0.31733 -0.10268,0.60667 -0.308,0.868 -0.20535,0.24267 -0.46668,0.392 -0.784,0.448 -0.0747,0.0187 -2.10934,0.028 -6.104,0.028 h -5.992 v -9.744 c 0,-5.28265 0,-8.25065 0,-8.904 0,-0.67198 0.028,-1.07331 0.084,-1.204 0.056,-0.14931 0.15867,-0.29865 0.308,-0.448 0.20533,-0.20531 0.43867,-0.33598 0.7,-0.392" /><path
         style="fill:#461621;fill-opacity:1;stroke-width:0.126269"
         d="M 7.0353077,20.889866 C 6.8805625,20.781478 6.6762683,20.539988 6.5813208,20.353223 6.4863732,20.166455 5.2366339,16.998144 3.8041225,13.312529 L 1.1995561,6.6114098 V 4.0282805 c 0,-2.832774 0.028705,-2.9568669 0.7730111,-3.34176256 0.5162584,-0.26696757 1.1767989,-0.0505322 1.5091326,0.49448856 0.2152359,0.3529825 0.2423464,0.6522681 0.2427657,2.6799975 4.546e-4,2.1720462 0.01651,2.3219315 0.3314818,3.0935922 0.1820555,0.4460232 0.9517906,2.4259802 1.7105226,4.3999038 1.6823645,4.376854 1.8832054,4.849098 2.0073806,4.720025 0.053699,-0.05582 0.9545259,-2.305074 2.0018368,-4.998346 l 1.9042017,-4.8968574 0.0071,-2.1742101 c 0.0083,-2.5340137 0.101111,-2.9290413 0.769101,-3.27371125 0.544975,-0.28119704 0.972136,-0.21128921 1.415,0.23157463 0.297914,0.29791392 0.309039,0.37910502 0.391887,2.86011542 l 0.08527,2.5534976 -0.839481,2.1465741 c -0.461715,1.1806158 -1.691333,4.334186 -2.732484,7.007933 -2.0471021,5.257101 -2.210983,5.555839 -3.0477903,5.555839 -0.2265198,0 -0.5384637,-0.08868 -0.693209,-0.197068 z"
         id="path21921"
         transform="translate(180.13563,501.78988)" /><path
         style="fill:#461621;fill-opacity:1;stroke-width:0.126269"
         d="m 20.549248,20.818604 c -0.909027,-0.349359 -1.815661,-1.253919 -2.140443,-2.135547 -0.315216,-0.85566 -0.43655,-3.867786 -0.30499,-7.571379 0.110257,-3.1038843 0.08711,-3.0495755 2.800001,-6.5702795 3.135092,-4.06862826 2.971969,-3.9731877 6.790808,-3.9731877 h 2.693349 l 0.368675,0.41236656 c 0.423339,0.47350614 0.486558,1.06777494 0.162771,1.53004654 -0.38551,0.550394 -0.876064,0.6461028 -3.311584,0.6461028 -1.97012,0 -2.297164,0.028591 -2.52765,0.2209708 -0.559559,0.4670481 -4.154379,5.2476448 -4.292381,5.7082536 -0.09342,0.311822 -0.142812,1.8842149 -0.142812,4.5468179 v 4.070154 l 0.435527,0.435526 0.435526,0.435528 3.173702,-0.03778 3.173702,-0.03778 0.368247,-0.412367 c 0.366361,-0.410253 0.368248,-0.420687 0.368248,-2.036629 V 14.42516 l -1.594321,-0.05308 -1.59432,-0.05308 -0.36285,-0.406101 c -0.49772,-0.557044 -0.495424,-1.172851 0.0062,-1.674518 l 0.369094,-0.369095 h 2.850767 2.850767 v 3.007964 c 0,3.659942 -0.05295,3.883365 -1.189629,5.020048 -1.155121,1.155121 -1.317858,1.190991 -5.367289,1.18305 -3.054123,-0.006 -3.414784,-0.02948 -4.019159,-0.26175 z"
         id="path21923"
         transform="translate(180.13563,501.78988)" /><path
         style="fill:#461621;fill-opacity:1;stroke-width:0.126269"
         d="m 38.070124,11.423295 c 0,-10.69696107 -0.02287,-10.3844664 0.784669,-10.72187781 0.556982,-0.23272192 1.046293,-0.1183519 1.426424,0.33340811 l 0.314288,0.3735105 v 8.5766085 8.5766087 h 4.741361 c 5.281888,0 5.344886,0.0092 5.687924,0.830199 0.231235,0.553426 0.12229,0.981441 -0.351229,1.379882 l -0.374714,0.3153 h -6.114361 -6.114362 z"
         id="path21925"
         transform="translate(180.13563,501.78988)" /><path
         style="fill:#461621;fill-opacity:1;stroke-width:0.126269"
         d="m 55.90563,4.4528737 c 0.329877,-0.026011 0.869678,-0.026011 1.199556,0 0.329878,0.026011 0.05998,0.047293 -0.599778,0.047293 -0.659756,0 -0.929656,-0.021282 -0.599778,-0.047293 z"
         id="path21927"
         transform="translate(180.13563,501.78988)" /><path
         style="fill:#461621;fill-opacity:1;stroke-width:0.126269"
         d="M 54.232564,5.1138972 V 0.7576144 h 1.977644 c 1.860137,0 2.008395,0.0180209 2.495172,0.3032911 0.729046,0.4272496 1.083023,1.1102661 1.083023,2.0897471 0,0.8098705 -0.109922,1.1404721 -0.534264,1.6068492 L 59.00397,5.0324515 59.36462,5.505287 c 0.328555,0.430758 0.360649,0.5644784 0.360649,1.5026462 0,0.9404781 -0.03159,1.0712256 -0.364149,1.5072346 -0.611293,0.8014461 -1.117526,0.94904 -3.266087,0.9522391 l -1.862469,0.00277 z m 4.241223,2.9287146 c 0.234115,-0.2724212 0.304464,-0.5004503 0.304464,-0.9868864 0,-1.2274133 -0.411751,-1.4998864 -2.266573,-1.4998864 h -1.268961 v 1.4629601 1.4629601 l 1.463303,-0.042433 c 1.423633,-0.041283 1.471557,-0.052038 1.767767,-0.3967144 z m -0.06463,-3.8660196 c 0.312459,-0.3124591 0.369094,-0.4689507 0.369094,-1.0198655 0,-0.5509149 -0.05663,-0.7074064 -0.369094,-1.0198656 C 58.045638,1.7733429 58.018932,1.7677669 56.64139,1.7677669 h -1.398673 v 1.3889598 1.3889597 h 1.398673 c 1.377542,0 1.404248,-0.00558 1.767767,-0.3690942 z"
         id="path21929"
         transform="translate(180.13563,501.78988)" /><path
         style="fill:#461621;fill-opacity:1;stroke-width:0.126269"
         d="M 63.568065,9.1840667 C 63.326124,9.0210225 63.065015,8.6917374 62.961035,8.4185388 62.790444,7.9703265 62.795632,7.9220609 63.040738,7.676955 63.37757,7.3401228 63.645402,7.4470154 63.881715,8.0125917 l 0.18695,0.4474358 h 1.647941 c 1.286512,0 1.647941,-0.036809 1.647941,-0.1678305 0,-0.092307 -0.971389,-1.413397 -2.158643,-2.9357558 -1.187254,-1.522359 -2.210126,-2.899716 -2.273049,-3.0607935 -0.15515,-0.3971668 -0.02719,-0.8327845 0.357672,-1.2176479 0.315335,-0.31533503 0.351119,-0.3203854 2.27005,-0.3203854 h 1.949665 l 0.362628,0.3626277 c 0.641362,0.641362 0.639534,1.4682738 -0.0032,1.4682738 -0.280213,0 -0.4147,-0.1453023 -0.555138,-0.5997781 -0.06044,-0.1955834 -0.256474,-0.2209709 -1.706291,-0.2209709 -0.900905,0 -1.668976,0.050106 -1.706825,0.1113471 -0.03785,0.061241 0.593984,0.9561728 1.404073,1.9887377 2.894968,3.6900182 3.069457,3.938953 3.066449,4.374759 -0.0031,0.4424417 -0.280757,0.8644795 -0.714938,1.0865217 -0.162636,0.083173 -0.970995,0.1410476 -1.970065,0.1410476 -1.55144,0 -1.730049,-0.024118 -2.118824,-0.2861133 z"
         id="path21931"
         transform="translate(180.13563,501.78988)" /></g></g></svg>
