<?xml version="1.0" encoding="UTF-8" standalone="no"?>
<!-- Created with Inkscape (http://www.inkscape.org/) -->

<svg
   width="10mm"
   height="5.0000005mm"
   viewBox="0 0 10 5.0000007"
   version="1.1"
   id="svg1995"
   inkscape:version="1.2.2 (b0a8486541, 2022-12-01)"
   sodipodi:docname="MuteButtonGrey.svg"
   xmlns:inkscape="http://www.inkscape.org/namespaces/inkscape"
   xmlns:sodipodi="http://sodipodi.sourceforge.net/DTD/sodipodi-0.dtd"
   xmlns="http://www.w3.org/2000/svg"
   xmlns:svg="http://www.w3.org/2000/svg">
  <sodipodi:namedview
     id="namedview1997"
     pagecolor="#ffffff"
     bordercolor="#000000"
     borderopacity="0.25"
     inkscape:showpageshadow="2"
     inkscape:pageopacity="0.0"
     inkscape:pagecheckerboard="0"
     inkscape:deskcolor="#d1d1d1"
     inkscape:document-units="mm"
     showgrid="false"
     inkscape:zoom="24.829854"
     inkscape:cx="10.008114"
     inkscape:cy="15.002102"
     inkscape:window-width="1920"
     inkscape:window-height="1018"
     inkscape:window-x="0"
     inkscape:window-y="0"
     inkscape:window-maximized="1"
     inkscape:current-layer="layer1" />
  <defs
     id="defs1992" />
  <g
     inkscape:label="Layer 1"
     inkscape:groupmode="layer"
     id="layer1"
     transform="translate(-71.543407,-152.23635)">
    <path
       id="surround--strokedark"
       style="fill:#999991;fill-opacity:1;stroke:#461621;stroke-width:0.279581;stroke-linecap:butt;stroke-linejoin:bevel;stroke-dasharray:none;stroke-opacity:1"
       d="m 73.844403,152.37703 v 0 c -1.217779,0.0903 -2.160356,1.12627 -2.161206,2.35976 8.64e-4,1.23348 0.943437,2.25747 2.161206,2.34787 v 0 l 5.64162,0.0119 v 0 c 1.109681,-0.20248 1.916999,-1.22099 1.917593,-2.3601 -1.77e-4,-1.13945 -0.807592,-2.15778 -1.917593,-2.36032 v 0 z"
       sodipodi:nodetypes="ccccccccccc" />
    <path
       id="rect448-3"
       style="fill:#808080;fill-opacity:1;stroke:none;stroke-width:0.244883;stroke-linecap:butt;stroke-linejoin:bevel;stroke-dasharray:none;stroke-opacity:1"
       d="m 74.060943,152.92563 v 0 c -1.120075,0.0753 -1.987032,0.93941 -1.987812,1.96826 7.95e-4,1.02882 0.867747,1.88293 1.987812,1.9583 v 0 l 5.188995,0.0119 v 0 c 1.020653,-0.16888 1.763199,-1.01842 1.763744,-1.96851 -1.62e-4,-0.95042 -0.742798,-1.79982 -1.763744,-1.96876 v 0 z"
       sodipodi:nodetypes="ccccccccccc" />
    <g
       aria-label="M"
       id="text4930"
       style="font-size:3.3514px;font-family:OCRA;-inkscape-font-specification:'OCRA, Normal';text-align:center;text-anchor:middle;fill:#461621;fill-opacity:1;stroke-width:0.2;stroke-linecap:round;stroke-linejoin:bevel"
       transform="translate(1.28e-4,4.8083355)">
      <path
         d="m 75.752478,149.85438 v -1.16629 h 0.197733 0.201084 l 0.02346,0.0302 q 0.0067,0.0134 0.06033,0.0938 0.05697,0.0771 0.124002,0.17428 0.16757,0.23459 0.174273,0.248 l 0.01005,0.01 0.194382,-0.27816 0.194381,-0.27817 h 0.201084 0.201084 v 1.17299 l -0.0034,1.1864 q -0.02346,0.0737 -0.08714,0.10389 -0.02011,0.0101 -0.04022,0.0134 -0.02011,0.003 -0.04357,0.003 -0.02011,-0.003 -0.04022,-0.0101 -0.03016,-0.0101 -0.05362,-0.0335 -0.02011,-0.0168 -0.03016,-0.0335 -0.01005,-0.0201 -0.02011,-0.0469 -0.0034,-0.0101 -0.0034,-0.96186 v -0.94844 l -0.154164,0.22119 -0.157516,0.22119 v 0.0469 q 0,0.0804 -0.02011,0.1173 -0.02011,0.0302 -0.05362,0.0536 -0.04692,0.0302 -0.103893,0.0235 -0.03686,-0.003 -0.06368,-0.0201 -0.02011,-0.0134 -0.04022,-0.0335 -0.02011,-0.0235 -0.02681,-0.0436 -0.0067,-0.0201 -0.01005,-0.0335 0,-0.0134 0,-0.057 l -0.0034,-0.057 -0.154165,-0.21784 -0.150813,-0.21784 -0.0034,0.94845 q 0,0.95179 -0.0034,0.96185 -0.02011,0.0737 -0.08379,0.10389 -0.06368,0.0302 -0.127353,0.007 -0.01005,-0.003 -0.02011,-0.007 -0.01005,-0.007 -0.02011,-0.0134 -0.0067,-0.007 -0.01676,-0.0168 -0.02681,-0.0302 -0.03687,-0.057 -0.01005,-0.0235 -0.01005,-0.14075 0,-0.12065 0,-1.0691 z"
         id="m--filldark"
         style="fill:#461621;fill-opacity:1" />
    </g>
  </g>
</svg>
