<?xml version="1.0" encoding="UTF-8" standalone="no"?>
<!-- Created with Inkscape (http://www.inkscape.org/) -->

<svg
   width="20.620001mm"
   height="128.5mm"
   viewBox="0 0 20.620002 128.50002"
   version="1.1"
   id="svg8"
   inkscape:version="1.2.2 (b0a8486541, 2022-12-01)"
   sodipodi:docname="Outs8_4hp_Plus.svg"
   xml:space="preserve"
   xmlns:inkscape="http://www.inkscape.org/namespaces/inkscape"
   xmlns:sodipodi="http://sodipodi.sourceforge.net/DTD/sodipodi-0.dtd"
   xmlns:xlink="http://www.w3.org/1999/xlink"
   xmlns="http://www.w3.org/2000/svg"
   xmlns:svg="http://www.w3.org/2000/svg"
   xmlns:rdf="http://www.w3.org/1999/02/22-rdf-syntax-ns#"
   xmlns:cc="http://creativecommons.org/ns#"
   xmlns:dc="http://purl.org/dc/elements/1.1/"><defs
     id="defs2"><linearGradient
       inkscape:collect="always"
       id="linearGradient840"><stop
         style="stop-color:#16502d;stop-opacity:1;"
         offset="0"
         id="stop836" /><stop
         style="stop-color:#163650;stop-opacity:1;"
         offset="1"
         id="stop838" /></linearGradient><linearGradient
       inkscape:collect="always"
       xlink:href="#linearGradient840"
       id="linearGradient842"
       x1="29.399649"
       y1="297.12344"
       x2="29.337139"
       y2="168.29951"
       gradientUnits="userSpaceOnUse"
       gradientTransform="matrix(0.67650915,0,0,1,15.24,0)" /><inkscape:path-effect
       effect="fillet_chamfer"
       id="path-effect565-7-3"
       is_visible="true"
       lpeversion="1"
       nodesatellites_param="F,0,0,1,0,2,0,1 @ F,0,0,1,0,5.5,0,1 @ F,0,0,1,0,2,0,1 @ F,0,0,1,0,5.5,0,1"
       unit="px"
       method="auto"
       mode="F"
       radius="0"
       chamfer_steps="1"
       flexible="false"
       use_knot_distance="true"
       apply_no_radius="true"
       apply_with_radius="true"
       only_selected="false"
       hide_knots="false" /></defs><sodipodi:namedview
     id="base"
     pagecolor="#ffffff"
     bordercolor="#666666"
     borderopacity="1.0"
     inkscape:pageopacity="0.0"
     inkscape:pageshadow="2"
     inkscape:zoom="5.6"
     inkscape:cx="13.571428"
     inkscape:cy="41.339285"
     inkscape:document-units="mm"
     inkscape:current-layer="svg8"
     showgrid="true"
     units="mm"
     inkscape:snap-bbox="true"
     inkscape:snap-page="true"
     inkscape:bbox-nodes="false"
     inkscape:snap-bbox-edge-midpoints="false"
     inkscape:window-width="1920"
     inkscape:window-height="1018"
     inkscape:window-x="0"
     inkscape:window-y="0"
     inkscape:window-maximized="1"
     inkscape:snap-bbox-midpoints="true"
     inkscape:snap-nodes="false"
     inkscape:showpageshadow="2"
     inkscape:pagecheckerboard="0"
     inkscape:deskcolor="#d1d1d1"><inkscape:grid
       type="xygrid"
       id="grid409"
       originx="6.4306647e-07"
       originy="1.0351565e-06" /></sodipodi:namedview><metadata
     id="metadata5"><rdf:RDF><cc:Work
         rdf:about=""><dc:format>image/svg+xml</dc:format><dc:type
           rdf:resource="http://purl.org/dc/dcmitype/StillImage" /></cc:Work></rdf:RDF></metadata><rect
     style="display:inline;opacity:1;vector-effect:none;fill:url(#linearGradient842);fill-opacity:1;fill-rule:evenodd;stroke:none;stroke-width:0.534098;stroke-linecap:butt;stroke-linejoin:miter;stroke-miterlimit:4;stroke-dasharray:none;stroke-dashoffset:0;stroke-opacity:1;paint-order:normal;image-rendering:auto"
     id="panel"
     width="20.620001"
     height="128.5"
     x="15.240002"
     y="168.49997"
     inkscape:label="panel"
     transform="translate(-15.240002,-168.49997)" /><path
     id="vglabs--logodark"
     style="font-style:normal;font-variant:normal;font-weight:500;font-stretch:normal;font-size:12px;line-height:125%;font-family:OCRA;-inkscape-font-specification:'OCRA Medium';text-align:start;letter-spacing:0px;word-spacing:0px;writing-mode:lr-tb;text-anchor:start;fill:#461621;fill-opacity:1;stroke:none;stroke-width:0.169143;stroke-dasharray:none"
     d="m 8.832559,123.00039 c -0.245884,0 -0.381143,0.002 -0.406359,0.005 -0.157618,0.0221 -0.291741,0.0915 -0.40207,0.20813 -0.02207,0.0189 -0.140219,0.16688 -0.354575,0.44429 -0.211209,0.27426 -0.324637,0.42256 -0.340393,0.44462 -0.08512,0.12294 -0.134163,0.26146 -0.146778,0.41592 -0.0032,0.0315 -0.0064,0.26163 -0.0096,0.69035 0,0.42873 0.0033,0.65736 0.0096,0.68574 0.02522,0.22066 0.130983,0.38933 0.316973,0.50597 0.0662,0.0378 0.137088,0.0662 0.212746,0.0851 0.04728,0.009 0.241046,0.0142 0.581503,0.0142 0.315234,0 0.488628,-10e-4 0.520154,-0.005 0.113482,-0.0158 0.215986,-0.0568 0.307408,-0.12303 0.09457,-0.0662 0.166922,-0.1498 0.217363,-0.25068 0.03467,-0.0694 0.05684,-0.1417 0.0663,-0.21736 0.0032,-0.0315 0.0046,-0.20492 0.0046,-0.52015 v -0.47761 H 8.950954 c -0.315239,0 -0.487167,0.005 -0.515536,0.0142 -0.02837,0.009 -0.05526,0.0269 -0.08048,0.0521 -0.02522,0.0252 -0.04412,0.0536 -0.05673,0.0851 -0.01576,0.0504 -0.01397,0.0992 0.005,0.14645 0.0095,0.0315 0.02656,0.0599 0.05178,0.0851 0.02223,0.0222 0.0459,0.0382 0.07058,0.0482 l 9.89e-4,9.9e-4 h 0.002 c 0.0023,9e-4 0.0046,0.002 0.0069,0.003 0.02837,0.009 0.124683,0.0142 0.288609,0.0142 h 0.221319 l 0.01023,3.3e-4 v 0.25496 c 0,0.13871 -0.0015,0.21905 -0.0046,0.24112 -3e-6,0.0189 -0.0065,0.0411 -0.01913,0.0663 -0.02207,0.0473 -0.05662,0.0818 -0.103899,0.1039 -0.02446,0.0122 -0.0534,0.0201 -0.08675,0.0234 l -0.04156,3.3e-4 H 8.289023 7.839786 c -0.03153,-0.003 -0.05841,-0.0111 -0.08048,-0.0237 -0.06305,-0.0284 -0.104117,-0.0771 -0.12303,-0.14645 -0.0032,-0.0126 -0.0046,-0.23652 -0.0046,-0.67154 v -0.58909 c 0.0018,-0.0376 0.0033,-0.076 0.0056,-0.1006 0.01147,-0.0469 0.02702,-0.089 0.04651,-0.12633 0.01381,-0.0214 0.03331,-0.0495 0.0531,-0.0782 0.02501,-0.0326 0.107711,-0.13902 0.296855,-0.38261 0.170224,-0.22067 0.26947,-0.3468 0.297843,-0.37833 0.02837,-0.0347 0.05526,-0.0583 0.08048,-0.0709 0.02522,-0.0126 0.05031,-0.0188 0.07553,-0.0188 0.02837,-0.003 0.147981,-0.005 0.359192,-0.005 0.204901,0 0.320117,0 0.345339,0 0.02837,-0.003 0.05347,-0.01 0.07553,-0.0191 0.04098,-0.0158 0.07406,-0.0423 0.09928,-0.0802 0.02521,-0.041 0.03793,-0.0835 0.03793,-0.12765 -3e-6,-0.0536 -0.01744,-0.10117 -0.05211,-0.14216 -0.02258,-0.0287 -0.04955,-0.0493 -0.08015,-0.0633 l -0.0056,-0.006 h -0.0076 c -0.01242,-0.005 -0.02527,-0.008 -0.03892,-0.0106 C 9.207875,123.002 9.078477,123 8.832596,123 Z m -4.2760094,0.001 c -0.01655,-7.9e-4 -0.032723,4.8e-4 -0.048486,0.004 -0.044132,0.009 -0.083406,0.0313 -0.1180819,0.066 -0.025218,0.0252 -0.042657,0.0521 -0.052114,0.0805 -0.00946,0.0252 -0.014182,0.18118 -0.014182,0.46804 v 0.41163 l 0.014182,0.0376 c 0.00946,0.0252 0.1592219,0.41161 0.4492389,1.15871 0.2931682,0.74711 0.4414622,1.12698 0.4446202,1.13959 0.034675,0.0694 0.088125,0.11189 0.1606304,0.12765 0.075655,0.0158 0.1418175,-0.003 0.1985618,-0.0567 0.022065,-0.0189 0.03804,-0.0396 0.047497,-0.0617 0.0063,-0.009 0.1607925,-0.40171 0.4634212,-1.17719 l 0.4538558,-1.16796 v -0.028 l 0.0026,-0.007 -0.0026,-0.0785 v -0.30774 c 0,-0.23642 -0.0015,-0.36875 -0.0046,-0.39712 -1e-6,-0.0315 -0.0065,-0.0602 -0.01913,-0.0854 -0.022069,-0.0473 -0.056616,-0.0818 -0.1038995,-0.1039 -0.056744,-0.0252 -0.1152499,-0.0285 -0.1751437,-0.01 -0.028373,0.009 -0.056727,0.0284 -0.085097,0.0567 -0.02522,0.0252 -0.042327,0.0521 -0.051784,0.0805 -0.00946,0.0252 -0.014186,0.167 -0.014184,0.42549 v 0.36909 l -0.3311554,0.84636 c -0.2190245,0.56007 -0.3265601,0.83743 -0.3281881,0.84471 -0.00187,1.5e-4 -0.00393,-8.5e-4 -0.00627,-0.003 -0.00227,-0.005 -0.01481,-0.0348 -0.043869,-0.10456 -0.028373,-0.0756 -0.06944,-0.17816 -0.1230283,-0.3074 -0.050438,-0.12925 -0.1038896,-0.27102 -0.1606322,-0.42549 l -0.330826,-0.84637 -0.00495,-0.38294 c 0,-0.21435 -0.00146,-0.3343 -0.00462,-0.35952 0,-0.0284 -0.00652,-0.0553 -0.01913,-0.0805 -0.022067,-0.0473 -0.055148,-0.0818 -0.099281,-0.1039 -0.018914,-0.006 -0.033093,-0.011 -0.04255,-0.0142 -0.017337,-0.005 -0.034245,-0.007 -0.050795,-0.008 z m 6.2342554,0 c -0.01655,-7.9e-4 -0.03272,4.8e-4 -0.04849,0.004 -0.04413,0.009 -0.08341,0.0313 -0.118082,0.066 -0.02522,0.0252 -0.04266,0.0507 -0.05211,0.0759 -0.0095,0.0221 -0.01418,0.0897 -0.01418,0.20318 v 1.50373 1.64556 h 1.011941 c 0.674605,0 1.018127,-10e-4 1.030741,-0.005 0.05359,-0.009 0.09759,-0.0349 0.132266,-0.0759 0.03467,-0.0441 0.05211,-0.0929 0.05211,-0.14645 -2e-6,-0.0536 -0.01744,-0.10085 -0.05211,-0.14183 -0.03468,-0.0441 -0.07868,-0.071 -0.132266,-0.0805 -0.01261,-0.003 -0.280521,-0.005 -0.803813,-0.005 h -0.78963 v -1.4282 c 0,-0.95201 -0.0018,-1.43405 -0.0049,-1.44666 -0.01576,-0.0473 -0.04086,-0.0869 -0.07553,-0.11841 -0.02522,-0.0221 -0.05358,-0.0362 -0.0851,-0.0426 -0.01734,-0.005 -0.03425,-0.007 -0.05079,-0.008 z m 2.501815,0.027 v 0.74972 0.74972 h 0.293554 c 0.205355,0 0.319735,-0.002 0.342702,-0.006 0.06485,-0.0122 0.122815,-0.0386 0.174154,-0.0792 0.02297,-0.0176 0.04313,-0.0377 0.06069,-0.0607 0.04323,-0.0554 0.07033,-0.11904 0.08114,-0.19064 0.0027,-0.0135 0.004,-0.0425 0.004,-0.0871 0,-0.0446 -0.0013,-0.0736 -0.004,-0.0871 -0.0081,-0.0594 -0.02764,-0.11268 -0.05871,-0.15997 -0.01486,-0.023 -0.03188,-0.0435 -0.05079,-0.061 l -0.01814,-0.0181 0.01814,-0.0181 c 0.06485,-0.0635 0.102026,-0.14195 0.111484,-0.23518 0.0014,-0.0122 0.002,-0.0364 0.002,-0.0729 0,-0.0365 -6.28e-4,-0.0607 -0.002,-0.0729 -0.0068,-0.0649 -0.02691,-0.12315 -0.06069,-0.17449 -0.01486,-0.0216 -0.03188,-0.0418 -0.05079,-0.0607 -0.05945,-0.0608 -0.132847,-0.098 -0.220661,-0.11148 l -0.01847,-0.002 -0.301801,-0.002 z m 1.904481,0 c -0.170228,0 -0.259393,6.3e-4 -0.267499,0.002 -0.06485,0.009 -0.115578,0.0419 -0.152055,0.0973 -0.02432,0.0351 -0.03628,0.0748 -0.03628,0.1194 0,0.0432 0.01133,0.0833 0.0343,0.11973 0.0041,0.005 0.125671,0.16199 0.3648,0.47002 0.240479,0.30668 0.360841,0.46138 0.360843,0.46408 0.0068,0.0135 0.0027,0.0236 -0.0122,0.0303 l -0.0063,0.002 h -0.247048 -0.249357 l -0.0082,-0.004 c -0.01891,-0.007 -0.03246,-0.0194 -0.04057,-0.0383 -0.0014,-0.005 -0.0026,-0.0136 -0.004,-0.0244 -0.0014,-0.0284 -0.01143,-0.0514 -0.03035,-0.0689 -0.01891,-0.0176 -0.04129,-0.0264 -0.06696,-0.0264 -0.0095,0 -0.01732,10e-4 -0.02408,0.004 -0.01756,0.004 -0.0327,0.0129 -0.04486,0.0264 -0.02162,0.023 -0.03011,0.0535 -0.02606,0.0914 0.0068,0.0608 0.03101,0.11279 0.07289,0.15602 0.04188,0.0432 0.09387,0.0687 0.156014,0.0768 0.0095,0.001 0.09862,0.002 0.267497,0.002 h 0.24111 c 0.02162,-10e-4 0.03989,-0.004 0.05475,-0.008 0.05269,-0.0135 0.09459,-0.0425 0.125667,-0.0871 0.03107,-0.0459 0.04304,-0.096 0.03628,-0.15008 -0.0041,-0.0338 -0.01539,-0.065 -0.0343,-0.0933 -0.0041,-0.005 -0.125673,-0.16136 -0.364799,-0.46804 -0.23778,-0.30668 -0.35814,-0.46138 -0.360842,-0.46408 -0.0043,-0.01 -0.0029,-0.018 0.004,-0.0251 0.01641,-0.004 0.0495,-0.007 0.09203,-0.009 h 0.169536 0.227917 c 0.01109,9.8e-4 0.02077,0.002 0.0287,0.004 l 6.6e-4,3.3e-4 c 0.02026,0.007 0.03381,0.0197 0.04057,0.0386 0.0027,0.007 0.0043,0.0146 0.0043,0.0241 0.0027,0.027 0.01215,0.0494 0.02836,0.067 0.01081,0.0122 0.02499,0.021 0.04255,0.0264 0.0081,10e-4 0.01693,0.002 0.02639,0.002 0.02567,1e-5 0.04771,-0.009 0.06663,-0.0264 0.02432,-0.023 0.03377,-0.0545 0.02837,-0.095 -0.0068,-0.0608 -0.03102,-0.11311 -0.07289,-0.15634 -0.02463,-0.0254 -0.0528,-0.0444 -0.08444,-0.0577 l -0.002,-0.002 h -0.0023 c -0.02093,-0.008 -0.04336,-0.014 -0.06729,-0.0172 -0.0095,-0.001 -0.09925,-0.002 -0.269476,-0.002 z m -2.872553,3.3e-4 c -0.0071,-3.4e-4 -0.01403,3e-4 -0.02078,0.002 -0.01892,0.004 -0.0356,0.0135 -0.05046,0.0284 -0.01081,0.0108 -0.01838,0.0215 -0.02243,0.0323 -0.0013,0.004 -0.06563,0.22303 -0.192624,0.6567 -0.126995,0.43233 -0.190946,0.65256 -0.192297,0.66067 -0.004,0.0149 -0.004,0.0297 0,0.0445 0.0081,0.0324 0.02764,0.0554 0.05871,0.0689 0.03107,0.0122 0.06006,0.009 0.08708,-0.0102 0.01756,-0.0108 0.02986,-0.0256 0.03661,-0.0445 0.0027,-0.004 0.01592,-0.0494 0.04024,-0.13589 l 0.03859,-0.12963 h 0.212746 0.215053 l 0.03628,0.12765 c 0.02567,0.0851 0.03922,0.13049 0.04057,0.13589 0.01216,0.0311 0.0339,0.0506 0.06498,0.0587 0.03107,0.008 0.0588,0.003 0.08312,-0.0162 0.02567,-0.0189 0.03826,-0.0448 0.03826,-0.0772 0,-0.008 -6.28e-4,-0.0141 -0.002,-0.0181 -2e-6,-0.004 -0.06395,-0.22492 -0.192295,-0.66265 -0.126997,-0.43772 -0.192531,-0.65984 -0.196584,-0.6666 -0.0095,-0.0203 -0.02364,-0.0351 -0.04255,-0.0445 l -0.01847,-0.006 c -0.0074,-0.002 -0.01468,-0.003 -0.02177,-0.004 z m 1.160366,0.19427 h 0.200541 0.198893 l 0.01418,0.004 c 0.01756,0.004 0.03363,0.009 0.04849,0.0162 0.01968,0.01 0.03648,0.0219 0.05079,0.036 4.88e-4,4.8e-4 8.24e-4,8.2e-4 0.0013,0.001 0.0021,0.002 0.0037,0.004 0.0056,0.006 0.02302,0.0254 0.03828,0.0569 0.04552,0.0947 0.0027,0.008 0.0043,0.0289 0.0043,0.0627 0,0.0432 -0.0022,0.0738 -0.0063,0.0914 -0.0095,0.0365 -0.02773,0.0674 -0.05475,0.093 -0.02567,0.0243 -0.05716,0.0407 -0.09499,0.0488 l -0.01418,0.004 h -0.198893 -0.200541 v -0.22891 z m -1.163006,0.25101 c -1e-6,0 0.02584,0.0892 0.07718,0.2675 l 0.07916,0.26552 h -0.07916 c -0.05134,0 -0.103325,0 -0.156013,0 h -0.07916 l 0.07916,-0.2675 c 0.01351,-0.0486 0.02643,-0.0931 0.03859,-0.13359 0.01216,-0.0419 0.02161,-0.0743 0.02837,-0.0973 0.0081,-0.0243 0.01187,-0.036 0.01187,-0.0346 z m 1.355961,0.19427 c -0.03672,0 -0.07373,10e-4 -0.101589,0.003 -0.05571,0.004 -0.0098,0.008 0.101589,0.008 0.111419,0 0.15697,-0.004 0.101261,-0.008 -0.02785,-0.002 -0.06454,-0.003 -0.101261,-0.003 z m -0.192955,0.20714 h 0.200541 0.198893 l 0.01418,0.002 c 0.01756,0.004 0.03363,0.01 0.04849,0.0181 0.05674,0.0284 0.09108,0.0744 0.103239,0.13787 0.0027,0.008 0.0043,0.0317 0.0043,0.0709 0,0.0392 -0.0016,0.0628 -0.0043,0.0709 -0.0027,0.0189 -0.0081,0.0366 -0.01616,0.0528 -0.02837,0.0554 -0.07342,0.0897 -0.135565,0.10324 l -0.01418,0.002 h -0.198893 -0.200541 v -0.22924 z" /><rect
     style="fill:#461621;fill-opacity:1;stroke-width:0.152199;stroke-linejoin:round"
     id="wet--outbg"
     width="18.054123"
     height="78.322922"
     x="16.373001"
     y="-285.5979"
     ry="4.7981524"
     transform="matrix(1,0,0,-1,-15.240002,-168.49997)"
     inkscape:label="wet--outbg" /><g
     aria-label="R"
     id="text7108-7-7-2-9"
     style="font-size:2.82222px;font-family:'Ubuntu Sans Mono';-inkscape-font-specification:'Ubuntu Sans Mono, Normal';text-align:center;text-anchor:middle;fill:#ffe6d5;stroke-width:0.2;stroke-linejoin:bevel"
     transform="translate(-28.521451,-157.73277)"><path
       d="m 42.408831,201.0435 v -1.92757 q 0.06209,-0.0198 0.143933,-0.0282 0.08184,-0.0113 0.166511,-0.0141 0.08749,-0.006 0.155222,-0.006 0.352777,0 0.527755,0.15522 0.174978,0.15522 0.174978,0.45438 0,0.18344 -0.104422,0.32173 -0.104422,0.13547 -0.262467,0.21449 0.06209,0.096 0.141111,0.23142 0.08185,0.13547 0.163689,0.29069 0.08467,0.1524 0.155222,0.30762 h -0.239889 q -0.06773,-0.15804 -0.143933,-0.31044 -0.07338,-0.1524 -0.149578,-0.27658 -0.0762,-0.127 -0.143933,-0.2032 -0.01975,0.003 -0.06491,0.006 -0.04516,0 -0.05927,0 h -0.237067 v 0.78457 z m 0.222955,-0.96802 h 0.191911 q 0.155222,0 0.273755,-0.0282 0.118534,-0.031 0.186267,-0.11853 0.06773,-0.0903 0.06773,-0.26529 0,-0.16934 -0.06491,-0.254 -0.06209,-0.0875 -0.163689,-0.11854 -0.1016,-0.031 -0.217311,-0.031 -0.09031,0 -0.169333,0.003 -0.0762,0 -0.104422,0.006 z"
       id="path7481-1-3-3" /></g><g
     aria-label="L "
     id="text7090-73-9-9-1"
     style="font-size:2.82222px;font-family:'Ubuntu Sans Mono';-inkscape-font-specification:'Ubuntu Sans Mono, Normal';text-align:center;text-anchor:middle;fill:#ffe6d5;stroke-width:0.2;stroke-linejoin:bevel"
     transform="translate(-36.587213,-149.53068)"><path
       d="m 42.425059,192.84155 v -1.9558 h 0.220133 v 1.76671 h 0.925688 v 0.18909 z"
       id="path7478-7-3-2" /></g><path
     style="fill:#461621;fill-opacity:1;stroke-width:0.204296;stroke-linejoin:bevel"
     id="dry--outbg"
     width="13.4"
     height="32"
     x="-31.115004"
     y="173.79198"
     inkscape:path-effect="#path-effect565-7-3"
     d="m -29.115004,173.79198 h 5.9 a 5.5,5.5 45 0 1 5.5,5.5 v 24.5 a 2,2 135 0 1 -2,2 h -5.9 a 5.5,5.5 45 0 1 -5.5,-5.5 v -24.5 a 2,2 135 0 1 2,-2 z"
     sodipodi:type="rect"
     transform="matrix(-1,0,0,1,-15.240002,-168.49997)"
     inkscape:label="dry--outbg" /><g
     id="g7961-6-8"
     transform="translate(-38.973837,-169.88604)"><g
       aria-label="L "
       id="text7090-7-2"
       style="font-size:2.82222px;font-family:'Ubuntu Sans Mono';-inkscape-font-specification:'Ubuntu Sans Mono, Normal';text-align:center;text-anchor:middle;fill:#ffe6d5;stroke-width:0.2;stroke-linejoin:bevel"
       transform="translate(0,0.37797616)"><path
         d="m 42.425059,182.52286 v -1.9558 h 0.220133 v 1.76671 h 0.925688 v 0.18909 z"
         id="path7472-8-1" /></g><g
       aria-label="L "
       id="text7090-73-9-9"
       style="font-size:2.82222px;font-family:'Ubuntu Sans Mono';-inkscape-font-specification:'Ubuntu Sans Mono, Normal';text-align:center;text-anchor:middle;fill:#ffe6d5;stroke-width:0.2;stroke-linejoin:bevel"
       transform="translate(0,0.52916667)"><path
         d="m 42.425059,192.84155 v -1.9558 h 0.220133 v 1.76671 h 0.925688 v 0.18909 z"
         id="path7478-7-3" /></g><g
       aria-label="R"
       id="text7108-4-7"
       style="font-size:2.82222px;font-family:'Ubuntu Sans Mono';-inkscape-font-specification:'Ubuntu Sans Mono, Normal';text-align:center;text-anchor:middle;fill:#ffe6d5;stroke-width:0.2;stroke-linejoin:bevel"
       transform="translate(0,0.61421126)"><path
         d="m 42.408831,184.63953 v -1.92758 q 0.06209,-0.0198 0.143933,-0.0282 0.08184,-0.0113 0.166511,-0.0141 0.08749,-0.006 0.155222,-0.006 0.352777,0 0.527755,0.15522 0.174978,0.15523 0.174978,0.45438 0,0.18345 -0.104422,0.32173 -0.104422,0.13547 -0.262467,0.21449 0.06209,0.096 0.141111,0.23143 0.08185,0.13546 0.163689,0.29068 0.08467,0.1524 0.155222,0.30763 h -0.239889 q -0.06773,-0.15805 -0.143933,-0.31045 -0.07338,-0.1524 -0.149578,-0.27658 -0.0762,-0.127 -0.143933,-0.2032 -0.01975,0.003 -0.06491,0.006 -0.04516,0 -0.05927,0 h -0.237067 v 0.78458 z m 0.222955,-0.96803 h 0.191911 q 0.155222,0 0.273755,-0.0282 0.118534,-0.031 0.186267,-0.11853 0.06773,-0.0903 0.06773,-0.26529 0,-0.16933 -0.06491,-0.254 -0.06209,-0.0875 -0.163689,-0.11853 -0.1016,-0.031 -0.217311,-0.031 -0.09031,0 -0.169333,0.003 -0.0762,0 -0.104422,0.006 z"
         id="path7475-7-7" /></g><g
       aria-label="R"
       id="text7108-7-7-2"
       style="font-size:2.82222px;font-family:'Ubuntu Sans Mono';-inkscape-font-specification:'Ubuntu Sans Mono, Normal';text-align:center;text-anchor:middle;fill:#ffe6d5;stroke-width:0.2;stroke-linejoin:bevel"
       transform="translate(0,1.0583333)"><path
         d="m 42.408831,201.0435 v -1.92757 q 0.06209,-0.0198 0.143933,-0.0282 0.08184,-0.0113 0.166511,-0.0141 0.08749,-0.006 0.155222,-0.006 0.352777,0 0.527755,0.15522 0.174978,0.15522 0.174978,0.45438 0,0.18344 -0.104422,0.32173 -0.104422,0.13547 -0.262467,0.21449 0.06209,0.096 0.141111,0.23142 0.08185,0.13547 0.163689,0.29069 0.08467,0.1524 0.155222,0.30762 h -0.239889 q -0.06773,-0.15804 -0.143933,-0.31044 -0.07338,-0.1524 -0.149578,-0.27658 -0.0762,-0.127 -0.143933,-0.2032 -0.01975,0.003 -0.06491,0.006 -0.04516,0 -0.05927,0 h -0.237067 v 0.78457 z m 0.222955,-0.96802 h 0.191911 q 0.155222,0 0.273755,-0.0282 0.118534,-0.031 0.186267,-0.11853 0.06773,-0.0903 0.06773,-0.26529 0,-0.16934 -0.06491,-0.254 -0.06209,-0.0875 -0.163689,-0.11854 -0.1016,-0.031 -0.217311,-0.031 -0.09031,0 -0.169333,0.003 -0.0762,0 -0.104422,0.006 z"
         id="path7481-1-3" /></g></g><g
     aria-label="DRY"
     id="text11035"
     style="font-size:2.82222px;font-family:'Ubuntu Sans Mono';-inkscape-font-specification:'Ubuntu Sans Mono, Normal';text-align:center;text-anchor:middle;fill:#ffe6d5;stroke-width:0.2;stroke-linejoin:bevel"
     transform="translate(-61.587105,-129.15723)"
     inkscape:label="text11035"><path
       d="m 69.718571,137.32022 q -0.09313,0 -0.191911,-0.0141 -0.09878,-0.0113 -0.197556,-0.0339 v -1.89371 q 0.09313,-0.0226 0.186267,-0.0339 0.09313,-0.0141 0.186266,-0.0141 0.254,0 0.4572,0.0988 0.2032,0.096 0.321733,0.31609 0.121356,0.21731 0.121356,0.58138 0,0.36124 -0.115712,0.58137 -0.115711,0.21731 -0.316088,0.31609 -0.200378,0.096 -0.451555,0.096 z m 0.01976,-0.19191 q 0.194733,0 0.335844,-0.0734 0.143934,-0.0762 0.220134,-0.25118 0.07902,-0.1778 0.07902,-0.47695 0,-0.29351 -0.07902,-0.46849 -0.07902,-0.1778 -0.225778,-0.25682 -0.146756,-0.079 -0.3556,-0.079 -0.04515,0 -0.08749,0.003 -0.04233,0 -0.0762,0.006 v 1.58609 q 0.04798,0.006 0.09596,0.008 0.0508,0.003 0.09313,0.003 z"
       id="path11045" /><path
       d="m 70.918013,137.30611 v -1.92758 q 0.06209,-0.0198 0.143933,-0.0282 0.08184,-0.0113 0.166511,-0.0141 0.08749,-0.006 0.155222,-0.006 0.352777,0 0.527755,0.15522 0.174978,0.15523 0.174978,0.45438 0,0.18345 -0.104422,0.32174 -0.104423,0.13546 -0.262467,0.21448 0.06209,0.096 0.141111,0.23143 0.08185,0.13546 0.163689,0.29068 0.08467,0.1524 0.155222,0.30763 h -0.239889 q -0.06773,-0.15805 -0.143933,-0.31045 -0.07338,-0.1524 -0.149578,-0.27658 -0.0762,-0.127 -0.143933,-0.2032 -0.01976,0.003 -0.06491,0.006 -0.04516,0 -0.05927,0 h -0.237066 v 0.78458 z m 0.222955,-0.96802 h 0.191911 q 0.155222,0 0.273755,-0.0282 0.118534,-0.031 0.186267,-0.11853 0.06773,-0.0903 0.06773,-0.26529 0,-0.16933 -0.06491,-0.254 -0.06209,-0.0875 -0.163689,-0.11853 -0.1016,-0.031 -0.217311,-0.031 -0.09031,0 -0.169333,0.003 -0.0762,0 -0.104422,0.006 z"
       id="path11047" /><path
       d="m 73.003632,137.30611 v -0.72531 q -0.197556,-0.31609 -0.364067,-0.62089 -0.163688,-0.3048 -0.276577,-0.6096 h 0.254 q 0.09313,0.27375 0.220133,0.51929 0.129822,0.24271 0.276577,0.51929 0.08467,-0.1524 0.155222,-0.28223 0.07056,-0.13264 0.129823,-0.254 0.06209,-0.12417 0.112888,-0.24553 0.05362,-0.12418 0.104422,-0.25682 h 0.248356 q -0.07902,0.20038 -0.180622,0.40075 -0.09878,0.19756 -0.214489,0.40358 -0.115711,0.2032 -0.245533,0.42051 v 0.73096 z"
       id="path11049" /></g><g
     aria-label="WET"
     id="text11039"
     style="font-size:2.82223px;font-family:'Ubuntu Sans Mono';-inkscape-font-specification:'Ubuntu Sans Mono, Normal';text-align:center;text-anchor:middle;fill:#ffe6d5;stroke-width:0.2;stroke-linejoin:bevel"
     transform="translate(-61.28675,-100.86785)"><path
       d="m 69.494192,142.59766 q -0.03669,-0.25118 -0.06491,-0.56727 -0.0254,-0.31891 -0.04516,-0.67451 -0.01693,-0.35561 -0.03387,-0.71403 h 0.220134 q 0.01129,0.27658 0.01976,0.55034 0.0085,0.27375 0.01693,0.55315 0.0085,0.27658 0.01693,0.56445 0.03669,-0.11571 0.07056,-0.22296 0.03669,-0.11006 0.07056,-0.22013 0.03669,-0.11007 0.07338,-0.22578 0.03951,-0.11571 0.08185,-0.24271 h 0.208845 q 0.09031,0.254 0.16369,0.47696 0.07338,0.22013 0.146756,0.43462 0.0085,-0.28787 0.01693,-0.56445 0.0085,-0.2794 0.01693,-0.55315 0.0085,-0.27376 0.01693,-0.55034 h 0.220134 q -0.01411,0.36125 -0.03951,0.71685 -0.02258,0.35278 -0.0508,0.67169 -0.02822,0.31609 -0.06491,0.56727 h -0.21449 q -0.07902,-0.25965 -0.158044,-0.50518 -0.07902,-0.24554 -0.158045,-0.49954 -0.0508,0.16934 -0.104423,0.33585 -0.0508,0.16651 -0.1016,0.33302 -0.0508,0.16369 -0.104423,0.33585 z"
       id="path11052" /><path
       d="m 71.133907,142.59766 v -1.95581 h 1.072447 v 0.18909 h -0.849491 v 0.64911 h 0.745068 v 0.18909 h -0.745068 v 0.73943 h 0.917225 v 0.18909 z"
       id="path11054" /><path
       d="m 73.081244,142.59766 v -1.76672 h -0.541868 v -0.18909 h 1.30387 v 0.18909 h -0.541868 v 1.76672 z"
       id="path11056" /></g><path
     id="polyaux8--logodark"
     d="m 6.789218,119.09041 c -0.144852,0 -0.220159,10e-4 -0.225826,0.003 v -5.1e-4 c -0.02634,0.004 -0.050103,0.0148 -0.070797,0.0336 -0.020673,0.0188 -0.033607,0.0414 -0.039274,0.0677 -0.00567,0.0225 -0.00567,0.0451 0,0.0677 0.00753,0.0226 0.018537,0.0425 0.03359,0.0594 0.016933,0.0173 0.037552,0.0288 0.062012,0.0341 l 0.011369,0.006 h 0.144177 0.14366 v 0.77359 0.77308 h -0.14366 l -0.144177,0.003 -0.011369,0.003 c -0.015047,0.004 -0.028685,0.0102 -0.041858,0.0196 -0.011287,0.008 -0.022116,0.0172 -0.031523,0.0284 -0.00751,0.0113 -0.01397,0.0242 -0.019637,0.0393 -0.00373,0.0131 -0.00568,0.0273 -0.00568,0.0424 0,0.0301 0.00891,0.0572 0.025838,0.0816 0.018813,0.0245 0.043274,0.0405 0.073381,0.0481 l 0.013952,0.006 h 0.417546 0.420646 l 0.013953,-0.006 c 0.018813,-0.006 0.035589,-0.0141 0.050642,-0.0253 0.015054,-0.0131 0.02658,-0.028 0.034107,-0.045 0.00941,-0.0169 0.013953,-0.0368 0.013953,-0.0594 0,-0.0226 -0.00455,-0.0425 -0.013953,-0.0594 -0.00753,-0.0169 -0.019053,-0.0311 -0.034107,-0.0424 -0.015053,-0.0135 -0.031829,-0.0226 -0.050642,-0.0279 l -0.011369,-0.003 -0.143661,-0.003 H 7.116334 v -0.85214 c 0,-0.5682 -7.17e-4,-0.85598 -0.00258,-0.86352 -0.011293,-0.0395 -0.03505,-0.0691 -0.070797,-0.0879 -0.00193,0 -0.00453,-5.8e-4 -0.00827,-0.003 -0.01317,-0.005 -0.078871,-0.008 -0.197404,-0.008 -0.0207,-0.002 -0.036772,-0.003 -0.048059,-0.003 z m 10.286711,0 c -0.114768,0 -0.191997,10e-4 -0.231511,0.003 h -0.06201 v -5.1e-4 c -0.0094,0.001 -0.01902,0.004 -0.02842,0.008 -0.0075,0.004 -0.01521,0.009 -0.02274,0.014 -0.0056,0.004 -0.01211,0.01 -0.01964,0.017 -0.01503,0.0151 -0.02534,0.0299 -0.03101,0.045 -0.0057,0.0131 -0.0088,0.0357 -0.0088,0.0677 v 0.36122 0.39274 h -0.01654 c -0.03763,0.004 -0.07362,0.0148 -0.107487,0.0336 -0.03199,0.0169 -0.06029,0.0407 -0.08475,0.0708 -0.02258,0.0301 -0.03865,0.063 -0.04806,0.0987 -0.0057,0.0226 -0.0083,0.15136 -0.0083,0.38654 0,0.23516 0.0026,0.36394 0.0083,0.38654 0.0094,0.0376 0.0267,0.0724 0.05116,0.10439 0.04139,0.047 0.09416,0.078 0.15813,0.093 l 0.01654,0.006 h 0.420646 c 0.280341,0 0.425193,-10e-4 0.434599,-0.003 0.01317,0 0.0254,-10e-4 0.03669,-0.003 0.01129,-0.004 0.0216,-0.007 0.03101,-0.0109 0.01129,-0.006 0.0216,-0.0117 0.03101,-0.0171 0.01129,-0.006 0.0216,-0.0117 0.03101,-0.017 0.0094,-0.008 0.01831,-0.0152 0.02584,-0.0227 0.0094,-0.008 0.01779,-0.0159 0.02532,-0.0253 0.02823,-0.0339 0.04692,-0.0732 0.05633,-0.11834 l 0.0057,-0.017 v -0.34417 c 0,-0.23892 -0.0031,-0.36962 -0.0088,-0.39222 -0.0038,-0.0188 -0.01023,-0.0368 -0.01964,-0.0538 -0.0075,-0.0188 -0.01783,-0.0356 -0.03101,-0.0506 -0.01129,-0.015 -0.02422,-0.0292 -0.03927,-0.0424 -0.01505,-0.0131 -0.03235,-0.0235 -0.05116,-0.031 -0.01693,-0.01 -0.03493,-0.0174 -0.05374,-0.0227 -0.02257,-0.005 -0.04127,-0.008 -0.05633,-0.008 h -0.0083 v -0.39791 c 0,-0.22388 -0.0012,-0.34812 -0.0031,-0.37259 0,-0.0263 -0.0033,-0.0469 -0.01085,-0.062 -0.0038,-0.008 -0.0076,-0.0148 -0.01137,-0.0202 -0.0037,-0.005 -0.0088,-0.01 -0.01447,-0.0139 -0.0038,-0.005 -0.009,-0.01 -0.01654,-0.014 -0.0056,-0.005 -0.01139,-0.0105 -0.01705,-0.0145 l -0.0088,-0.003 c -0.01129,-0.005 -0.09184,-0.008 -0.242362,-0.008 h -0.0057 -0.0031 -0.0026 l -0.0026,-0.003 h -0.0031 -0.0026 -0.0031 -0.0026 -0.0026 -0.0031 -0.0026 -0.0031 -0.0026 -0.0031 -0.0026 -0.0026 -0.0031 -0.0026 -0.0031 -0.0026 -0.0057 -0.0026 z M 2.282,119.09093 v 0.98185 5.2e-4 0.9002 c 0,0.0658 0.0026,0.10514 0.00827,0.11834 0.00565,0.0151 0.015953,0.0311 0.031006,0.0481 0.00567,0.005 0.010736,0.01 0.014469,0.014 0.00562,0.004 0.011387,0.007 0.017053,0.0114 0.00562,0.002 0.01087,0.004 0.016537,0.006 0.03575,0.0129 0.07174,0.0107 0.107487,-0.006 0.026347,-0.0132 0.046261,-0.0338 0.059428,-0.062 0.00753,-0.0151 0.010852,-0.0331 0.010852,-0.0537 0.00187,-0.0226 0.0031,-0.13074 0.0031,-0.32453 v -0.34107 h 0.341582 c 0.225779,0 0.348089,-0.001 0.366902,-0.003 0.092191,-0.0113 0.170825,-0.0499 0.236678,-0.11575 0.065854,-0.0677 0.104469,-0.14881 0.115756,-0.24288 v -0.0677 c 0.00187,-0.0395 0.0031,-0.0853 0.0031,-0.13797 v -0.1584 c 0,-0.0527 -0.00123,-0.0978 -0.0031,-0.1354 v -0.0708 c -0.00565,-0.0545 -0.022423,-0.10538 -0.050643,-0.15245 -0.028223,-0.0489 -0.064214,-0.0902 -0.107487,-0.12402 -0.043277,-0.0339 -0.092201,-0.0577 -0.146761,-0.0708 -0.02446,-0.008 -0.053467,-0.0114 -0.087334,-0.0114 -0.031985,0 -0.183302,-5.8e-4 -0.454235,-0.003 z m 8.733834,0 c -0.0073,9e-5 -0.01465,0.001 -0.0217,0.003 v 0.001 c -0.01505,0.004 -0.02799,0.009 -0.03927,0.014 -0.0094,0.006 -0.01972,0.0146 -0.031,0.0258 -0.01503,0.0151 -0.02534,0.0299 -0.03101,0.045 -0.0019,0.006 -0.09134,0.31072 -0.268201,0.91467 -0.176874,0.6021 -0.266334,0.90857 -0.268201,0.91984 -0.0057,0.0207 -0.0057,0.0413 0,0.062 0.01129,0.0452 0.03889,0.0773 0.08217,0.0961 0.04328,0.0169 0.0833,0.0124 0.120923,-0.014 0.02446,-0.0151 0.04175,-0.0362 0.05116,-0.0625 0.0019,0 0.0026,-5.9e-4 0.0026,-0.003 0,-0.004 7.17e-4,-0.007 0.0026,-0.0114 0.0019,-0.004 0.0038,-0.009 0.0057,-0.0145 0.0019,-0.006 0.0038,-0.0121 0.0057,-0.0196 l 0.0057,-0.0227 c 0.0019,-0.008 0.0038,-0.0159 0.0057,-0.0253 0.0038,-0.009 0.0064,-0.0185 0.0083,-0.0279 0.0038,-0.0113 0.0076,-0.0216 0.01137,-0.031 0.0038,-0.0113 0.0069,-0.0228 0.0088,-0.0341 l 0.05323,-0.18035 h 0.296623 0.299207 l 0.05064,0.17777 c 0.03576,0.11852 0.05446,0.1816 0.05633,0.18913 0.01693,0.0433 0.04716,0.0704 0.09043,0.0816 0.02822,0.007 0.05531,0.006 0.08165,-0.003 0.02634,-0.009 0.04748,-0.0255 0.06253,-0.0481 0.01693,-0.0225 0.02532,-0.0489 0.02532,-0.0791 0,-0.0116 -0.0012,-0.02 -0.0031,-0.0253 0,-0.006 -0.08946,-0.31335 -0.268201,-0.92294 -0.176837,-0.60961 -0.267702,-0.91871 -0.273368,-0.92811 -0.01317,-0.0283 -0.03309,-0.0494 -0.05943,-0.0625 -0.0056,-0.002 -0.01139,-0.004 -0.01705,-0.006 -0.0038,-0.002 -0.0064,-0.003 -0.0083,-0.003 -0.01294,-0.004 -0.02552,-0.006 -0.03772,-0.006 z M 2.5502,119.36171 h 0.341582 c 0.227636,0 0.344182,5.9e-4 0.349849,0.003 v -5.2e-4 c 0.0508,0.0151 0.082945,0.0472 0.096118,0.0961 l 0.00517,0.0139 v 0.26252 0.0594 c 0,0.14296 -0.00333,0.22089 -0.010852,0.23409 0,0.002 -0.00123,0.004 -0.0031,0.006 -0.013173,0.0282 -0.033791,0.0488 -0.062011,0.062 -0.015047,0.007 -0.033748,0.012 -0.056328,0.014 H 2.891785 2.550203 v -0.37518 z m 14.390337,0 h 0.129707 0.132809 v 0.31885 0.31884 h -0.132809 -0.129707 v -0.31884 z m -4.436422,0.29663 c -0.0069,9e-5 -0.01329,0.001 -0.01964,0.003 l -5.17e-4,0.002 c -0.04892,0.009 -0.08247,0.0358 -0.101286,0.0791 -0.0075,0.0169 -0.01137,0.0376 -0.01137,0.062 l 0.03411,1.01596 c 0.01128,0.0922 0.04868,0.17204 0.112654,0.23977 0.06021,0.0621 0.136218,0.10193 0.22841,0.11886 0.01129,0.002 0.05183,0.003 0.12144,0.003 0.0715,0 0.115875,-5.8e-4 0.132808,-0.003 0.02823,-0.004 0.05653,-0.0108 0.08475,-0.0202 0.03198,-0.009 0.10223,-0.0487 0.211356,-0.11834 l 0.135393,-0.0873 v 0.0563 c 0.0019,0.0433 0.0057,0.0723 0.01137,0.0873 0.0038,0.0113 0.01145,0.0236 0.02274,0.0367 0.01129,0.0135 0.02282,0.0231 0.03411,0.0284 0.0094,0.005 0.01972,0.01 0.03101,0.0139 0.01129,0.004 0.0223,0.006 0.03359,0.006 0.01317,0 0.0254,-0.002 0.03669,-0.006 0.02823,-0.006 0.05198,-0.0205 0.0708,-0.045 0.01129,-0.0132 0.02038,-0.0305 0.0279,-0.0512 v -0.0987 c 0.0019,-0.0621 0.0031,-0.24556 0.0031,-0.55035 0,-0.42711 -0.0012,-0.64535 -0.0031,-0.65475 -0.0019,-0.0169 -0.0071,-0.033 -0.01654,-0.0481 -0.01129,-0.0207 -0.02737,-0.0368 -0.04806,-0.0481 -0.02634,-0.0153 -0.05464,-0.0205 -0.08475,-0.0165 -0.0075,0.001 -0.01591,0.004 -0.02532,0.008 -0.0094,10e-4 -0.0178,0.004 -0.02532,0.008 -0.0207,0.0113 -0.03677,0.0274 -0.04806,0.0481 -0.0019,0.002 -0.0038,0.006 -0.0057,0.0109 -0.0019,0.004 -0.0038,0.007 -0.0057,0.0114 -0.0038,0.0131 -0.0064,0.0357 -0.0083,0.0677 v 0.38964 0.42323 l -0.203605,0.1328 c -0.135467,0.0863 -0.207634,0.1314 -0.217041,0.1354 -0.01129,0.006 -0.02282,0.009 -0.03411,0.0114 h -0.0987 -0.0987 l -0.01705,-0.006 c -0.04892,-0.0169 -0.07793,-0.0498 -0.08733,-0.0987 0,-0.006 -0.002,-0.0443 -0.0057,-0.11575 -0.0019,-0.0715 -0.0064,-0.20674 -0.01395,-0.40618 -0.0113,-0.33679 -0.01777,-0.50995 -0.01964,-0.51935 -0.0075,-0.0245 -0.01976,-0.0451 -0.03669,-0.062 -0.01693,-0.0169 -0.03685,-0.0292 -0.05943,-0.0367 -0.01293,-0.004 -0.02523,-0.006 -0.03669,-0.006 z m -4.034379,5.1e-4 c -0.00788,-3e-5 -0.015775,7.4e-4 -0.023771,0.002 v -0.002 c -0.015054,0.004 -0.028505,0.009 -0.039791,0.014 -0.00941,0.006 -0.019719,0.0141 -0.031006,0.0253 -0.015027,0.0151 -0.025339,0.0311 -0.031006,0.0481 -0.00567,0.0151 -0.00827,0.069 -0.00827,0.16123 0,0.0866 0.0026,0.14005 0.00827,0.16072 0.00188,0.006 0.036653,0.0855 0.104386,0.23978 0.067732,0.1524 0.134652,0.30494 0.200505,0.45733 0.067733,0.15229 0.101286,0.22951 0.101286,0.23151 0.011293,0.0207 0.027366,0.0368 0.048059,0.0481 0.022573,0.0132 0.054021,0.0196 0.093534,0.0196 h 0.03359 l -0.00258,0.006 c 0,0.004 -0.00195,0.009 -0.00568,0.0165 -0.00379,0.006 -0.00764,0.0133 -0.011369,0.0227 -0.00374,0.009 -0.00829,0.021 -0.013953,0.0341 -0.00376,0.0113 -0.00953,0.0235 -0.017053,0.0367 -0.00565,0.0131 -0.01211,0.0268 -0.019637,0.0419 -0.00564,0.0151 -0.012627,0.0311 -0.020154,0.0481 l -0.087333,0.2036 H 8.595317 c -0.099717,0.002 -0.153187,0.004 -0.160713,0.006 -0.030107,0.009 -0.054567,0.0255 -0.073381,0.0481 -0.016933,0.0244 -0.025321,0.0515 -0.025321,0.0816 0,0.0319 0.00839,0.0596 0.025321,0.0822 0.018814,0.0245 0.043274,0.0412 0.073381,0.0506 l 0.011369,0.003 h 0.197404 c 0.14299,0 0.222141,-0.003 0.237194,-0.008 0.013174,-0.004 0.026108,-0.011 0.039274,-0.0222 0.013174,-0.0113 0.02348,-0.0228 0.031006,-0.0341 l 0.7059,-1.60611 c 0.00753,-0.0188 0.011369,-0.0742 0.011369,-0.16639 0,-0.0922 -0.00312,-0.14565 -0.00879,-0.16072 -0.00374,-0.01 -0.00829,-0.0174 -0.013952,-0.0227 -0.00377,-0.008 -0.010231,-0.0159 -0.019637,-0.0253 -0.015054,-0.0151 -0.031126,-0.0266 -0.04806,-0.0341 -0.0301,-0.009 -0.060327,-0.009 -0.090433,0 -0.016934,0.008 -0.03371,0.019 -0.050643,0.0341 -0.015034,0.0151 -0.025339,0.0311 -0.031006,0.0481 -0.0038,0.0113 -0.00692,0.0236 -0.00879,0.0367 v 0.10439 0.10439 l -0.174666,0.40101 -0.175184,0.40049 H 9.002001 8.956526 l -0.174667,-0.40049 -0.178283,-0.40101 v -0.10439 -0.10439 c 0,-0.0132 -0.0026,-0.0254 -0.00827,-0.0367 -0.00193,-0.008 -0.00453,-0.0143 -0.00827,-0.0196 -0.00377,-0.008 -0.011451,-0.0172 -0.022737,-0.0284 -0.011267,-0.0111 -0.019655,-0.0182 -0.025322,-0.0222 -0.022575,-0.0125 -0.04561,-0.019 -0.069246,-0.0191 z m 6.060612,0.001 c -0.04704,0.008 -0.08059,0.032 -0.101286,0.0734 l -0.01137,0.0512 c -0.0038,0.0245 0.002,0.0489 0.01705,0.0734 0.0019,0.006 0.01936,0.0301 0.05323,0.0734 0.03575,0.0414 0.09236,0.10901 0.169499,0.20309 0.146755,0.17674 0.220141,0.2662 0.220141,0.2682 l -0.228409,0.27647 c -0.15243,0.18249 -0.230878,0.2772 -0.234611,0.28473 -0.0075,0.009 -0.01397,0.0197 -0.01964,0.031 -0.0038,0.0113 -0.0064,0.0228 -0.0083,0.0341 0,0.0113 7.17e-4,0.0235 0.0026,0.0367 0.0019,0.0113 0.0057,0.0228 0.01137,0.0341 0.01881,0.0414 0.04974,0.0666 0.09302,0.076 0.04516,0.009 0.08499,-8.8e-4 0.118856,-0.031 0.0056,-0.006 0.07711,-0.092 0.214457,-0.25942 0.139208,-0.16744 0.211375,-0.25498 0.217041,-0.26251 l 0.01137,-0.008 0.208773,0.25425 c 0.05833,0.0696 0.109172,0.13078 0.152446,0.18345 0.04329,0.0525 0.06583,0.0797 0.0677,0.0817 0.02635,0.0281 0.05849,0.0435 0.09612,0.0455 0.03763,0.002 0.06978,-0.0104 0.09612,-0.0367 0.02635,-0.0226 0.03999,-0.0509 0.04186,-0.0847 0.0038,-0.0357 -0.0046,-0.0672 -0.02532,-0.0935 -0.0019,-0.002 -0.01411,-0.0155 -0.03669,-0.0419 -0.0207,-0.0264 -0.049,-0.0611 -0.08475,-0.10438 -0.03575,-0.0433 -0.07314,-0.0896 -0.112655,-0.1385 l -0.22841,-0.27647 c 0,-0.002 0.07217,-0.0913 0.217041,-0.2682 0.146785,-0.17685 0.222093,-0.26893 0.225826,-0.27647 0.0057,-0.008 0.0095,-0.0152 0.01137,-0.0227 0.0037,-0.009 0.0057,-0.0178 0.0057,-0.0253 0.0019,-0.009 0.0019,-0.0178 0,-0.0253 -0.0038,-0.047 -0.0263,-0.0818 -0.0677,-0.10438 -0.03951,-0.0241 -0.08005,-0.0271 -0.121439,-0.008 -0.0075,0.004 -0.01521,0.009 -0.02274,0.0139 -0.0075,0.004 -0.01397,0.009 -0.01964,0.0145 -0.0038,0.006 -0.07138,0.0874 -0.203088,0.24546 -0.131719,0.15793 -0.198638,0.23778 -0.200505,0.23978 -0.0019,0 -0.0688,-0.0791 -0.200504,-0.23719 -0.05456,-0.0658 -0.102267,-0.12315 -0.143661,-0.17209 -0.03953,-0.0488 -0.06015,-0.074 -0.06201,-0.076 -0.0075,-0.008 -0.01835,-0.0148 -0.03152,-0.0202 -0.01129,-0.007 -0.0223,-0.0125 -0.03359,-0.0165 -0.0038,-0.002 -0.0095,-0.003 -0.01705,-0.003 h -0.02274 -0.01395 z m -9.778732,5.1e-4 c -0.075257,0.0113 -0.141474,0.0384 -0.19792,0.0817 -0.060209,0.0452 -0.107914,0.0869 -0.143661,0.12454 -0.030106,0.032 -0.054567,0.0668 -0.07338,0.10439 -0.016914,0.0376 -0.02844,0.0789 -0.034107,0.12402 -0.00187,0.0169 -0.00258,0.1251 -0.00258,0.32453 0,0.19753 7.18e-4,0.30306 0.00258,0.31626 0.00941,0.0922 0.045401,0.17009 0.107487,0.23409 0.031988,0.0339 0.07899,0.0751 0.141077,0.12403 0.048918,0.0377 0.102387,0.0633 0.160714,0.0765 0.030103,0.005 0.115018,0.008 0.254248,0.008 0.135465,0 0.21916,-0.002 0.251147,-0.008 0.063967,-0.0151 0.119358,-0.0415 0.166398,-0.0791 0.063973,-0.0527 0.106431,-0.0894 0.127124,-0.11007 0.065855,-0.0658 0.105173,-0.145 0.118339,-0.23719 0.00187,-0.0169 0.0031,-0.12509 0.0031,-0.32453 v -0.12712 -0.0873 -0.0563 c 0,-0.0131 -0.00123,-0.0235 -0.0031,-0.031 v -0.017 c -0.00565,-0.047 -0.018581,-0.0914 -0.039274,-0.13281 -0.018813,-0.0414 -0.045198,-0.0781 -0.079065,-0.11007 -0.00564,-0.008 -0.023637,-0.0231 -0.053743,-0.0476 -0.028227,-0.0263 -0.052687,-0.0482 -0.073381,-0.0651 -0.013166,-0.009 -0.031163,-0.0197 -0.053743,-0.031 -0.0207,-0.0131 -0.040098,-0.0235 -0.058911,-0.031 -0.00941,-0.004 -0.022858,-0.007 -0.039791,-0.0114 -0.015054,-0.003 -0.027988,-0.006 -0.039274,-0.008 -0.011289,-0.002 -0.084675,-0.003 -0.220142,-0.003 H 4.751616 Z m 6.267835,0.0512 0.107487,0.37259 0.110071,0.36949 H 11.126938 11.016867 10.90938 10.799309 l 0.110071,-0.37259 c 0.01129,-0.0396 0.02282,-0.0782 0.03411,-0.11576 0.01129,-0.0395 0.02089,-0.0742 0.02842,-0.10438 0.0094,-0.0301 0.01779,-0.056 0.02532,-0.0786 0.0076,-0.0226 0.0128,-0.0406 0.01654,-0.0537 0.0028,-0.01 0.005,-0.0157 0.0057,-0.0171 z m -6.096786,0.21704 c 0.014406,-8e-5 0.029765,0 0.045992,0 0.048922,0 0.083694,10e-4 0.104387,0.003 h 0.056327 0.028422 c 0.0038,0 0.0064,10e-4 0.00827,0.003 v -0.001 c 0.015054,0.004 0.028505,0.01 0.039791,0.0171 0.00377,0.002 0.010231,0.008 0.019637,0.0171 0.00941,0.008 0.01972,0.0159 0.031006,0.0253 0.011294,0.009 0.02282,0.0197 0.034107,0.031 0.011286,0.009 0.020378,0.0178 0.027905,0.0253 l 0.014469,0.0114 c 0.00567,0.006 0.01022,0.014 0.013953,0.0253 0.00566,0.009 0.0095,0.0178 0.011369,0.0253 0.00187,0.004 0.00258,0.0217 0.00258,0.0537 v 0.25373 0.29921 l -0.00568,0.017 c -0.0038,0.01 -0.0064,0.0174 -0.00827,0.0227 -0.00188,0.004 -0.00643,0.009 -0.013953,0.0165 -0.00565,0.008 -0.013331,0.0152 -0.022737,0.0227 -0.00753,0.008 -0.020461,0.019 -0.039274,0.0341 -0.04328,0.0379 -0.071583,0.0593 -0.08475,0.0646 l -0.0031,0.003 c -0.01317,0.005 -0.075028,0.008 -0.186036,0.008 H 4.966075 4.782623 c -0.015053,-0.002 -0.030422,-0.007 -0.045475,-0.0145 -0.00565,-0.004 -0.012814,-0.009 -0.022221,-0.014 -0.00753,-0.008 -0.02482,-0.0224 -0.051159,-0.045 -0.04516,-0.0377 -0.072243,-0.0659 -0.081649,-0.0847 l -0.00258,-0.003 c -0.00567,-0.0132 -0.00878,-0.1007 -0.00878,-0.26251 v -0.0677 -0.2992 l 0.00568,-0.014 c 0.00565,-0.0169 0.012111,-0.0304 0.019637,-0.0398 0.00941,-0.009 0.029322,-0.0269 0.059428,-0.0532 0.033847,-0.0304 0.053762,-0.0484 0.059428,-0.0538 0.00562,-0.004 0.01087,-0.007 0.016537,-0.0114 0.00753,-0.003 0.015211,-0.006 0.022737,-0.008 0.011524,-0.005 0.06763,-0.007 0.168465,-0.008 z m 11.752771,0.34158 h 0.397909 0.394808 v 0.31937 0.31884 h -0.394808 -0.397909 v -0.31884 z"
     style="font-size:2.82222px;font-family:OCRA;-inkscape-font-specification:'OCRA, Normal';text-align:center;text-anchor:middle;fill:#461621;stroke-width:0.2;stroke-linejoin:bevel" /><g
     aria-label="Outs"
     id="text507"
     style="font-size:4.58611px;font-family:OCRA;-inkscape-font-specification:'OCRA, Normal';text-align:center;text-anchor:middle;fill:#855560;stroke-width:0.264999;stroke-linejoin:bevel"><path
       d="m 2.9355304,1.178586 q 0.022931,-0.00459 0.064206,-0.00459 0.073378,0 0.1467555,0.02293 0.073378,0.018344 0.1329972,0.055033 0.064205,0.032103 0.1192389,0.087136 0.055033,0.050447 0.091722,0.1146528 0.018344,0.027517 0.2659943,0.5274027 0.24765,0.4952999 0.2659944,0.5365748 0.055033,0.1559278 0.05962,0.3164416 0.00917,0.1605139 -0.036689,0.3164416 -0.018345,0.05962 -0.059619,0.1467556 -0.036689,0.08255 -0.2293056,0.4677832 -0.027517,0.050447 -0.050447,0.1008944 -0.022931,0.045861 -0.045861,0.091722 -0.02293,0.045861 -0.045861,0.087136 -0.018344,0.041275 -0.036689,0.077964 -0.018344,0.036689 -0.036689,0.064205 -0.013758,0.027517 -0.022931,0.050447 -0.00917,0.022931 -0.018344,0.036689 -0.00459,0.00917 -0.00917,0.013758 Q 3.458347,4.343002 3.4124859,4.3934492 3.3253498,4.4805853 3.210697,4.5264464 3.1006304,4.5723075 2.9813915,4.5677214 2.8621527,4.5631353 2.752086,4.5081019 2.6053305,4.4393103 2.5181944,4.2971409 2.5044361,4.2742103 2.2522,3.7789104 2.0045501,3.2790244 1.9907918,3.2423355 1.9449307,3.1230967 1.9265862,2.9855134 q -0.00459,-0.018344 -0.00459,-0.050447 0,-0.032103 0,-0.064206 0,-0.032103 0,-0.064205 0,-0.032103 0.00459,-0.050447 0.00459,-0.027517 0.00917,-0.055033 0.00459,-0.027517 0.00917,-0.050447 0.00459,-0.027517 0.013758,-0.050447 0.00917,-0.027517 0.013758,-0.050447 0.00917,-0.027517 0.018344,-0.050447 Q 2.0045501,2.4626968 2.2522,1.9673969 2.5044361,1.4675109 2.5181944,1.4445804 2.5732277,1.3574443 2.6511916,1.2978249 2.7291555,1.2336193 2.8254638,1.2061027 2.875911,1.1877582 2.9355304,1.178586 Z m 0.096308,0.4402666 q -0.032103,-0.00917 -0.068792,0 -0.032103,0.00917 -0.055033,0.036689 -0.018344,0.013758 -0.2614083,0.499886 -0.2384777,0.4861277 -0.2476499,0.5136444 -0.00917,0.02293 -0.018344,0.055033 -0.00917,0.032103 -0.013758,0.059619 -0.00459,0.018344 -0.00459,0.055033 0,0.032103 0,0.068792 0,0.032103 0.00459,0.050447 0.00917,0.064206 0.032103,0.1146528 0.00917,0.027517 0.252236,0.5136443 0.2430638,0.4861277 0.2568222,0.5044721 0.00917,0.00917 0.018344,0.018344 0.00917,0.00459 0.018344,0.00917 0.013758,0.00459 0.027517,0.00459 0.068792,0.018344 0.123825,-0.032103 0.013758,-0.018344 0.1513416,-0.293511 Q 3.3895553,3.5175022 3.4950359,3.301955 3.6051025,3.0864078 3.6188608,3.0497189 3.6555497,2.9396523 3.6463775,2.8295856 3.6372053,2.760794 3.6188608,2.6920023 3.6051025,2.6553134 3.4950359,2.4397663 3.3849692,2.2242191 3.2473859,1.9444664 3.1098026,1.6692998 3.0960443,1.6555414 3.082286,1.6417831 3.0639415,1.6326109 3.0501832,1.6234387 3.0318387,1.6188526 Z"
       style="stroke-width:0.265"
       id="path2600" /><path
       d="m 5.3845139,2.1003941 q 0.041275,-0.00917 0.091722,0.00459 0.055033,0.018344 0.096308,0.05962 0.041275,0.041275 0.05962,0.1008944 0.00459,0.02293 0.032103,0.8438443 0.018344,0.4861276 0.022931,0.6603998 0.00917,0.1742722 0.00917,0.1880305 0.022931,0.1192389 0.1421694,0.1605139 l 0.027517,0.00917 h 0.1605138 q 0.1329972,0 0.1605139,0 0.027517,-0.00459 0.055033,-0.018344 0.022931,-0.00917 0.3531305,-0.2201333 L 6.9254469,3.6734299 V 2.9855134 q 0,-0.5549193 0,-0.6328832 0.00459,-0.077964 0.013758,-0.1100667 0.00459,-0.00917 0.00917,-0.018344 0.00459,-0.013758 0.00917,-0.018344 0.027517,-0.050447 0.077964,-0.077964 0.018344,-0.00917 0.041275,-0.013758 0.02293,-0.00917 0.041275,-0.013758 0.073378,-0.00917 0.1375833,0.027517 0.050447,0.027517 0.077964,0.077964 0.022931,0.036689 0.027517,0.077964 0.00459,0.022931 0.00459,1.0639776 0,0.7429498 -0.00459,0.8942914 0,0.1513417 0,0.1605139 -0.018345,0.050447 -0.045861,0.08255 -0.045861,0.059619 -0.1146528,0.073378 -0.027517,0.00917 -0.059619,0.00917 -0.027517,0 -0.055033,-0.00917 -0.027517,-0.00917 -0.050447,-0.02293 Q 7.0079969,4.5218603 6.9804802,4.4897575 6.9529636,4.4576547 6.9437914,4.4301381 6.930033,4.3934492 6.9254469,4.2879686 V 4.1962464 L 6.7053136,4.3384159 q -0.2659943,0.169686 -0.3439582,0.1926166 -0.068792,0.022931 -0.1375833,0.032103 -0.041275,0.00459 -0.2155472,0.00459 -0.1696861,0 -0.1972027,-0.00459 Q 5.5863028,4.5218603 5.4395473,4.3705186 5.2836195,4.2054187 5.2561028,3.9806993 L 5.2010695,2.3296996 q 0,-0.059619 0.018345,-0.1008944 0.045861,-0.1054805 0.1650999,-0.1284111 z"
       style="stroke-width:0.265"
       id="path2602" /><path
       d="m 9.0855055,1.3620304 q 0.050447,-0.00917 0.1008944,0.00459 0,0 0.041275,0.018344 0.064205,0.032103 0.096308,0.096308 0.018344,0.036689 0.018344,0.073378 0.00459,0.032103 0.00459,0.2659944 V 2.095808 l 0.4494388,0.00459 h 0.4494384 l 0.01835,0.00459 q 0.09631,0.032103 0.137583,0.1146528 0.01376,0.027517 0.01835,0.045861 0.0046,0.018344 0.0046,0.050447 0,0.055033 -0.02293,0.1008944 -0.04128,0.08255 -0.137583,0.1146528 l -0.01835,0.00459 H 9.7963526 9.3469138 l 0.00459,0.7108471 v 0.710847 l 0.00917,0.022931 q 0.018344,0.064206 0.064205,0.1008944 0.032103,0.022931 0.068792,0.036689 l 0.027517,0.00917 H 9.773422 q 0.2155472,0 0.24765,0 0.0321,-0.00459 0.06879,-0.022931 0.08714,-0.045861 0.114652,-0.1467555 0.0046,-0.018344 0.0046,-0.032103 0.0046,-0.013758 0.0092,-0.027517 0.0092,-0.013758 0.01376,-0.022931 0.0046,-0.013758 0.0092,-0.022931 0.0092,-0.00917 0.01835,-0.018344 0.07338,-0.087136 0.18803,-0.073378 0.09172,0.013758 0.146756,0.087136 0.05962,0.073378 0.04586,0.1605138 -0.03669,0.2522361 -0.238478,0.4127499 -0.05962,0.050447 -0.137583,0.087136 -0.07338,0.032103 -0.146756,0.045861 -0.05045,0.00917 -0.100894,0.013758 -0.050447,0 -0.2614084,0 H 9.4890832 l -0.036689,-0.00917 Q 9.3469138,4.5402047 9.2551916,4.4943436 9.1680555,4.4438964 9.0946777,4.3705186 9.0212999,4.2925548 8.9754388,4.2008326 q -0.045861,-0.096308 -0.059619,-0.206375 -0.00459,-0.027517 -0.00459,-0.1284111 0,-0.1054805 0,-0.6191248 V 2.5360746 H 8.7828222 q -0.123825,0 -0.1421694,-0.00459 -0.050447,-0.018344 -0.087136,-0.045861 -0.036689,-0.032103 -0.055033,-0.073378 -0.018344,-0.045861 -0.018344,-0.096308 0,-0.073378 0.041275,-0.1284111 0.045861,-0.059619 0.1192389,-0.08255 0.018344,-0.00459 0.1421694,-0.00459 L 8.9112333,2.095808 V 1.8206414 q 0,-0.2338916 0,-0.2659944 0.00459,-0.036689 0.022931,-0.073378 0.045861,-0.096308 0.1513417,-0.1192389 z"
       style="stroke-width:0.265"
       id="path2604" /><path
       d="m 12.300369,2.1003941 q 0.0321,-0.00459 0.527403,-0.00459 0.499886,0 0.536574,0.00459 0.243064,0.027517 0.408164,0.2017889 0.08255,0.08255 0.09631,0.1513416 0.01376,0.055033 0,0.1054805 -0.0046,0.00917 -0.0092,0.022931 -0.0046,0.00917 -0.0092,0.018344 -0.02752,0.05962 -0.09172,0.096308 -0.06421,0.032103 -0.128411,0.022931 -0.05045,-0.00459 -0.08714,-0.027517 -0.0321,-0.02293 -0.06879,-0.064205 -0.04586,-0.059619 -0.119239,-0.08255 l -0.02293,-0.00459 -0.486128,-0.00459 q -0.490714,0 -0.504472,0.00459 -0.02752,0.00459 -0.05503,0.027517 -0.02293,0.018344 -0.03669,0.041275 -0.0046,0.013758 -0.0092,0.018344 0,0.00459 0,0.02293 0,0.013758 0,0.022931 0.0046,0.00917 0.0092,0.013758 0.01376,0.041275 0.04586,0.05962 0.01376,0.00917 0.41275,0.1880305 0.862188,0.376061 0.908049,0.4081638 0.05503,0.036689 0.100895,0.08255 0.05045,0.045861 0.08714,0.1008945 0.03669,0.050447 0.05962,0.1054805 0.09172,0.2109611 0.03669,0.4219221 -0.07796,0.3118555 -0.366888,0.4494388 -0.06879,0.032103 -0.14217,0.050447 -0.06879,0.013758 -0.573264,0.013758 -0.467783,0 -0.504472,-0.00917 -0.09172,-0.013758 -0.201789,-0.059619 -0.128411,-0.050447 -0.233891,-0.1329972 -0.07796,-0.064206 -0.100895,-0.1100666 -0.04586,-0.096308 0.0046,-0.1880305 0.02752,-0.064206 0.08714,-0.096308 0.0642,-0.036689 0.132997,-0.027517 0.06421,0.00917 0.132997,0.068792 0.06879,0.055033 0.142169,0.08255 0.06421,0.022931 0.110067,0.032103 0.0092,0 0.05962,0 0.05045,0 0.151342,0 0.100894,0 0.252236,0 h 0.440267 l 0.02293,-0.00459 q 0.04586,-0.018344 0.08255,-0.045861 0.04127,-0.032103 0.05962,-0.077964 0.03669,-0.073378 0.01834,-0.1513416 -0.01834,-0.077964 -0.08255,-0.1284111 -0.0092,-0.00459 -0.01834,-0.00917 -0.0092,-0.00917 -0.01376,-0.00917 -0.01834,-0.00917 -0.889705,-0.3898194 -0.339372,-0.1513416 -0.362303,-0.1651 Q 12.029788,3.1093384 11.960997,3.0359606 11.828,2.9029634 11.805069,2.7149329 q -0.01376,-0.1100667 0.01834,-0.2155472 0.0321,-0.1054805 0.105481,-0.1926166 0.146755,-0.1742722 0.371475,-0.206375 z"
       style="stroke-width:0.265"
       id="path2606" /></g></svg>
