<?xml version="1.0" encoding="UTF-8" standalone="no"?>
<!-- Created with Inkscape (http://www.inkscape.org/) -->

<svg
   width="20.620001mm"
   height="128.5mm"
   viewBox="0 0 20.620002 128.50002"
   version="1.1"
   id="svg8"
   inkscape:version="1.2.2 (b0a8486541, 2022-12-01)"
   sodipodi:docname="Outs_4hp_Plus.svg"
   xml:space="preserve"
   xmlns:inkscape="http://www.inkscape.org/namespaces/inkscape"
   xmlns:sodipodi="http://sodipodi.sourceforge.net/DTD/sodipodi-0.dtd"
   xmlns:xlink="http://www.w3.org/1999/xlink"
   xmlns="http://www.w3.org/2000/svg"
   xmlns:svg="http://www.w3.org/2000/svg"
   xmlns:rdf="http://www.w3.org/1999/02/22-rdf-syntax-ns#"
   xmlns:cc="http://creativecommons.org/ns#"
   xmlns:dc="http://purl.org/dc/elements/1.1/"><defs
     id="defs2"><linearGradient
       inkscape:collect="always"
       id="linearGradient840"><stop
         style="stop-color:#16502d;stop-opacity:1;"
         offset="0"
         id="stop836" /><stop
         style="stop-color:#163650;stop-opacity:1;"
         offset="1"
         id="stop838" /></linearGradient><linearGradient
       inkscape:collect="always"
       xlink:href="#linearGradient840"
       id="linearGradient842"
       x1="29.399649"
       y1="297.12344"
       x2="29.337139"
       y2="168.29951"
       gradientUnits="userSpaceOnUse"
       gradientTransform="matrix(0.67650915,0,0,1,15.24,0)" /><inkscape:path-effect
       effect="fillet_chamfer"
       id="path-effect565-7-3"
       is_visible="true"
       lpeversion="1"
       nodesatellites_param="F,0,0,1,0,2,0,1 @ F,0,0,1,0,5.5,0,1 @ F,0,0,1,0,2,0,1 @ F,0,0,1,0,5.5,0,1"
       unit="px"
       method="auto"
       mode="F"
       radius="0"
       chamfer_steps="1"
       flexible="false"
       use_knot_distance="true"
       apply_no_radius="true"
       apply_with_radius="true"
       only_selected="false"
       hide_knots="false" /></defs><sodipodi:namedview
     id="base"
     pagecolor="#ffffff"
     bordercolor="#666666"
     borderopacity="1.0"
     inkscape:pageopacity="0.0"
     inkscape:pageshadow="2"
     inkscape:zoom="1.979899"
     inkscape:cx="-73.741135"
     inkscape:cy="385.62573"
     inkscape:document-units="mm"
     inkscape:current-layer="svg8"
     showgrid="true"
     units="mm"
     inkscape:snap-bbox="true"
     inkscape:snap-page="true"
     inkscape:bbox-nodes="false"
     inkscape:snap-bbox-edge-midpoints="false"
     inkscape:window-width="1920"
     inkscape:window-height="1018"
     inkscape:window-x="0"
     inkscape:window-y="0"
     inkscape:window-maximized="1"
     inkscape:snap-bbox-midpoints="true"
     inkscape:snap-nodes="false"
     inkscape:showpageshadow="2"
     inkscape:pagecheckerboard="0"
     inkscape:deskcolor="#d1d1d1"><inkscape:grid
       type="xygrid"
       id="grid409"
       originx="6.4306647e-07"
       originy="1.0351565e-06" /></sodipodi:namedview><metadata
     id="metadata5"><rdf:RDF><cc:Work
         rdf:about=""><dc:format>image/svg+xml</dc:format><dc:type
           rdf:resource="http://purl.org/dc/dcmitype/StillImage" /></cc:Work></rdf:RDF></metadata><rect
     style="display:inline;opacity:1;vector-effect:none;fill:url(#linearGradient842);fill-opacity:1;fill-rule:evenodd;stroke:none;stroke-width:0.534098;stroke-linecap:butt;stroke-linejoin:miter;stroke-miterlimit:4;stroke-dasharray:none;stroke-dashoffset:0;stroke-opacity:1;paint-order:normal;image-rendering:auto"
     id="panel"
     width="20.620001"
     height="128.5"
     x="15.240002"
     y="168.49997"
     inkscape:label="panel"
     transform="translate(-15.240002,-168.49997)" /><path
     id="vglabs--logodark"
     style="stroke-width:1.00157481;stroke-dasharray:none;font-style:normal;font-variant:normal;font-weight:500;font-stretch:normal;font-size:12px;line-height:125%;font-family:OCRA;-inkscape-font-specification:'OCRA Medium';text-align:start;letter-spacing:0px;word-spacing:0px;writing-mode:lr-tb;text-anchor:start;fill:#461621;fill-opacity:1;stroke:none"
     d="M 207.95046 502.26563 C 206.49446 502.26563 205.69353 502.27633 205.54421 502.29493 C 204.61088 502.42562 203.81667 502.8367 203.16336 503.52735 C 203.03268 503.63937 202.33306 504.51556 201.06375 506.15821 C 199.81308 507.78223 199.14142 508.66037 199.04812 508.79102 C 198.54411 509.51903 198.25368 510.33926 198.17898 511.25391 C 198.16028 511.44059 198.14104 512.80315 198.12234 515.3418 C 198.12234 517.88047 198.14168 519.23435 198.17898 519.40235 C 198.32831 520.70902 198.95459 521.70778 200.05593 522.39845 C 200.44792 522.62244 200.86769 522.79035 201.3157 522.90235 C 201.59569 522.95835 202.74305 522.98634 204.75906 522.98634 C 206.62571 522.98634 207.65246 522.97769 207.83914 522.95899 C 208.51112 522.86566 209.1181 522.62248 209.65945 522.23048 C 210.21943 521.83848 210.64788 521.34344 210.94656 520.7461 C 211.15188 520.33544 211.28314 519.90699 211.33914 519.45899 C 211.35814 519.27233 211.36646 518.24558 211.36648 516.37891 L 211.36648 513.55079 L 208.65164 513.55079 C 206.78496 513.55079 205.76689 513.57877 205.5989 513.63477 C 205.43089 513.69078 205.27166 513.79405 205.12234 513.94337 C 204.973 514.09271 204.8611 514.26061 204.7864 514.44727 C 204.69306 514.74595 204.70369 515.03447 204.8157 515.31446 C 204.87169 515.50113 204.973 515.66904 205.12234 515.81837 C 205.25396 515.95001 205.39416 516.04441 205.54031 516.10352 L 205.54617 516.10938 L 205.55789 516.10938 C 205.57183 516.11473 205.58482 516.12227 205.5989 516.12696 C 205.76689 516.18296 206.33721 516.21096 207.30789 516.21095 L 208.61843 516.21095 L 208.67898 516.2129 L 208.67898 517.72266 C 208.67898 518.544 208.67024 519.01974 208.65164 519.1504 C 208.65162 519.2624 208.61296 519.39365 208.53836 519.54298 C 208.40768 519.82298 208.20311 520.02755 207.92312 520.15821 C 207.7783 520.23065 207.6069 520.27711 207.40945 520.29688 L 207.16336 520.29884 L 204.73171 520.29884 L 202.07156 520.29884 C 201.88488 520.28018 201.72566 520.23291 201.595 520.15821 C 201.22166 519.99021 200.97847 519.70169 200.86648 519.29102 C 200.84748 519.21636 200.83913 517.89047 200.83914 515.31446 L 200.83914 511.82618 C 200.84971 511.60323 200.85885 511.37595 200.87234 511.23048 C 200.94026 510.95256 201.03233 510.70339 201.14773 510.48243 C 201.22951 510.35583 201.34496 510.18904 201.46218 510.01954 C 201.61027 509.82671 202.09999 509.19635 203.22 507.75391 C 204.22798 506.44727 204.81566 505.70036 204.98367 505.51368 C 205.15166 505.30836 205.31088 505.16846 205.46023 505.09376 C 205.60955 505.01916 205.75815 504.98245 205.9075 504.98243 C 206.07549 504.96343 206.78377 504.95511 208.03445 504.95509 C 209.24777 504.95511 209.93002 504.95511 210.07937 504.95509 C 210.24735 504.93639 210.39596 504.8978 210.52664 504.8418 C 210.76929 504.74849 210.96518 504.59121 211.11453 504.36719 C 211.26383 504.12455 211.33912 503.87269 211.33914 503.61134 C 211.33912 503.29403 211.23586 503.01223 211.03054 502.76954 C 210.89683 502.59939 210.73711 502.47765 210.55593 502.39454 L 210.52273 502.35743 L 210.47781 502.35743 C 210.40424 502.32984 210.32818 502.3092 210.24734 502.29493 C 210.17266 502.27593 209.40644 502.26565 207.95046 502.26563 z M 182.63015 502.27344 C 182.53215 502.26878 182.43638 502.27628 182.34304 502.29493 C 182.08171 502.35095 181.84915 502.48024 181.64382 502.68555 C 181.49449 502.8349 181.39123 502.99414 181.33523 503.16212 C 181.27923 503.31147 181.25125 504.23495 181.25125 505.9336 L 181.25125 508.3711 L 181.33523 508.59376 C 181.39123 508.74311 182.27806 511.0311 183.99539 515.45509 C 185.73138 519.87908 186.6095 522.12843 186.6282 522.20313 C 186.83353 522.6138 187.15003 522.86569 187.57937 522.95899 C 188.02736 523.05232 188.41914 522.94038 188.75515 522.62305 C 188.88581 522.51105 188.9804 522.38849 189.0364 522.25782 C 189.07373 522.20182 189.98853 519.87911 191.78054 515.28712 L 194.46804 508.3711 L 194.46804 508.20509 L 194.48367 508.16602 L 194.46804 507.70118 L 194.46804 505.87891 C 194.46804 504.47894 194.4593 503.69537 194.4407 503.52735 C 194.44069 503.3407 194.40202 503.17084 194.32742 503.02149 C 194.19674 502.74151 193.99217 502.53695 193.71218 502.40626 C 193.37617 502.25696 193.02973 502.23764 192.67507 502.34962 C 192.50706 502.40564 192.33916 502.51757 192.17117 502.68555 C 192.02183 502.8349 191.92053 502.99414 191.86453 503.16212 C 191.80853 503.31147 191.78053 504.151 191.78054 505.68165 L 191.78054 507.86719 L 189.81961 512.87891 C 188.52266 516.19538 187.88589 517.83776 187.87625 517.88087 C 187.86519 517.88172 187.853 517.87584 187.83914 517.86524 C 187.82568 517.83297 187.75144 517.65909 187.57937 517.2461 C 187.41136 516.79811 187.16818 516.19113 186.85086 515.42579 C 186.55219 514.66047 186.23568 513.82094 185.89968 512.90626 L 183.9407 507.89454 L 183.9114 505.62696 C 183.9114 504.35765 183.90276 503.6474 183.88406 503.49805 C 183.88406 503.33007 183.84548 503.17084 183.77078 503.02149 C 183.64011 502.74151 183.44422 502.53695 183.18289 502.40626 C 183.07089 502.36896 182.98693 502.34097 182.93093 502.32227 C 182.82827 502.29427 182.72815 502.27811 182.63015 502.27344 z M 219.54617 502.27344 C 219.44817 502.26878 219.35239 502.27628 219.25906 502.29493 C 218.99773 502.35095 218.76517 502.48024 218.55984 502.68555 C 218.41051 502.8349 218.30725 502.98546 218.25125 503.13477 C 218.19525 503.26546 218.16726 503.66592 218.16726 504.3379 L 218.16726 513.2422 L 218.16726 522.98634 L 224.15945 522.98634 C 228.15411 522.98634 230.18827 522.97769 230.26296 522.95899 C 230.58028 522.90299 230.84082 522.75244 231.04617 522.50977 C 231.25149 522.24844 231.35475 521.95992 231.35476 521.64259 C 231.35475 521.32526 231.25149 521.04541 231.04617 520.80274 C 230.84082 520.54141 230.58028 520.38218 230.26296 520.32618 C 230.18829 520.30718 228.60186 520.29884 225.5032 520.29884 L 220.82742 520.29884 L 220.82742 511.8418 C 220.82742 506.20449 220.81682 503.3501 220.79812 503.2754 C 220.70478 502.99542 220.55619 502.76092 220.35086 502.57423 C 220.20152 502.44358 220.03361 502.35967 219.84695 502.32227 C 219.74428 502.29427 219.64417 502.27811 219.54617 502.27344 z M 234.36062 502.4336 L 234.36062 506.87305 L 234.36062 511.31251 L 236.0989 511.31251 C 237.3149 511.31251 237.9922 511.30135 238.1282 511.27735 C 238.5122 511.20535 238.85545 511.04861 239.15945 510.8086 C 239.29545 510.70461 239.41482 510.58524 239.51882 510.44923 C 239.77482 510.12124 239.93529 509.74433 239.99929 509.32032 C 240.01529 509.24033 240.02273 509.0687 240.02273 508.80469 C 240.02273 508.54071 240.01529 508.36907 239.99929 508.28907 C 239.95129 507.93708 239.83564 507.62181 239.65164 507.3418 C 239.56364 507.20581 239.46286 507.08449 239.35086 506.98048 L 239.24343 506.87305 L 239.35086 506.76563 C 239.73486 506.38964 239.95501 505.92506 240.01101 505.37305 C 240.01901 505.30106 240.02273 505.15742 240.02273 504.94141 C 240.02273 504.72542 240.01901 504.58177 240.01101 504.50977 C 239.97101 504.12578 239.85164 503.78058 239.65164 503.47657 C 239.56364 503.34858 239.46286 503.2292 239.35086 503.11719 C 238.99886 502.75721 238.56421 502.53704 238.04422 502.45704 L 237.93484 502.44532 L 236.14773 502.4336 L 234.36062 502.4336 z M 245.63797 502.4336 C 244.62997 502.4336 244.10198 502.43732 244.05398 502.44532 C 243.66998 502.50133 243.36959 502.6935 243.15359 503.02149 C 243.00959 503.2295 242.93875 503.46453 242.93875 503.72852 C 242.93875 503.98453 243.00587 504.22152 243.14187 504.43751 C 243.16587 504.46952 243.88603 505.39672 245.30203 507.22071 C 246.72602 509.03672 247.43874 509.95276 247.43875 509.96876 C 247.47874 510.04876 247.45448 510.10845 247.36648 510.14844 L 247.32937 510.16212 L 245.86648 510.16212 L 244.38992 510.16212 L 244.34109 510.13673 C 244.22909 510.09674 244.14886 510.02217 244.10086 509.91016 C 244.09286 509.87817 244.08542 509.82963 244.07742 509.76563 C 244.06942 509.59764 244.00973 509.46144 243.89773 509.35743 C 243.78573 509.25343 243.65325 509.20119 243.50125 509.20118 C 243.44525 509.20118 243.39867 509.20862 243.35867 509.22462 C 243.25467 509.24863 243.16504 509.30087 243.09304 509.38087 C 242.96504 509.51688 242.91475 509.69789 242.93875 509.92188 C 242.97875 510.28189 243.12239 510.58972 243.37039 510.84571 C 243.61839 511.10171 243.92622 511.25279 244.29422 511.30079 C 244.35022 511.30879 244.87819 511.31251 245.8782 511.31251 L 247.30593 511.31251 C 247.43392 511.30451 247.54215 511.28963 247.63015 511.26563 C 247.94214 511.18563 248.19028 511.01402 248.37429 510.75001 C 248.55829 510.47802 248.62914 510.18135 248.58914 509.86134 C 248.56513 509.66135 248.498 509.47661 248.38601 509.3086 C 248.362 509.27661 247.64184 508.35312 246.22586 506.53712 C 244.81785 504.72113 244.10514 503.80507 244.08914 503.78907 C 244.06366 503.73175 244.07211 503.68275 244.11257 503.64063 C 244.20972 503.61877 244.40571 503.60047 244.6575 503.58594 L 245.6614 503.58594 L 247.01101 503.58594 C 247.07671 503.59171 247.134 503.59906 247.18093 503.60743 L 247.18484 503.60938 C 247.30483 503.64939 247.38507 503.72591 247.42507 503.8379 C 247.44107 503.87791 247.45046 503.92448 247.45047 503.98048 C 247.46646 504.14049 247.52243 504.27297 247.61843 504.37696 C 247.68242 504.44896 247.76638 504.50121 247.87039 504.53321 C 247.91838 504.54121 247.97064 504.54494 248.02664 504.54493 C 248.17863 504.54494 248.30916 504.49269 248.42117 504.38868 C 248.56517 504.25269 248.62114 504.06619 248.58914 503.82618 C 248.54913 503.46619 248.40549 503.15641 248.1575 502.9004 C 248.01164 502.74985 247.84484 502.63722 247.6575 502.5586 L 247.64578 502.54688 L 247.63211 502.54688 C 247.50819 502.49755 247.37538 502.4638 247.23367 502.44532 C 247.17766 502.43732 246.64595 502.43361 245.63797 502.4336 z M 228.6282 502.43555 C 228.5862 502.43355 228.54515 502.43732 228.50515 502.44532 C 228.39314 502.46933 228.29432 502.52529 228.20632 502.61329 C 228.14232 502.6773 228.09751 502.74069 228.07351 502.80469 C 228.0655 502.8287 227.68488 504.12538 226.93289 506.69337 C 226.18089 509.25337 225.80221 510.55748 225.79421 510.60548 C 225.77021 510.69349 225.77021 510.78115 225.79421 510.86915 C 225.84221 511.06116 225.95787 511.19735 226.14187 511.27735 C 226.32587 511.34935 226.4975 511.3288 226.6575 511.2168 C 226.7615 511.1528 226.83429 511.06514 226.87429 510.95313 C 226.89029 510.92914 226.96857 510.66045 227.11257 510.14844 L 227.34109 509.38087 L 228.60086 509.38087 L 229.87429 509.38087 L 230.08914 510.13673 C 230.24114 510.64074 230.32137 510.90941 230.32937 510.94141 C 230.40136 511.12541 230.53013 511.24107 230.71414 511.28907 C 230.89813 511.33707 231.06231 511.30537 231.20632 511.19337 C 231.35832 511.08137 231.43288 510.92835 231.43289 510.73634 C 231.43289 510.68834 231.42917 510.65291 231.42117 510.62891 C 231.42116 510.60492 231.04249 509.29709 230.2825 506.70509 C 229.53049 504.1131 229.14243 502.79782 229.11843 502.75782 C 229.06242 502.63783 228.97847 502.55015 228.86648 502.49415 L 228.75711 502.45704 C 228.7131 502.44504 228.6702 502.43755 228.6282 502.43555 z M 235.49929 503.58594 L 236.68679 503.58594 L 237.86453 503.58594 L 237.94851 503.60938 C 238.05251 503.63338 238.14762 503.66509 238.23562 503.70509 C 238.35214 503.76335 238.45163 503.8347 238.5364 503.91798 C 238.53929 503.92086 238.54128 503.92286 238.54422 503.92579 C 238.55653 503.9381 238.56588 503.94908 238.57742 503.96094 C 238.71376 504.11104 238.8041 504.29774 238.84695 504.52149 C 238.86295 504.5695 238.87234 504.6926 238.87234 504.89259 C 238.87234 505.1486 238.85923 505.32961 238.83523 505.4336 C 238.77923 505.64961 238.67101 505.83239 238.51101 505.98438 C 238.35901 506.12839 238.17251 506.22544 237.94851 506.27344 L 237.86453 506.29688 L 236.68679 506.29688 L 235.49929 506.29688 L 235.49929 504.94141 L 235.49929 503.58594 z M 228.61257 505.07227 C 228.61256 505.07228 228.7656 505.60027 229.06961 506.65626 L 229.53836 508.22852 L 229.06961 508.22852 C 228.7656 508.22853 228.45777 508.22853 228.14578 508.22852 L 227.67703 508.22852 L 228.14578 506.64454 C 228.22577 506.35655 228.30229 506.09353 228.37429 505.85352 C 228.44629 505.60553 228.50226 505.41336 228.54226 505.27735 C 228.59026 505.13335 228.61256 505.06427 228.61257 505.07227 z M 236.64187 506.22266 C 236.42445 506.22266 236.20525 506.22919 236.04031 506.24219 C 235.71043 506.26821 235.98212 506.29102 236.64187 506.29102 C 237.30163 506.29102 237.57136 506.26821 237.24148 506.24219 C 237.07654 506.22919 236.85929 506.22266 236.64187 506.22266 z M 235.49929 507.44923 L 236.68679 507.44923 L 237.86453 507.44923 L 237.94851 507.46094 C 238.05251 507.48494 238.14762 507.52037 238.23562 507.56837 C 238.57162 507.73638 238.77495 508.00878 238.84695 508.38477 C 238.86295 508.43278 238.87234 508.57271 238.87234 508.80469 C 238.87234 509.0367 238.86295 509.17662 238.84695 509.22462 C 238.83095 509.33663 238.79925 509.44112 238.75125 509.53712 C 238.58325 509.86513 238.31651 510.06845 237.94851 510.14844 L 237.86453 510.16212 L 236.68679 510.16212 L 235.49929 510.16212 L 235.49929 508.80469 L 235.49929 507.44923 z "
     transform="matrix(0.26458333,0,0,0.26458333,-46.60782,-11.88713)" /><rect
     style="fill:#461621;fill-opacity:1;stroke-width:0.152199;stroke-linejoin:round"
     id="wet--outbg"
     width="18.054123"
     height="78.322922"
     x="16.373001"
     y="-285.5979"
     ry="4.7981524"
     transform="matrix(1,0,0,-1,-15.240002,-168.49997)"
     inkscape:label="wet--outbg" /><g
     aria-label="R"
     id="text7108-7-7-2-9"
     style="font-size:2.82222px;font-family:'Ubuntu Sans Mono';-inkscape-font-specification:'Ubuntu Sans Mono, Normal';text-align:center;text-anchor:middle;fill:#ffe6d5;stroke-width:0.2;stroke-linejoin:bevel"
     transform="translate(-28.521451,-157.73277)"><path
       d="m 42.408831,201.0435 v -1.92757 q 0.06209,-0.0198 0.143933,-0.0282 0.08184,-0.0113 0.166511,-0.0141 0.08749,-0.006 0.155222,-0.006 0.352777,0 0.527755,0.15522 0.174978,0.15522 0.174978,0.45438 0,0.18344 -0.104422,0.32173 -0.104422,0.13547 -0.262467,0.21449 0.06209,0.096 0.141111,0.23142 0.08185,0.13547 0.163689,0.29069 0.08467,0.1524 0.155222,0.30762 h -0.239889 q -0.06773,-0.15804 -0.143933,-0.31044 -0.07338,-0.1524 -0.149578,-0.27658 -0.0762,-0.127 -0.143933,-0.2032 -0.01975,0.003 -0.06491,0.006 -0.04516,0 -0.05927,0 h -0.237067 v 0.78457 z m 0.222955,-0.96802 h 0.191911 q 0.155222,0 0.273755,-0.0282 0.118534,-0.031 0.186267,-0.11853 0.06773,-0.0903 0.06773,-0.26529 0,-0.16934 -0.06491,-0.254 -0.06209,-0.0875 -0.163689,-0.11854 -0.1016,-0.031 -0.217311,-0.031 -0.09031,0 -0.169333,0.003 -0.0762,0 -0.104422,0.006 z"
       id="path7481-1-3-3" /></g><g
     aria-label="L "
     id="text7090-73-9-9-1"
     style="font-size:2.82222px;font-family:'Ubuntu Sans Mono';-inkscape-font-specification:'Ubuntu Sans Mono, Normal';text-align:center;text-anchor:middle;fill:#ffe6d5;stroke-width:0.2;stroke-linejoin:bevel"
     transform="translate(-36.587213,-149.53068)"><path
       d="m 42.425059,192.84155 v -1.9558 h 0.220133 v 1.76671 h 0.925688 v 0.18909 z"
       id="path7478-7-3-2" /></g><path
     style="fill:#461621;fill-opacity:1;stroke-width:0.204296;stroke-linejoin:bevel"
     id="dry--outbg"
     width="13.4"
     height="32"
     x="-31.115004"
     y="173.79198"
     inkscape:path-effect="#path-effect565-7-3"
     d="m -29.115004,173.79198 h 5.9 a 5.5,5.5 45 0 1 5.5,5.5 v 24.5 a 2,2 135 0 1 -2,2 h -5.9 a 5.5,5.5 45 0 1 -5.5,-5.5 v -24.5 a 2,2 135 0 1 2,-2 z"
     sodipodi:type="rect"
     transform="matrix(-1,0,0,1,-15.240002,-168.49997)"
     inkscape:label="dry--outbg" /><g
     id="g7961-6-8"
     transform="translate(-38.973837,-169.88604)"><g
       aria-label="L "
       id="text7090-7-2"
       style="font-size:2.82222px;font-family:'Ubuntu Sans Mono';-inkscape-font-specification:'Ubuntu Sans Mono, Normal';text-align:center;text-anchor:middle;fill:#ffe6d5;stroke-width:0.2;stroke-linejoin:bevel"
       transform="translate(0,0.37797616)"><path
         d="m 42.425059,182.52286 v -1.9558 h 0.220133 v 1.76671 h 0.925688 v 0.18909 z"
         id="path7472-8-1" /></g><g
       aria-label="L "
       id="text7090-73-9-9"
       style="font-size:2.82222px;font-family:'Ubuntu Sans Mono';-inkscape-font-specification:'Ubuntu Sans Mono, Normal';text-align:center;text-anchor:middle;fill:#ffe6d5;stroke-width:0.2;stroke-linejoin:bevel"
       transform="translate(0,0.52916667)"><path
         d="m 42.425059,192.84155 v -1.9558 h 0.220133 v 1.76671 h 0.925688 v 0.18909 z"
         id="path7478-7-3" /></g><g
       aria-label="R"
       id="text7108-4-7"
       style="font-size:2.82222px;font-family:'Ubuntu Sans Mono';-inkscape-font-specification:'Ubuntu Sans Mono, Normal';text-align:center;text-anchor:middle;fill:#ffe6d5;stroke-width:0.2;stroke-linejoin:bevel"
       transform="translate(0,0.61421126)"><path
         d="m 42.408831,184.63953 v -1.92758 q 0.06209,-0.0198 0.143933,-0.0282 0.08184,-0.0113 0.166511,-0.0141 0.08749,-0.006 0.155222,-0.006 0.352777,0 0.527755,0.15522 0.174978,0.15523 0.174978,0.45438 0,0.18345 -0.104422,0.32173 -0.104422,0.13547 -0.262467,0.21449 0.06209,0.096 0.141111,0.23143 0.08185,0.13546 0.163689,0.29068 0.08467,0.1524 0.155222,0.30763 h -0.239889 q -0.06773,-0.15805 -0.143933,-0.31045 -0.07338,-0.1524 -0.149578,-0.27658 -0.0762,-0.127 -0.143933,-0.2032 -0.01975,0.003 -0.06491,0.006 -0.04516,0 -0.05927,0 h -0.237067 v 0.78458 z m 0.222955,-0.96803 h 0.191911 q 0.155222,0 0.273755,-0.0282 0.118534,-0.031 0.186267,-0.11853 0.06773,-0.0903 0.06773,-0.26529 0,-0.16933 -0.06491,-0.254 -0.06209,-0.0875 -0.163689,-0.11853 -0.1016,-0.031 -0.217311,-0.031 -0.09031,0 -0.169333,0.003 -0.0762,0 -0.104422,0.006 z"
         id="path7475-7-7" /></g><g
       aria-label="R"
       id="text7108-7-7-2"
       style="font-size:2.82222px;font-family:'Ubuntu Sans Mono';-inkscape-font-specification:'Ubuntu Sans Mono, Normal';text-align:center;text-anchor:middle;fill:#ffe6d5;stroke-width:0.2;stroke-linejoin:bevel"
       transform="translate(0,1.0583333)"><path
         d="m 42.408831,201.0435 v -1.92757 q 0.06209,-0.0198 0.143933,-0.0282 0.08184,-0.0113 0.166511,-0.0141 0.08749,-0.006 0.155222,-0.006 0.352777,0 0.527755,0.15522 0.174978,0.15522 0.174978,0.45438 0,0.18344 -0.104422,0.32173 -0.104422,0.13547 -0.262467,0.21449 0.06209,0.096 0.141111,0.23142 0.08185,0.13547 0.163689,0.29069 0.08467,0.1524 0.155222,0.30762 h -0.239889 q -0.06773,-0.15804 -0.143933,-0.31044 -0.07338,-0.1524 -0.149578,-0.27658 -0.0762,-0.127 -0.143933,-0.2032 -0.01975,0.003 -0.06491,0.006 -0.04516,0 -0.05927,0 h -0.237067 v 0.78457 z m 0.222955,-0.96802 h 0.191911 q 0.155222,0 0.273755,-0.0282 0.118534,-0.031 0.186267,-0.11853 0.06773,-0.0903 0.06773,-0.26529 0,-0.16934 -0.06491,-0.254 -0.06209,-0.0875 -0.163689,-0.11854 -0.1016,-0.031 -0.217311,-0.031 -0.09031,0 -0.169333,0.003 -0.0762,0 -0.104422,0.006 z"
         id="path7481-1-3" /></g></g><g
     aria-label="DRY"
     id="text11035"
     style="font-size:2.82222px;font-family:'Ubuntu Sans Mono';-inkscape-font-specification:'Ubuntu Sans Mono, Normal';text-align:center;text-anchor:middle;fill:#ffe6d5;stroke-width:0.2;stroke-linejoin:bevel"
     transform="translate(-61.587105,-129.15723)"
     inkscape:label="text11035"><path
       d="m 69.718571,137.32022 q -0.09313,0 -0.191911,-0.0141 -0.09878,-0.0113 -0.197556,-0.0339 v -1.89371 q 0.09313,-0.0226 0.186267,-0.0339 0.09313,-0.0141 0.186266,-0.0141 0.254,0 0.4572,0.0988 0.2032,0.096 0.321733,0.31609 0.121356,0.21731 0.121356,0.58138 0,0.36124 -0.115712,0.58137 -0.115711,0.21731 -0.316088,0.31609 -0.200378,0.096 -0.451555,0.096 z m 0.01976,-0.19191 q 0.194733,0 0.335844,-0.0734 0.143934,-0.0762 0.220134,-0.25118 0.07902,-0.1778 0.07902,-0.47695 0,-0.29351 -0.07902,-0.46849 -0.07902,-0.1778 -0.225778,-0.25682 -0.146756,-0.079 -0.3556,-0.079 -0.04515,0 -0.08749,0.003 -0.04233,0 -0.0762,0.006 v 1.58609 q 0.04798,0.006 0.09596,0.008 0.0508,0.003 0.09313,0.003 z"
       id="path11045" /><path
       d="m 70.918013,137.30611 v -1.92758 q 0.06209,-0.0198 0.143933,-0.0282 0.08184,-0.0113 0.166511,-0.0141 0.08749,-0.006 0.155222,-0.006 0.352777,0 0.527755,0.15522 0.174978,0.15523 0.174978,0.45438 0,0.18345 -0.104422,0.32174 -0.104423,0.13546 -0.262467,0.21448 0.06209,0.096 0.141111,0.23143 0.08185,0.13546 0.163689,0.29068 0.08467,0.1524 0.155222,0.30763 h -0.239889 q -0.06773,-0.15805 -0.143933,-0.31045 -0.07338,-0.1524 -0.149578,-0.27658 -0.0762,-0.127 -0.143933,-0.2032 -0.01976,0.003 -0.06491,0.006 -0.04516,0 -0.05927,0 h -0.237066 v 0.78458 z m 0.222955,-0.96802 h 0.191911 q 0.155222,0 0.273755,-0.0282 0.118534,-0.031 0.186267,-0.11853 0.06773,-0.0903 0.06773,-0.26529 0,-0.16933 -0.06491,-0.254 -0.06209,-0.0875 -0.163689,-0.11853 -0.1016,-0.031 -0.217311,-0.031 -0.09031,0 -0.169333,0.003 -0.0762,0 -0.104422,0.006 z"
       id="path11047" /><path
       d="m 73.003632,137.30611 v -0.72531 q -0.197556,-0.31609 -0.364067,-0.62089 -0.163688,-0.3048 -0.276577,-0.6096 h 0.254 q 0.09313,0.27375 0.220133,0.51929 0.129822,0.24271 0.276577,0.51929 0.08467,-0.1524 0.155222,-0.28223 0.07056,-0.13264 0.129823,-0.254 0.06209,-0.12417 0.112888,-0.24553 0.05362,-0.12418 0.104422,-0.25682 h 0.248356 q -0.07902,0.20038 -0.180622,0.40075 -0.09878,0.19756 -0.214489,0.40358 -0.115711,0.2032 -0.245533,0.42051 v 0.73096 z"
       id="path11049" /></g><g
     aria-label="WET"
     id="text11039"
     style="font-size:2.82223px;font-family:'Ubuntu Sans Mono';-inkscape-font-specification:'Ubuntu Sans Mono, Normal';text-align:center;text-anchor:middle;fill:#ffe6d5;stroke-width:0.2;stroke-linejoin:bevel"
     transform="translate(-61.28675,-100.86785)"><path
       d="m 69.494192,142.59766 q -0.03669,-0.25118 -0.06491,-0.56727 -0.0254,-0.31891 -0.04516,-0.67451 -0.01693,-0.35561 -0.03387,-0.71403 h 0.220134 q 0.01129,0.27658 0.01976,0.55034 0.0085,0.27375 0.01693,0.55315 0.0085,0.27658 0.01693,0.56445 0.03669,-0.11571 0.07056,-0.22296 0.03669,-0.11006 0.07056,-0.22013 0.03669,-0.11007 0.07338,-0.22578 0.03951,-0.11571 0.08185,-0.24271 h 0.208845 q 0.09031,0.254 0.16369,0.47696 0.07338,0.22013 0.146756,0.43462 0.0085,-0.28787 0.01693,-0.56445 0.0085,-0.2794 0.01693,-0.55315 0.0085,-0.27376 0.01693,-0.55034 h 0.220134 q -0.01411,0.36125 -0.03951,0.71685 -0.02258,0.35278 -0.0508,0.67169 -0.02822,0.31609 -0.06491,0.56727 h -0.21449 q -0.07902,-0.25965 -0.158044,-0.50518 -0.07902,-0.24554 -0.158045,-0.49954 -0.0508,0.16934 -0.104423,0.33585 -0.0508,0.16651 -0.1016,0.33302 -0.0508,0.16369 -0.104423,0.33585 z"
       id="path11052" /><path
       d="m 71.133907,142.59766 v -1.95581 h 1.072447 v 0.18909 h -0.849491 v 0.64911 h 0.745068 v 0.18909 h -0.745068 v 0.73943 h 0.917225 v 0.18909 z"
       id="path11054" /><path
       d="m 73.081244,142.59766 v -1.76672 h -0.541868 v -0.18909 h 1.30387 v 0.18909 h -0.541868 v 1.76672 z"
       id="path11056" /></g><path
     id="out--logopale"
     d="M 18.239819 169.67354 C 18.212299 169.67354 18.191027 169.67538 18.17574 169.67871 L 18.17574 169.67819 C 18.135995 169.68433 18.099303 169.69338 18.065669 169.70558 C 18.001461 169.72391 17.943493 169.75477 17.89152 169.79757 C 17.839542 169.83734 17.794881 169.88626 17.758195 169.94433 C 17.749022 169.95961 17.660735 170.13352 17.492578 170.46678 C 17.327479 170.79697 17.240268 170.97458 17.231095 170.99904 C 17.225002 171.01438 17.218625 171.03135 17.212491 171.04969 C 17.209451 171.06495 17.205189 171.08148 17.199056 171.09981 C 17.192949 171.11508 17.18817 171.13212 17.185103 171.15045 C 17.182036 171.16579 17.178868 171.18225 17.175801 171.20058 L 17.166499 171.25587 C 17.163433 171.26814 17.161849 171.28512 17.161849 171.30652 L 17.161849 171.3706 L 17.161849 171.43467 C 17.161849 171.45607 17.163433 171.47312 17.166499 171.48532 C 17.178726 171.57704 17.200522 171.66214 17.231095 171.74163 C 17.240267 171.76609 17.326961 171.94529 17.492061 172.27855 C 17.660217 172.60877 17.749021 172.7816 17.758195 172.79687 C 17.816285 172.89164 17.894452 172.96184 17.992289 173.00771 C 18.065667 173.04411 18.14224 173.0638 18.221732 173.06713 C 18.301225 173.0702 18.377281 173.05639 18.450659 173.02579 C 18.527091 172.9952 18.59462 172.95105 18.652714 172.89298 C 18.683287 172.85933 18.709345 172.82423 18.730745 172.78756 C 18.733812 172.78436 18.736463 172.77961 18.73953 172.77361 C 18.74563 172.76441 18.752 172.75219 18.758134 172.73692 C 18.764247 172.72159 18.771698 172.70461 18.780871 172.68628 C 18.793104 172.66794 18.805335 172.64667 18.817561 172.6222 C 18.829795 172.59773 18.842025 172.5717 18.854252 172.54417 C 18.869538 172.5167 18.884957 172.48795 18.900244 172.45735 C 18.91553 172.42682 18.930949 172.39597 18.946236 172.36537 C 18.961522 172.33177 18.978015 172.29826 18.996362 172.2646 C 19.124772 172.00775 19.201345 171.85193 19.225805 171.79693 C 19.253325 171.73882 19.273006 171.6899 19.285233 171.65017 C 19.315826 171.54621 19.328057 171.4404 19.321923 171.33339 C 19.318863 171.22638 19.299182 171.12108 19.262495 171.01713 C 19.250266 170.98961 19.161462 170.81093 18.996362 170.48073 C 18.831265 170.14746 18.742978 169.97144 18.730745 169.95311 C 18.706285 169.91028 18.675448 169.87199 18.638761 169.83839 C 18.602075 169.80172 18.562195 169.77297 18.519388 169.75157 C 18.479644 169.72711 18.4355 169.70848 18.38658 169.69628 C 18.337663 169.68101 18.288739 169.67354 18.239819 169.67354 z M 24.363476 169.85854 C 24.350864 169.85864 24.338365 169.85991 24.325752 169.86216 L 24.325752 169.86268 C 24.255431 169.87797 24.204914 169.91785 24.17434 169.98205 C 24.16212 170.00652 24.154669 170.03096 24.151603 170.05543 L 24.151603 170.32105 L 24.151603 170.59648 L 24.022928 170.60113 C 23.940382 170.60113 23.893052 170.60297 23.880818 170.6063 C 23.831899 170.62157 23.792019 170.64925 23.761446 170.68898 C 23.733932 170.72566 23.720621 170.76821 23.720621 170.81714 C 23.720621 170.85074 23.726475 170.88318 23.738708 170.91378 C 23.750935 170.94131 23.769542 170.96576 23.794002 170.98716 C 23.818462 171.00556 23.847185 171.02043 23.880818 171.03263 C 23.893048 171.03597 23.940379 171.0378 24.022928 171.0378 L 24.151603 171.0378 L 24.151603 171.74887 L 24.151603 172.36795 C 24.151603 172.43522 24.153187 172.47778 24.156254 172.49611 C 24.165427 172.5695 24.185108 172.63861 24.215682 172.70281 C 24.246254 172.76394 24.286134 172.82031 24.335054 172.87231 C 24.38397 172.92119 24.437158 172.96267 24.495251 172.99634 C 24.556399 173.02694 24.622334 173.04822 24.692655 173.06042 L 24.729345 173.0692 L 24.995479 173.0692 L 25.256962 173.0692 C 25.290592 173.066 25.324097 173.06176 25.357731 173.05576 C 25.406647 173.04656 25.455572 173.03117 25.504492 173.00977 C 25.556467 172.98537 25.602204 172.95611 25.641951 172.92244 C 25.776476 172.81543 25.856236 172.67822 25.880696 172.51006 C 25.889869 172.45199 25.874451 172.39828 25.834704 172.34935 C 25.798014 172.30048 25.74909 172.27121 25.687943 172.26201 C 25.611509 172.25288 25.548761 172.27733 25.499841 172.33539 C 25.493748 172.34159 25.487371 172.348 25.481237 172.354 C 25.478171 172.36006 25.475519 172.36754 25.472452 172.37674 C 25.469412 172.3828 25.464633 172.39027 25.4585 172.39947 C 25.455433 172.40861 25.452265 172.41818 25.449198 172.42738 C 25.449198 172.43658 25.447614 172.44722 25.444547 172.45942 C 25.426205 172.52665 25.387919 172.57558 25.329825 172.60618 C 25.305365 172.61811 25.282496 172.62558 25.261096 172.62892 L 25.013566 172.62892 L 24.761385 172.62892 L 24.733996 172.62013 C 24.709536 172.61093 24.686666 172.59871 24.665266 172.58344 C 24.634693 172.55898 24.612904 172.52496 24.600671 172.48216 L 24.591886 172.45942 L 24.591886 171.74887 L 24.587235 171.0378 L 25.036303 171.0378 L 25.485888 171.0378 L 25.504492 171.03263 C 25.5687 171.01119 25.614438 170.97291 25.641951 170.91791 C 25.657238 170.88732 25.664689 170.85381 25.664689 170.81714 C 25.664689 170.79567 25.663104 170.7787 25.660038 170.7665 C 25.656978 170.75423 25.651124 170.73936 25.641951 170.72102 C 25.614436 170.66599 25.568698 170.6277 25.504492 170.6063 L 25.485888 170.60113 L 25.036303 170.60113 L 24.587235 170.59597 L 24.587235 170.32105 C 24.587235 170.16511 24.585651 170.07631 24.582584 170.05491 C 24.582584 170.03045 24.576207 170.006 24.563981 169.98153 C 24.542581 169.93873 24.510669 169.90682 24.467863 169.88542 L 24.426521 169.86681 C 24.405503 169.86098 24.384496 169.85839 24.363476 169.85854 z M 18.238785 170.11434 C 18.25025 170.11434 18.261158 170.11599 18.271858 170.11899 C 18.284085 170.12219 18.294724 170.12695 18.303898 170.13295 C 18.316124 170.13901 18.326764 170.14648 18.335937 170.15568 C 18.345109 170.16486 18.395627 170.26111 18.487349 170.44455 C 18.579072 170.63106 18.662019 170.79592 18.735396 170.93961 C 18.808772 171.08331 18.849729 171.16785 18.858903 171.19231 C 18.871116 171.23817 18.880158 171.2839 18.886291 171.32977 C 18.892404 171.40315 18.883363 171.47653 18.858903 171.54991 C 18.849731 171.57437 18.808774 171.65839 18.735396 171.80209 C 18.665076 171.94579 18.582129 172.11065 18.487349 172.29715 C 18.395628 172.48063 18.34511 172.57848 18.335937 172.59068 C 18.299247 172.62428 18.25829 172.63492 18.21243 172.62272 C 18.203257 172.62272 18.194215 172.6214 18.185042 172.61806 C 18.178949 172.6154 18.172572 172.6121 18.166438 172.60876 C 18.160338 172.60256 18.154485 172.59668 18.148352 172.59068 C 18.13918 172.57845 18.053562 172.4104 17.89152 172.08631 C 17.729496 171.76222 17.644955 171.59098 17.638822 171.57265 C 17.623555 171.53901 17.612916 171.50073 17.606783 171.45793 C 17.603716 171.44573 17.602132 171.42869 17.602132 171.40729 L 17.602132 171.33856 C 17.602132 171.31409 17.603716 171.29598 17.606783 171.28378 C 17.609823 171.26545 17.614602 171.24523 17.620735 171.22383 C 17.626829 171.20243 17.632689 171.18432 17.638822 171.16906 C 17.644937 171.15071 17.727884 170.97948 17.886869 170.65539 C 18.048914 170.33134 18.136125 170.16488 18.148352 170.15568 C 18.163638 170.13722 18.181729 170.12499 18.203129 170.11899 C 18.215359 170.11599 18.22732 170.11434 18.238785 170.11434 z M 20.656726 170.597 C 20.645547 170.59709 20.635006 170.59837 20.624686 170.60062 C 20.545193 170.6159 20.490412 170.65897 20.459838 170.72929 C 20.447612 170.75682 20.441235 170.79033 20.441235 170.83006 L 20.496529 172.48112 C 20.514873 172.63094 20.576028 172.7607 20.67998 172.87076 C 20.777817 172.97164 20.901204 173.03598 21.051017 173.06352 C 21.069361 173.06685 21.135297 173.06817 21.248421 173.06817 C 21.364605 173.06817 21.436398 173.06685 21.463912 173.06352 C 21.509774 173.05738 21.555511 173.04674 21.601371 173.03148 C 21.653347 173.01619 21.768207 172.95185 21.945536 172.83872 L 22.165677 172.69661 L 22.165677 172.78808 C 22.168737 172.85839 22.174591 172.90572 22.183764 172.93019 C 22.189878 172.94852 22.202108 172.96874 22.220454 172.99014 C 22.238794 173.01154 22.257402 173.02693 22.275748 173.03613 C 22.291035 173.04539 22.308045 173.05286 22.326391 173.05886 C 22.344731 173.06486 22.362822 173.06765 22.381168 173.06765 C 22.402568 173.06765 22.422249 173.06486 22.440596 173.05886 C 22.486458 173.04966 22.524744 173.02522 22.555318 172.98548 C 22.573658 172.96408 22.589076 172.9364 22.60131 172.9028 L 22.60131 172.74261 C 22.604376 172.64171 22.605961 172.34339 22.605961 171.84809 C 22.605961 171.15404 22.604376 170.79933 22.60131 170.78407 C 22.59825 170.75654 22.589208 170.7305 22.573921 170.70604 C 22.555581 170.67237 22.529523 170.64634 22.49589 170.62801 C 22.453088 170.60367 22.40735 170.59462 22.358431 170.60062 C 22.346204 170.60382 22.332376 170.60857 22.317089 170.61457 C 22.301796 170.61777 22.287975 170.62201 22.275748 170.62801 C 22.242122 170.64641 22.216063 170.67244 22.197717 170.70604 C 22.19465 170.70904 22.191482 170.71544 22.188415 170.72464 C 22.185348 170.73084 22.18218 170.73673 22.179113 170.74273 C 22.173007 170.76411 22.168744 170.8008 22.165677 170.8528 L 22.165677 171.48583 L 22.165677 172.17365 L 21.835465 172.38914 C 21.615332 172.5299 21.497285 172.60328 21.481998 172.60928 C 21.463658 172.61815 21.445568 172.62455 21.427221 172.62788 L 21.266508 172.62788 L 21.106311 172.62788 L 21.078922 172.61858 C 20.999429 172.59106 20.951582 172.53787 20.936295 172.45838 C 20.936295 172.44921 20.933643 172.38647 20.92751 172.27028 C 20.92445 172.1541 20.916482 171.93394 20.904256 171.60986 C 20.885922 171.06256 20.875283 170.78125 20.872216 170.76598 C 20.859983 170.72625 20.840302 170.69275 20.812788 170.66521 C 20.785268 170.63768 20.75284 170.61747 20.716154 170.60527 C 20.695137 170.59943 20.675357 170.59684 20.656726 170.597 z "
     style="font-size:4.58611px;font-family:OCRA;-inkscape-font-specification:'OCRA, Normal';text-align:center;text-anchor:middle;fill:#855560;stroke-width:0.2;stroke-linejoin:bevel"
     transform="translate(-15.240002,-168.49997)" /><path
     id="polyaux8--logodark"
     d="M 22.561002 286.53204 C 22.41615 286.53204 22.340843 286.53314 22.335176 286.53514 L 22.335176 286.53463 C 22.308836 286.53843 22.285073 286.54942 22.264379 286.56822 C 22.243706 286.58702 22.230772 286.60958 22.225105 286.63591 C 22.219439 286.65844 22.219439 286.68101 22.225105 286.70361 C 22.232632 286.72621 22.243642 286.7461 22.258695 286.76304 C 22.275628 286.7803 22.296247 286.79181 22.320707 286.79714 L 22.332076 286.80283 L 22.476253 286.80283 L 22.619913 286.80283 L 22.619913 287.57642 L 22.619913 288.3495 L 22.476253 288.3495 L 22.332076 288.3526 L 22.320707 288.3557 C 22.30566 288.3595 22.292022 288.36594 22.278849 288.37534 C 22.267562 288.38287 22.256733 288.3925 22.247326 288.40376 C 22.23982 288.41503 22.233356 288.42797 22.227689 288.44304 C 22.223956 288.45617 22.222005 288.47034 22.222005 288.48541 C 22.222005 288.51554 22.23091 288.54259 22.247843 288.56706 C 22.266656 288.59153 22.291117 288.60759 22.321224 288.61512 L 22.335176 288.62132 L 22.752722 288.62132 L 23.173368 288.62132 L 23.187321 288.61512 C 23.206134 288.60945 23.22291 288.60106 23.237963 288.5898 C 23.253017 288.57666 23.264543 288.56177 23.27207 288.54484 C 23.281477 288.52791 23.286023 288.50801 23.286023 288.48541 C 23.286023 288.46281 23.281477 288.44292 23.27207 288.42598 C 23.264543 288.40905 23.253017 288.39488 23.237963 288.38361 C 23.22291 288.37014 23.206134 288.36104 23.187321 288.3557 L 23.175952 288.3526 L 23.032291 288.3495 L 22.888114 288.3495 L 22.888114 287.49736 C 22.888114 286.92916 22.887397 286.64138 22.88553 286.63384 C 22.874237 286.59431 22.85048 286.56479 22.814733 286.54599 C 22.8128 286.54599 22.810199 286.54541 22.806465 286.54341 C 22.793295 286.53808 22.727594 286.53514 22.609061 286.53514 C 22.588361 286.53314 22.572289 286.53204 22.561002 286.53204 z M 32.847713 286.53204 C 32.732945 286.53204 32.655716 286.53314 32.616202 286.53514 L 32.554191 286.53514 L 32.554191 286.53463 C 32.544784 286.53596 32.535175 286.53889 32.525769 286.54289 C 32.518242 286.54696 32.510558 286.55151 32.503031 286.55685 C 32.497384 286.56058 32.490921 286.56637 32.483394 286.5739 C 32.468367 286.58897 32.458055 286.60379 32.452388 286.61886 C 32.446721 286.63199 32.443603 286.65455 32.443603 286.68655 L 32.443603 287.04777 L 32.443603 287.44051 L 32.427067 287.44051 C 32.389437 287.44431 32.353446 287.4553 32.31958 287.4741 C 32.287593 287.49104 32.25929 287.51483 32.23483 287.5449 C 32.21225 287.57503 32.196178 287.60787 32.186771 287.6436 C 32.181105 287.66618 32.178503 287.79496 32.178503 288.03014 C 32.178503 288.2653 32.181105 288.39408 32.186771 288.41668 C 32.196178 288.45429 32.213471 288.48907 32.237931 288.52107 C 32.27932 288.56807 32.332087 288.59902 32.396061 288.61409 L 32.412597 288.62029 L 32.833243 288.62029 C 33.113584 288.62029 33.258436 288.61919 33.267842 288.61719 C 33.281015 288.61719 33.293246 288.61609 33.304532 288.61409 C 33.315819 288.61055 33.326132 288.60723 33.335538 288.60323 C 33.346825 288.5973 33.357137 288.59151 33.366544 288.58618 C 33.377831 288.58025 33.388143 288.57446 33.39755 288.56913 C 33.406957 288.56159 33.415862 288.55392 33.423388 288.54639 C 33.432795 288.53886 33.441183 288.53047 33.44871 288.52107 C 33.476936 288.48718 33.49563 288.44786 33.505037 288.40273 L 33.510721 288.38568 L 33.510721 288.04151 C 33.510721 287.80259 33.507603 287.67189 33.501936 287.64929 C 33.49817 287.63049 33.491706 287.61248 33.482299 287.59554 C 33.474779 287.57674 33.464467 287.55997 33.451294 287.5449 C 33.440007 287.5299 33.427073 287.51573 33.412019 287.50253 C 33.396966 287.48939 33.379673 287.47905 33.36086 287.47152 C 33.343926 287.46179 33.32593 287.45412 33.307116 287.44878 C 33.284543 287.44345 33.265842 287.44103 33.250789 287.44103 L 33.242521 287.44103 L 33.242521 287.04312 C 33.242521 286.81924 33.241287 286.695 33.23942 286.67053 C 33.23942 286.6442 33.236095 286.62359 33.228568 286.60852 C 33.224775 286.60066 33.220933 286.5937 33.217199 286.58837 C 33.213459 286.58297 33.208397 286.57842 33.20273 286.57442 C 33.19897 286.56902 33.19372 286.56446 33.186193 286.56046 C 33.180573 286.55506 33.174807 286.54999 33.16914 286.54599 L 33.160355 286.54341 C 33.149067 286.53808 33.068511 286.53514 32.917993 286.53514 L 32.912308 286.53514 L 32.909208 286.53514 L 32.906624 286.53514 L 32.90404 286.53204 L 32.900939 286.53204 L 32.898356 286.53204 L 32.895255 286.53204 L 32.892671 286.53204 L 32.890087 286.53204 L 32.886987 286.53204 L 32.884403 286.53204 L 32.881302 286.53204 L 32.878719 286.53204 L 32.875618 286.53204 L 32.873034 286.53204 L 32.87045 286.53204 L 32.86735 286.53204 L 32.864766 286.53204 L 32.861665 286.53204 L 32.859082 286.53204 L 32.853397 286.53204 L 32.850813 286.53204 L 32.847713 286.53204 z M 18.053784 286.53256 L 18.053784 287.51441 L 18.053784 287.51493 L 18.053784 288.41513 C 18.053784 288.48095 18.056385 288.52027 18.062052 288.53347 C 18.067699 288.54854 18.078005 288.5646 18.093058 288.58153 C 18.098731 288.58693 18.103794 288.59148 18.107527 288.59548 C 18.113147 288.59902 18.118914 288.60285 18.12458 288.60685 C 18.1302 288.60885 18.13545 288.61105 18.141117 288.61305 C 18.176867 288.62599 18.212857 288.62378 18.248604 288.60685 C 18.274951 288.59365 18.294865 288.57304 18.308032 288.54484 C 18.315558 288.52977 18.318884 288.51176 18.318884 288.4911 C 18.320751 288.46852 18.321984 288.36036 18.321984 288.16657 L 18.321984 287.8255 L 18.663566 287.8255 C 18.889345 287.8255 19.011655 287.8244 19.030468 287.8224 C 19.122659 287.81113 19.201293 287.77251 19.267146 287.70665 C 19.333 287.63891 19.371615 287.55784 19.382902 287.46377 L 19.382902 287.39607 C 19.384768 287.35655 19.386002 287.31076 19.386002 287.2581 L 19.386002 287.09997 C 19.386002 287.04726 19.384768 287.00217 19.382902 286.96457 L 19.382902 286.89378 C 19.377255 286.83924 19.360479 286.7884 19.332259 286.74133 C 19.304036 286.69241 19.268045 286.65117 19.224772 286.61731 C 19.181495 286.58344 19.132571 286.55964 19.078011 286.54651 C 19.053551 286.53898 19.024544 286.53514 18.990677 286.53514 C 18.958692 286.53514 18.807375 286.53456 18.536442 286.53256 L 18.053784 286.53256 z M 26.787618 286.53256 C 26.780297 286.53265 26.772968 286.53364 26.765913 286.53514 L 26.765913 286.53618 C 26.75086 286.54024 26.737926 286.5448 26.726639 286.55013 C 26.717233 286.5558 26.70692 286.5647 26.695634 286.57597 C 26.680607 286.59103 26.670294 286.60586 26.664628 286.62093 C 26.662746 286.62657 26.573286 286.93165 26.396427 287.5356 C 26.219553 288.1377 26.130093 288.44417 26.128226 288.45544 C 26.12256 288.47617 26.12256 288.49678 26.128226 288.51745 C 26.139513 288.56265 26.167119 288.59477 26.210392 288.61357 C 26.253668 288.6305 26.293688 288.62595 26.331315 288.59962 C 26.355775 288.58455 26.373068 288.56342 26.382474 288.53709 C 26.384341 288.53709 26.385058 288.5365 26.385058 288.5345 C 26.385058 288.53097 26.385775 288.52713 26.387642 288.52313 C 26.389509 288.51907 26.39146 288.514 26.393326 288.50867 C 26.395193 288.503 26.397144 288.49656 26.399011 288.48903 L 26.404695 288.46629 C 26.406562 288.45876 26.408513 288.45037 26.41038 288.44097 C 26.41418 288.43157 26.416781 288.42246 26.418648 288.41306 C 26.422441 288.4018 26.426283 288.39146 26.430017 288.38206 C 26.433817 288.37072 26.436935 288.35922 26.438802 288.34795 L 26.492028 288.1676 L 26.788651 288.1676 L 27.087858 288.1676 L 27.138501 288.34537 C 27.17426 288.46389 27.192961 288.52697 27.194828 288.5345 C 27.211761 288.57777 27.241988 288.60489 27.285262 288.61615 C 27.313482 288.62355 27.34057 288.62245 27.36691 288.61305 C 27.39325 288.60365 27.414386 288.58759 27.429439 288.56499 C 27.446372 288.54246 27.45476 288.51606 27.45476 288.48593 C 27.45476 288.47433 27.453526 288.46594 27.45166 288.46061 C 27.45166 288.45497 27.362199 288.14726 27.183459 287.53767 C 27.006622 286.92806 26.915757 286.61896 26.910091 286.60956 C 26.896917 286.58129 26.877003 286.56016 26.850663 286.54703 C 26.845043 286.54503 26.839276 286.54334 26.83361 286.54134 C 26.82981 286.53934 26.827208 286.53824 26.825341 286.53824 C 26.812404 286.53449 26.799818 286.5324 26.787618 286.53256 z M 18.321984 286.80334 L 18.663566 286.80334 C 18.891202 286.80334 19.007748 286.80393 19.013415 286.80593 L 19.013415 286.80541 C 19.064215 286.82048 19.09636 286.8526 19.109533 286.90153 L 19.114701 286.91548 L 19.114701 287.178 L 19.114701 287.23743 C 19.114701 287.38039 19.111376 287.45832 19.103849 287.47152 C 19.103849 287.47352 19.102615 287.47572 19.100748 287.47772 C 19.087575 287.50592 19.066957 287.52653 19.038737 287.53973 C 19.02369 287.54713 19.004989 287.55169 18.982409 287.55369 L 18.663566 287.55369 L 18.321984 287.55369 L 18.321984 287.17851 L 18.321984 286.80334 z M 32.712321 286.80334 L 32.842028 286.80334 L 32.974837 286.80334 L 32.974837 287.12219 L 32.974837 287.44103 L 32.842028 287.44103 L 32.712321 287.44103 L 32.712321 287.12219 L 32.712321 286.80334 z M 28.275899 287.09997 C 28.26902 287.10006 28.262612 287.10105 28.256262 287.10255 L 28.255745 287.1041 C 28.206825 287.1135 28.173273 287.1399 28.154459 287.18316 C 28.146933 287.2001 28.14309 287.22071 28.14309 287.24518 L 28.177197 288.26114 C 28.188482 288.35333 28.225878 288.43318 28.289851 288.50091 C 28.350059 288.56301 28.426069 288.60284 28.518261 288.61977 C 28.529551 288.62177 28.570086 288.62235 28.639701 288.62235 C 28.711197 288.62235 28.755576 288.62177 28.772509 288.61977 C 28.800736 288.61597 28.829039 288.60902 28.857259 288.59962 C 28.889243 288.59021 28.959489 288.55089 29.068615 288.48128 L 29.204008 288.39394 L 29.204008 288.45027 C 29.205868 288.49354 29.20971 288.52254 29.215376 288.5376 C 29.219143 288.54894 29.226827 288.56116 29.238114 288.57429 C 29.249407 288.58776 29.260934 288.59738 29.27222 288.60272 C 29.281634 288.60812 29.29194 288.61267 29.303226 288.61667 C 29.31452 288.62067 29.325529 288.62287 29.336816 288.62287 C 29.349989 288.62287 29.36222 288.62067 29.373506 288.61667 C 29.401733 288.61107 29.42549 288.59618 29.444303 288.57171 C 29.45559 288.55851 29.464682 288.54122 29.472208 288.52055 L 29.472208 288.42185 C 29.474075 288.35976 29.475309 288.17629 29.475309 287.8715 C 29.475309 287.44439 29.474075 287.22615 29.472208 287.21675 C 29.470328 287.19982 29.465078 287.18376 29.455672 287.1687 C 29.444378 287.14796 29.428306 287.1319 29.407613 287.12064 C 29.381273 287.10537 29.35297 287.1001 29.322863 287.1041 C 29.315337 287.10543 29.306949 287.10785 29.297542 287.11185 C 29.288135 287.11318 29.279747 287.11612 29.27222 287.12012 C 29.25152 287.13145 29.235448 287.14751 29.224161 287.16818 C 29.222295 287.17038 29.220344 287.1737 29.218477 287.17903 C 29.21661 287.18256 29.214659 287.1864 29.212793 287.1904 C 29.208993 287.20353 29.206391 287.2261 29.204524 287.2581 L 29.204524 287.64774 L 29.204524 288.07097 L 29.000919 288.20377 C 28.865452 288.29009 28.793285 288.33517 28.783878 288.33917 C 28.772585 288.3447 28.761058 288.34854 28.749772 288.35054 L 28.65107 288.35054 L 28.552368 288.35054 L 28.535314 288.34433 C 28.486395 288.3274 28.457388 288.29457 28.447981 288.24563 C 28.447981 288.23999 28.44603 288.20138 28.442297 288.12988 C 28.440417 288.05838 28.435871 287.92314 28.428344 287.7237 C 28.417044 287.38691 28.410574 287.21375 28.408707 287.20435 C 28.401181 287.17989 28.38895 287.15927 28.372017 287.14234 C 28.355084 287.12541 28.335169 287.11318 28.312589 287.10565 C 28.299656 287.1019 28.287363 287.09981 28.275899 287.09997 z M 24.24152 287.10048 C 24.233641 287.10045 24.225745 287.10122 24.217749 287.10255 L 24.217749 287.101 C 24.202695 287.10507 24.189244 287.10962 24.177958 287.11495 C 24.168551 287.12062 24.158239 287.12901 24.146952 287.14027 C 24.131925 287.15534 24.121613 287.1714 24.115946 287.18833 C 24.110279 287.20339 24.107678 287.25737 24.107678 287.34956 C 24.107678 287.43614 24.110279 287.48961 24.115946 287.51028 C 24.117827 287.51592 24.152599 287.59577 24.220332 287.75006 C 24.288064 287.90246 24.354984 288.055 24.420837 288.20739 C 24.48857 288.35968 24.522123 288.4369 24.522123 288.4389 C 24.533416 288.45964 24.549489 288.47569 24.570182 288.48696 C 24.592755 288.50016 24.624203 288.5066 24.663716 288.5066 L 24.697306 288.5066 L 24.694722 288.5128 C 24.694722 288.51653 24.692771 288.5218 24.689038 288.52934 C 24.685244 288.535 24.681402 288.54267 24.677669 288.55207 C 24.673929 288.56154 24.669383 288.57305 24.663716 288.58618 C 24.659956 288.59745 24.65419 288.60967 24.646663 288.62287 C 24.641016 288.636 24.634553 288.64966 24.627026 288.66473 C 24.621386 288.67979 24.614399 288.69585 24.606872 288.71279 L 24.519539 288.91639 L 24.367093 288.91639 C 24.267376 288.91839 24.213906 288.92008 24.20638 288.92208 C 24.176273 288.93148 24.151813 288.94754 24.132999 288.97014 C 24.116066 288.99454 24.107678 289.02165 24.107678 289.05178 C 24.107678 289.08372 24.116066 289.11135 24.132999 289.13395 C 24.151813 289.15842 24.176273 289.17519 24.20638 289.18459 L 24.217749 289.18769 L 24.415153 289.18769 C 24.558143 289.18769 24.637294 289.18476 24.652347 289.17943 C 24.665521 289.17563 24.678455 289.16847 24.691621 289.1572 C 24.704795 289.14587 24.715101 289.13436 24.722627 289.1231 L 25.428527 287.51699 C 25.436054 287.49818 25.439896 287.44279 25.439896 287.3506 C 25.439896 287.25842 25.436778 287.20495 25.431111 287.18988 C 25.427371 287.18015 25.422825 287.17248 25.417159 287.16715 C 25.413392 287.15961 25.406928 287.15122 25.397522 287.14182 C 25.382468 287.12676 25.366396 287.11525 25.349462 287.10772 C 25.319362 287.09832 25.289135 287.09832 25.259029 287.10772 C 25.242095 287.11525 25.225319 287.12676 25.208386 287.14182 C 25.193352 287.15689 25.183047 287.17295 25.17738 287.18988 C 25.17358 287.20122 25.170462 287.21344 25.168595 287.22657 L 25.168595 287.33096 L 25.168595 287.43535 L 24.993929 287.83636 L 24.818745 288.23685 L 24.773787 288.23685 L 24.728312 288.23685 L 24.553645 287.83636 L 24.375362 287.43535 L 24.375362 287.33096 L 24.375362 287.22657 C 24.375362 287.21337 24.37276 287.20115 24.367093 287.18988 C 24.36516 287.18208 24.362559 287.17558 24.358825 287.17025 C 24.355059 287.16271 24.347374 287.15309 24.336088 287.14182 C 24.324821 287.13076 24.316433 287.1236 24.310766 287.1196 C 24.288191 287.10715 24.265156 287.1006 24.24152 287.10048 z M 30.302132 287.10152 C 30.255092 287.10905 30.221539 287.1335 30.200846 287.1749 L 30.189477 287.22606 C 30.18571 287.25052 30.191477 287.27497 30.20653 287.29944 C 30.20841 287.3051 30.22589 287.32955 30.259757 287.37282 C 30.295505 287.41421 30.352115 287.48183 30.429256 287.57591 C 30.576011 287.75265 30.649397 287.84211 30.649397 287.84411 L 30.420988 288.12058 C 30.268558 288.30307 30.19011 288.39778 30.186377 288.40531 C 30.17887 288.41471 30.172406 288.42505 30.166739 288.43632 C 30.162939 288.44765 30.160338 288.45916 30.158471 288.47042 C 30.158471 288.48169 30.159188 288.49392 30.161055 288.50712 C 30.162915 288.51845 30.166757 288.52995 30.172424 288.54122 C 30.191237 288.58262 30.222168 288.60779 30.265441 288.61719 C 30.310597 288.62665 30.350431 288.61631 30.384297 288.58618 C 30.389941 288.58054 30.461407 288.49422 30.598754 288.32676 C 30.737962 288.15932 30.810129 288.07178 30.815795 288.06425 L 30.827164 288.05598 L 31.035937 288.31023 C 31.094264 288.37986 31.145109 288.44101 31.188383 288.49368 C 31.231669 288.54621 31.254212 288.57333 31.256079 288.57533 C 31.282425 288.60346 31.31457 288.6188 31.352197 288.6208 C 31.38983 288.62267 31.421975 288.61045 31.448315 288.58411 C 31.474668 288.56151 31.488306 288.53323 31.490173 288.49936 C 31.493933 288.46363 31.485545 288.43216 31.464851 288.40583 C 31.462971 288.40396 31.450741 288.3903 31.428161 288.36397 C 31.407461 288.33762 31.379158 288.30285 31.343412 288.25959 C 31.307667 288.21633 31.270271 288.17003 31.230757 288.12109 L 31.002347 287.84462 C 31.002347 287.84274 31.074515 287.75328 31.219388 287.57642 C 31.366173 287.39957 31.441481 287.30749 31.445214 287.29995 C 31.450874 287.29242 31.454717 287.28475 31.456583 287.27722 C 31.460317 287.26782 31.462268 287.25943 31.462268 287.25189 C 31.464134 287.24249 31.464134 287.23411 31.462268 287.22657 C 31.458508 287.17956 31.435965 287.14479 31.394571 287.12219 C 31.355062 287.09805 31.314525 287.09512 31.273132 287.11392 C 31.265605 287.11799 31.257921 287.12254 31.250394 287.12787 C 31.242894 287.13194 31.236424 287.13701 31.230757 287.14234 C 31.226994 287.14798 31.159372 287.22976 31.027669 287.3878 C 30.89595 287.54573 30.829031 287.62558 30.827164 287.62758 C 30.825283 287.62758 30.758364 287.54843 30.62666 287.39039 C 30.572098 287.32455 30.524393 287.26724 30.482999 287.2183 C 30.443473 287.16951 30.422854 287.14434 30.420988 287.14234 C 30.413468 287.13447 30.402638 287.12752 30.389465 287.12219 C 30.378172 287.11492 30.367162 287.10965 30.355875 287.10565 C 30.352115 287.10365 30.346349 287.10255 30.338822 287.10255 L 30.316084 287.10255 L 30.302132 287.10255 L 30.302132 287.10152 z M 20.5234 287.10203 C 20.448143 287.1133 20.381926 287.14042 20.32548 287.18368 C 20.265271 287.22887 20.217566 287.27062 20.181819 287.30822 C 20.151713 287.34024 20.127252 287.37501 20.108439 287.41261 C 20.091525 287.45026 20.079999 287.4915 20.074332 287.53663 C 20.072466 287.55357 20.071748 287.66173 20.071748 287.86116 C 20.071748 288.05869 20.072466 288.16422 20.074332 288.17742 C 20.083742 288.26958 20.119733 288.34751 20.181819 288.41151 C 20.213807 288.44537 20.260809 288.4866 20.322896 288.53554 C 20.371814 288.5732 20.425283 288.59889 20.48361 288.61202 C 20.513713 288.61735 20.598628 288.61977 20.737858 288.61977 C 20.873323 288.61977 20.957018 288.61735 20.989005 288.61202 C 21.052972 288.59695 21.108363 288.57055 21.155403 288.53295 C 21.219376 288.48024 21.261834 288.44355 21.282527 288.42288 C 21.348382 288.35704 21.3877 288.27788 21.400866 288.18569 C 21.402733 288.16875 21.403967 288.0606 21.403967 287.86116 L 21.403967 287.73404 L 21.403967 287.6467 L 21.403967 287.59038 C 21.403967 287.57724 21.402733 287.5669 21.400866 287.55937 L 21.400866 287.54232 C 21.39522 287.49529 21.382285 287.45091 21.361592 287.40951 C 21.342779 287.36813 21.316394 287.33144 21.282527 287.29944 C 21.276887 287.2919 21.25889 287.27636 21.228784 287.25189 C 21.200557 287.22556 21.176097 287.20372 21.155403 287.18678 C 21.142237 287.17738 21.12424 287.16704 21.10166 287.15578 C 21.08096 287.14264 21.061562 287.1323 21.042749 287.12477 C 21.033342 287.12124 21.019891 287.1174 21.002958 287.1134 C 20.987904 287.11007 20.97497 287.10765 20.963684 287.10565 C 20.952395 287.10365 20.879009 287.10255 20.743542 287.10255 L 20.5234 287.10255 L 20.5234 287.10203 z M 26.791235 287.15319 L 26.898722 287.52578 L 27.008793 287.89527 L 26.898722 287.89527 L 26.788651 287.89527 L 26.681164 287.89527 L 26.571093 287.89527 L 26.681164 287.52268 C 26.692457 287.48313 26.703984 287.44452 26.715271 287.40692 C 26.726557 287.36744 26.736166 287.33267 26.743693 287.30254 C 26.753099 287.27247 26.761487 287.24659 26.769014 287.22399 C 26.776567 287.20139 26.781817 287.18338 26.785551 287.17025 C 26.78835 287.1603 26.790535 287.15456 26.791235 287.15319 z M 20.694449 287.37023 C 20.708855 287.37015 20.724214 287.37023 20.740441 287.37023 C 20.789363 287.37023 20.824135 287.37133 20.844828 287.37333 L 20.901155 287.37333 L 20.929577 287.37333 C 20.933377 287.37333 20.935979 287.37443 20.937845 287.37643 L 20.937845 287.3754 C 20.952899 287.37913 20.96635 287.38492 20.977636 287.39245 C 20.981403 287.39432 20.987867 287.40011 20.997273 287.40951 C 21.00668 287.41704 21.016993 287.42543 21.028279 287.43483 C 21.039573 287.44423 21.051099 287.45457 21.062386 287.46584 C 21.073672 287.47524 21.082764 287.48362 21.090291 287.49116 L 21.10476 287.50253 C 21.110434 287.50819 21.11498 287.51658 21.118713 287.52785 C 21.124373 287.53725 21.128215 287.54563 21.130082 287.55317 C 21.131948 287.5569 21.132666 287.57491 21.132666 287.60691 L 21.132666 287.86064 L 21.132666 288.15985 L 21.126981 288.1769 C 21.123181 288.18664 21.12058 288.19431 21.118713 288.19964 C 21.116833 288.20337 21.112287 288.20864 21.10476 288.21618 C 21.099114 288.22371 21.091429 288.23138 21.082023 288.23891 C 21.074496 288.24645 21.061562 288.25795 21.042749 288.27302 C 20.999469 288.31095 20.971166 288.33228 20.957999 288.33762 L 20.954899 288.34072 C 20.941729 288.34605 20.879871 288.34899 20.768863 288.34899 L 20.737858 288.34899 L 20.554406 288.34899 C 20.539353 288.34712 20.523984 288.34205 20.508931 288.33452 C 20.503284 288.33045 20.496117 288.3259 20.48671 288.32056 C 20.479184 288.31303 20.46189 288.2982 20.435551 288.2756 C 20.390391 288.23794 20.363308 288.20966 20.353902 288.19086 L 20.351318 288.18775 C 20.345651 288.17458 20.342533 288.08705 20.342533 287.92524 L 20.342533 287.85754 L 20.342533 287.55834 L 20.348217 287.54438 C 20.353864 287.52745 20.360328 287.51399 20.367854 287.50459 C 20.377261 287.49519 20.397176 287.4777 20.427282 287.45137 C 20.461129 287.42097 20.481044 287.40296 20.48671 287.39762 C 20.49233 287.39409 20.49758 287.39025 20.503247 287.38625 C 20.510773 287.38292 20.518458 287.37999 20.525984 287.37799 C 20.537508 287.37332 20.593614 287.37082 20.694449 287.37023 z M 32.44722 287.71181 L 32.845129 287.71181 L 33.239937 287.71181 L 33.239937 288.03118 L 33.239937 288.35002 L 32.845129 288.35002 L 32.44722 288.35002 L 32.44722 288.03118 L 32.44722 287.71181 z "
     style="font-size:2.82222px;font-family:OCRA;-inkscape-font-specification:'OCRA, Normal';text-align:center;text-anchor:middle;fill:#461621;stroke-width:0.2;stroke-linejoin:bevel"
     transform="translate(-15.240002,-168.49997)" /></svg>
