<?xml version="1.0" encoding="UTF-8" standalone="no"?>
<!-- Generator: Adobe Illustrator 25.2.3, SVG Export Plug-In . SVG Version: 6.00 Build 0)  -->

<svg
   version="1.0"
   id="svg15246"
   x="0px"
   y="0px"
   width="23.7px"
   height="23.7px"
   viewBox="0 0 23.7 23.7"
   enable-background="new 0 0 23.7 23.7"
   xml:space="preserve"
   sodipodi:docname="PJ301MWhiteRed.svg"
   inkscape:version="1.2.2 (b0a8486541, 2022-12-01)"
   xmlns:inkscape="http://www.inkscape.org/namespaces/inkscape"
   xmlns:sodipodi="http://sodipodi.sourceforge.net/DTD/sodipodi-0.dtd"
   xmlns="http://www.w3.org/2000/svg"
   xmlns:svg="http://www.w3.org/2000/svg"><defs
   id="defs203">
	
	
		<linearGradient
   id="SVGID_17_"
   gradientUnits="userSpaceOnUse"
   x1="1062.06897"
   y1="-4091.68994"
   x2="1084.2738"
   y2="-4091.68994"
   gradientTransform="rotate(90,-1509.3041,-2570.5358)">
		<stop
   offset="0.00559"
   style="stop-color:#FFFFFF"
   id="stop147" />
		<stop
   offset="1"
   style="stop-color:#7A7A7A"
   id="stop149" />
	</linearGradient>
	
	
	
		<linearGradient
   id="SVGID_18_"
   gradientUnits="userSpaceOnUse"
   x1="58.86181"
   y1="-54.6409"
   x2="58.86181"
   y2="-51.86816"
   gradientTransform="matrix(1,0,0,-1,-47.00625,-41.32658)">
		<stop
   offset="0"
   style="stop-color:#FFFBFD"
   id="stop156" />
		<stop
   offset="1"
   style="stop-color:#808080"
   id="stop158" />
	</linearGradient>
	
	
		<linearGradient
   id="SVGID_19_"
   gradientUnits="userSpaceOnUse"
   x1="-1240.79248"
   y1="-381.89734"
   x2="-1223.31567"
   y2="-381.89734"
   gradientTransform="matrix(0,-1,-1,0,-370.04718,-1220.1261)">
		<stop
   offset="0"
   style="stop-color:#B0AEAE"
   id="stop163" />
		<stop
   offset="1"
   style="stop-color:#616161"
   id="stop165" />
	</linearGradient>
	
	
	
	
		<linearGradient
   id="SVGID_20_"
   gradientUnits="userSpaceOnUse"
   x1="-1884.86365"
   y1="21.48288"
   x2="-1884.86365"
   y2="6.22048"
   gradientTransform="matrix(-1 0 0 -1 -1873.01343 25.77966)">
		<stop
   offset="0"
   style="stop-color:#ff5fff;stop-opacity:1;"
   id="stop174" />
		<stop
   offset="1"
   style="stop-color:#545454"
   id="stop176" />
	</linearGradient>
	
	
	
	
		<linearGradient
   id="SVGID_21_"
   gradientUnits="userSpaceOnUse"
   x1="-1884.86365"
   y1="8.33755"
   x2="-1884.86365"
   y2="19.36582"
   gradientTransform="matrix(-1 0 0 -1 -1873.01343 25.77966)">
		<stop
   offset="0"
   style="stop-color:#ff5fff;stop-opacity:1;"
   id="stop191" />
		<stop
   offset="1"
   style="stop-color:#706C6C"
   id="stop193" />
	</linearGradient>
	
	
</defs>

<linearGradient
   id="SVGID_2_"
   gradientUnits="userSpaceOnUse"
   x1="479.22113"
   y1="-3610.97144"
   x2="501.73505"
   y2="-3610.97144"
   gradientTransform="matrix(0 1 -1 0 -4548.06152 478.50922)">
	<stop
   offset="0.00559"
   style="stop-color:#FFFFFF"
   id="stop11" />
	<stop
   offset="1"
   style="stop-color:#454545"
   id="stop13" />
</linearGradient>


<linearGradient
   id="SVGID_3_"
   gradientUnits="userSpaceOnUse"
   x1="-8735.91797"
   y1="3072.73706"
   x2="-8718.08887"
   y2="3072.73706"
   gradientTransform="matrix(0 -1 1 0 -4009.8269 -7758.01611)">
	<stop
   offset="0.00559"
   style="stop-color:#FFFFFF"
   id="stop20" />
	<stop
   offset="1"
   style="stop-color:#454545"
   id="stop22" />
</linearGradient>



<linearGradient
   id="SVGID_4_"
   gradientUnits="userSpaceOnUse"
   x1="-7349.92383"
   y1="4699.24609"
   x2="-7349.92383"
   y2="4714.5083"
   gradientTransform="matrix(-1 0 0 1 -8287.01367 -3737.88989)">
	<stop
   offset="0"
   style="stop-color:#FFFEFE"
   id="stop31" />
	<stop
   offset="1"
   style="stop-color:#5E5E5E"
   id="stop33" />
</linearGradient>


<linearGradient
   id="SVGID_5_"
   gradientUnits="userSpaceOnUse"
   x1="-7349.92383"
   y1="4712.67285"
   x2="-7349.92383"
   y2="4701.08154"
   gradientTransform="matrix(-1 0 0 1 -8287.01367 -3737.88989)">
	<stop
   offset="0"
   style="stop-color:#FFFEFE"
   id="stop40" />
	<stop
   offset="1"
   style="stop-color:#383636"
   id="stop42" />
</linearGradient>


<sodipodi:namedview
   bordercolor="#666666"
   borderopacity="1.0"
   fit-margin-bottom="0"
   fit-margin-left="0"
   fit-margin-right="0"
   fit-margin-top="0"
   id="base"
   inkscape:current-layer="svg15246"
   inkscape:cx="-1.0113314"
   inkscape:cy="9.1356933"
   inkscape:document-units="mm"
   inkscape:pageopacity="0.0"
   inkscape:pageshadow="2"
   inkscape:snap-bbox="true"
   inkscape:snap-bbox-midpoints="true"
   inkscape:snap-nodes="false"
   inkscape:snap-others="false"
   inkscape:window-height="882"
   inkscape:window-maximized="0"
   inkscape:window-width="1600"
   inkscape:window-x="0"
   inkscape:window-y="0"
   inkscape:zoom="14.831934"
   pagecolor="#ffffff"
   showgrid="false"
   units="px"
   inkscape:pagecheckerboard="0"
   inkscape:showpageshadow="2"
   inkscape:deskcolor="#d1d1d1">
	</sodipodi:namedview>




<linearGradient
   id="SVGID_11_"
   gradientUnits="userSpaceOnUse"
   x1="-8782.6582"
   y1="3039.62085"
   x2="-8764.83008"
   y2="3039.62085"
   gradientTransform="matrix(0 -1 1 0 -4009.8269 -7758.01611)">
	<stop
   offset="0"
   style="stop-color:#8C8B8B"
   id="stop93" />
	<stop
   offset="1"
   style="stop-color:#454545"
   id="stop95" />
</linearGradient>






<g
   id="g145">
		
			<linearGradient
   id="SVGID_16_"
   gradientUnits="userSpaceOnUse"
   x1="-602.15857"
   y1="1785.6912"
   x2="-578.78363"
   y2="1785.6912"
   gradientTransform="matrix(0,1,1,0,-1773.8412,602.39905)">
			<stop
   offset="0"
   style="stop-color:#828181"
   id="stop138" />
			<stop
   offset="1"
   style="stop-color:#575757"
   id="stop140" />
		</linearGradient>
		<path
   fill="url(#SVGID_16_)"
   d="m 11.85025,23.61541 c -6.44467,0 -11.68796,-5.24279 -11.68796,-11.68697 0,-6.44517 5.24329,-11.68796 11.68796,-11.68796 6.44467,0 11.68747,5.24279 11.68747,11.68797 0,6.44417 -5.24279,11.68696 -11.68747,11.68696 z"
   id="path143"
   style="fill:url(#SVGID_16_)" />
	</g><circle
   fill="url(#SVGID_17_)"
   cx="11.85"
   cy="11.93965"
   r="11.10243"
   id="circle152"
   style="fill:url(#SVGID_17_)" /><circle
   fill="#e0e0e0"
   cx="11.85"
   cy="11.93965"
   r="10.44346"
   id="circle154" /><path
   fill="url(#SVGID_18_)"
   d="M 1.52136,10.54158 1.09168,10.95843 C 0.65175,11.5374 0.6549,12.3395 1.09936,12.915 l 0.39828,0.36948 20.70001,0.02984 0.40244,-0.38429 c 0.45989,-0.57286 0.46323,-1.38741 0.008,-1.96402 L 22.19765,10.565 Z"
   id="path161"
   style="fill:url(#SVGID_18_)" /><circle
   fill="url(#SVGID_19_)"
   cx="11.85015"
   cy="11.92791"
   r="8.73843"
   id="circle168"
   style="fill:url(#SVGID_19_)" /><g
   opacity="0.43"
   id="g189">
		
		<path
   opacity="0.28"
   fill="#404040"
   d="m 4.22723,12.04192 c -5.5e-4,0.03723 -0.00574,0.07324 -0.00574,0.1106 0,4.09058 3.41547,7.40668 7.62866,7.40668 -4.17473,-10e-6 -7.56133,-3.35578 -7.62292,-7.51728 z"
   id="path185" />
		<path
   opacity="0.28"
   fill="#404040"
   d="m 11.85016,19.55919 c 4.2132,0 7.6286,-3.3161 7.6286,-7.40668 0,-0.03735 -0.0052,-0.07336 -0.0057,-0.1106 -0.06158,4.16151 -3.44812,7.51728 -7.62286,7.51728 z"
   id="path187" />
	</g><circle
   fill="#1f1f1f"
   cx="11.805861"
   cy="11.881451"
   r="8.1665602"
   id="circle170"
   style="stroke-width:1" />
<g
   id="g10320"
   transform="matrix(0.12566884,-0.02499709,0.02499709,0.12566884,-8.2133165,-6.5170909)"><path
     id="path4632"
     style="fill:#ff0000;stroke:none;stroke-width:0.1;stroke-linejoin:round"
     d="m 125.03371,171.05002 -43.249555,43.24956 a 61.207233,61.207233 0 0 0 19.839095,13.26844 z" /><path
     id="path4732"
     style="fill:#ffffff;stroke:none;stroke-width:0.1;stroke-linejoin:round"
     d="m 125.03371,171.05002 -23.41046,56.518 a 61.207233,61.207233 0 0 0 23.41046,4.6886 z" /><path
     id="path4730"
     style="fill:#ff0000;stroke:none;stroke-width:0.1;stroke-linejoin:round"
     d="m 125.03371,171.05002 v 61.2066 a 61.207233,61.207233 0 0 0 23.41046,-4.6886 z" /><path
     id="path4728"
     style="fill:#ffffff;stroke:none;stroke-width:0.1;stroke-linejoin:round"
     d="m 125.03371,171.05002 23.41046,56.518 a 61.207233,61.207233 0 0 0 19.8391,-13.26844 z" /><path
     id="path4726"
     style="fill:#ffffff;stroke:none;stroke-width:0.1;stroke-linejoin:round"
     d="M 125.03371,171.04951 101.62274,114.53099 A 61.207233,61.207233 0 0 0 81.784155,127.79995 Z" /><path
     id="path4724"
     style="fill:#ff0000;stroke:none;stroke-width:0.1;stroke-linejoin:round"
     d="M 125.03371,171.04951 81.784155,127.79995 a 61.207233,61.207233 0 0 0 -13.268957,19.83858 z" /><path
     id="path4722"
     style="fill:#ffffff;stroke:none;stroke-width:0.1;stroke-linejoin:round"
     d="M 125.03371,171.04951 68.515198,147.63853 a 61.207233,61.207233 0 0 0 -4.688603,23.41098 z" /><path
     id="path4720"
     style="fill:#ff0000;stroke:none;stroke-width:0.1;stroke-linejoin:round"
     d="M 125.03371,171.04951 H 63.826595 a 61.207233,61.207233 0 0 0 4.688603,23.41097 z" /><path
     id="path4718"
     style="fill:#ffffff;stroke:none;stroke-width:0.1;stroke-linejoin:round"
     d="m 125.03371,171.04951 -56.518512,23.41097 a 61.207233,61.207233 0 0 0 13.268957,19.8391 l 43.249555,-43.24956 z" /><path
     id="path4716"
     style="fill:#ff0000;stroke:none;stroke-width:0.1;stroke-linejoin:round"
     d="m 125.03371,171.04951 v 5.1e-4 l 43.24956,43.24956 a 61.207233,61.207233 0 0 0 13.26896,-19.8391 z" /><path
     id="path4714"
     style="fill:#ffffff;stroke:none;stroke-width:0.1;stroke-linejoin:round"
     d="m 125.03371,171.04951 56.51852,23.41097 a 61.207233,61.207233 0 0 0 4.6886,-23.41097 z" /><path
     id="path4712"
     style="fill:#ff0000;stroke:none;stroke-width:0.1;stroke-linejoin:round"
     d="m 125.03371,171.04951 h 61.20712 a 61.207233,61.207233 0 0 0 -4.66225,-23.42183 z" /><path
     id="path4710"
     style="fill:#ffffff;stroke:none;stroke-width:0.1;stroke-linejoin:round"
     d="m 125.03371,171.04951 56.54487,-23.42183 a 61.207233,61.207233 0 0 0 -13.26844,-19.8546 z" /><path
     id="path4708"
     style="fill:#ff0000;stroke:none;stroke-width:0.1;stroke-linejoin:round"
     d="m 125.03371,171.04951 43.27643,-43.27643 a 61.207233,61.207233 0 0 0 -19.8546,-13.26792 z" /><path
     id="path4706"
     style="fill:#ff0000;stroke:none;stroke-width:0.1;stroke-linejoin:round"
     d="m 125.03371,109.84239 a 61.207233,61.207233 0 0 0 -23.41097,4.6886 l 23.41097,56.51852 z" /><path
     id="path4704"
     style="fill:#ffffff;stroke:none;stroke-width:0.1;stroke-linejoin:round;stroke-opacity:1"
     d="m 125.03371,109.84239 v 61.20712 l 23.42183,-56.54435 a 61.207233,61.207233 0 0 0 -23.42183,-4.66277 z" /></g><circle
   cx="11.805861"
   cy="11.881451"
   r="4.8212934"
   id="circle198"
   style="stroke-width:0.990542" /></svg>
