<?xml version="1.0" encoding="UTF-8" standalone="no"?>
<!-- Created with Inkscape (http://www.inkscape.org/) -->

<svg
   width="10mm"
   height="5.0000005mm"
   viewBox="0 0 10 5.0000007"
   version="1.1"
   id="svg1995"
   inkscape:version="1.2.2 (b0a8486541, 2022-12-01)"
   sodipodi:docname="SoloButtonGrey.svg"
   xmlns:inkscape="http://www.inkscape.org/namespaces/inkscape"
   xmlns:sodipodi="http://sodipodi.sourceforge.net/DTD/sodipodi-0.dtd"
   xmlns="http://www.w3.org/2000/svg"
   xmlns:svg="http://www.w3.org/2000/svg">
  <sodipodi:namedview
     id="namedview1997"
     pagecolor="#ffffff"
     bordercolor="#000000"
     borderopacity="0.25"
     inkscape:showpageshadow="2"
     inkscape:pageopacity="0.0"
     inkscape:pagecheckerboard="0"
     inkscape:deskcolor="#d1d1d1"
     inkscape:document-units="mm"
     showgrid="false"
     inkscape:zoom="24.829854"
     inkscape:cx="-4.2086434"
     inkscape:cy="15.08265"
     inkscape:window-width="1920"
     inkscape:window-height="1018"
     inkscape:window-x="0"
     inkscape:window-y="0"
     inkscape:window-maximized="1"
     inkscape:current-layer="layer1" />
  <defs
     id="defs1992" />
  <g
     inkscape:label="Layer 1"
     inkscape:groupmode="layer"
     id="layer1"
     transform="translate(-71.543407,-152.23635)">
    <path
       id="surround--strokedark"
       style="fill:#999991;fill-opacity:1;stroke:#461621;stroke-width:0.279581;stroke-linecap:butt;stroke-linejoin:bevel;stroke-dasharray:none;stroke-opacity:1"
       d="m 73.844403,152.37703 v 0 c -1.217779,0.0903 -2.160356,1.12627 -2.161206,2.35976 8.64e-4,1.23348 0.943437,2.25747 2.161206,2.34787 v 0 l 5.64162,0.0119 v 0 c 1.109681,-0.20248 1.916999,-1.22099 1.917593,-2.3601 -1.77e-4,-1.13945 -0.807592,-2.15778 -1.917593,-2.36032 v 0 z"
       sodipodi:nodetypes="ccccccccccc" />
    <path
       id="rect448-3"
       style="fill:#808080;fill-opacity:1;stroke:none;stroke-width:0.244883;stroke-linecap:butt;stroke-linejoin:bevel;stroke-dasharray:none;stroke-opacity:1"
       d="m 74.060943,152.92563 v 0 c -1.120075,0.0753 -1.987032,0.93941 -1.987812,1.96826 7.95e-4,1.02882 0.867747,1.88293 1.987812,1.9583 v 0 l 5.188995,0.0119 v 0 c 1.020653,-0.16888 1.763199,-1.01842 1.763744,-1.96851 -1.62e-4,-0.95042 -0.742798,-1.79982 -1.763744,-1.96876 v 0 z"
       sodipodi:nodetypes="ccccccccccc" />
    <path
       d="m 76.064157,152.91116 q 0.02011,-0.003 0.442385,-0.003 0.422276,0 0.445736,0.003 0.154164,0.0201 0.258058,0.12736 0.03351,0.0369 0.05697,0.0771 0.02681,0.0402 0.04357,0.0871 0.01676,0.0436 0.02011,0.0938 0.0067,0.0536 -0.0067,0.0905 -0.01005,0.0369 -0.04022,0.067 -0.04692,0.0436 -0.110597,0.0436 -0.01676,0 -0.02346,0 -0.0067,0 -0.02011,-0.003 -0.04357,-0.0134 -0.07038,-0.0436 -0.04022,-0.0436 -0.04692,-0.1106 0,-0.0235 -0.0067,-0.0402 -0.01676,-0.0469 -0.06703,-0.0637 l -0.01341,-0.007 h -0.412222 -0.415574 l -0.0067,0.007 q -0.03016,0.0201 -0.01676,0.0503 0.0067,0.007 0.59655,0.76747 0.593197,0.76077 0.603251,0.77417 0.04692,0.0704 0.05697,0.15417 0.02346,0.18768 -0.124002,0.31838 -0.06368,0.0536 -0.14411,0.0737 -0.03686,0.0101 -0.09049,0.0134 -0.05027,0 -0.398817,0 -0.418925,0 -0.442385,-0.003 -0.154164,-0.0201 -0.258058,-0.12736 -0.103893,-0.10724 -0.12065,-0.25805 -0.01005,-0.0938 0.04357,-0.15082 0.0067,-0.0101 0.01341,-0.0168 0.01005,-0.007 0.02011,-0.0101 0.01005,-0.007 0.01676,-0.0101 0.01005,-0.003 0.02346,-0.007 0.01005,-0.003 0.01676,-0.003 0.01005,-0.003 0.02346,-0.003 0.06368,0 0.110596,0.0436 0.01005,0.0101 0.01676,0.0201 0.01005,0.007 0.01341,0.0201 0.0067,0.0101 0.01005,0.0235 0.0067,0.0101 0.0067,0.0235 0.0034,0.0134 0.0034,0.0268 0.0034,0.0268 0.0067,0.0402 0.02011,0.0469 0.06703,0.0637 l 0.0134,0.007 h 0.412223 0.40887 l 0.01005,-0.003 q 0.03687,-0.0168 0.02011,-0.0503 0,-0.007 -0.596549,-0.76747 -0.593198,-0.76412 -0.603252,-0.77752 -0.05697,-0.0905 -0.05697,-0.19774 0,-0.11059 0.06033,-0.19773 0.04357,-0.067 0.107245,-0.10724 0.06703,-0.0436 0.14411,-0.0536 z"
       id="s--filldark"
       style="font-size:3.3514px;font-family:OCRA;-inkscape-font-specification:'OCRA, Normal';text-align:center;text-anchor:middle;fill:#461621;stroke-width:0.2;stroke-linecap:round;stroke-linejoin:bevel"
       transform="translate(8.7270833e-4,0.58821646)" />
  </g>
</svg>
