<?xml version="1.0" encoding="UTF-8" standalone="no"?>
<!-- Created with Inkscape (http://www.inkscape.org/) -->

<svg
   xmlns:dc="http://purl.org/dc/elements/1.1/"
   xmlns:cc="http://creativecommons.org/ns#"
   xmlns:rdf="http://www.w3.org/1999/02/22-rdf-syntax-ns#"
   xmlns:svg="http://www.w3.org/2000/svg"
   xmlns="http://www.w3.org/2000/svg"
   xmlns:sodipodi="http://sodipodi.sourceforge.net/DTD/sodipodi-0.dtd"
   xmlns:inkscape="http://www.inkscape.org/namespaces/inkscape"
   width="68.514145"
   height="21.200382"
   id="svg2"
   version="1.1"
   inkscape:version="0.48.3.1 r9886"
   sodipodi:docname="vglabs.svg">
  <defs
     id="defs4" />
  <sodipodi:namedview
     id="base"
     pagecolor="#ffffff"
     bordercolor="#666666"
     borderopacity="1.0"
     inkscape:pageopacity="0.0"
     inkscape:pageshadow="2"
     inkscape:zoom="7.919596"
     inkscape:cx="74.781138"
     inkscape:cy="-13.191777"
     inkscape:document-units="px"
     inkscape:current-layer="layer1"
     showgrid="false"
     units="mm"
     fit-margin-top="0"
     fit-margin-left="0"
     fit-margin-right="0"
     fit-margin-bottom="0"
     showborder="false"
     inkscape:showpageshadow="false"
     inkscape:window-width="1920"
     inkscape:window-height="1033"
     inkscape:window-x="0"
     inkscape:window-y="25"
     inkscape:window-maximized="1"
     showguides="true"
     inkscape:guide-bbox="true">
    <sodipodi:guide
       orientation="0,1"
       position="33.587572,20.708127"
       id="guide3024" />
  </sodipodi:namedview>
  <metadata
     id="metadata7">
    <rdf:RDF>
      <cc:Work
         rdf:about="">
        <dc:format>image/svg+xml</dc:format>
        <dc:type
           rdf:resource="http://purl.org/dc/dcmitype/StillImage" />
        <dc:title />
      </cc:Work>
    </rdf:RDF>
  </metadata>
  <g
     inkscape:label="silkscreen"
     inkscape:groupmode="layer"
     id="layer1"
     transform="translate(-180.13563,-501.78988)">
    <path
       inkscape:connector-curvature="0"
       id="path3015"
       style="font-size:12px;font-style:normal;font-variant:normal;font-weight:500;font-stretch:normal;text-align:start;line-height:125%;letter-spacing:0px;word-spacing:0px;writing-mode:lr-tb;text-anchor:start;fill:#000000;fill-opacity:1;stroke:none;font-family:OCRA;-inkscape-font-specification:OCRA Medium"
       d="m 228.50553,502.44523 c 0.08,-0.016 0.16399,-0.012 0.252,0.012 0.024,0.008 0.06,0.02 0.108,0.036 0.11199,0.056 0.19599,0.14401 0.252,0.264 0.024,0.04 0.41199,1.35601 1.164,3.948 0.75999,2.59201 1.13999,3.90001 1.14,3.924 0.008,0.024 0.012,0.06 0.012,0.108 -1e-5,0.19201 -0.076,0.344 -0.228,0.456 -0.14401,0.112 -0.30801,0.144 -0.492,0.096 -0.18401,-0.048 -0.31201,-0.164 -0.384,-0.348 -0.008,-0.032 -0.088,-0.29999 -0.24,-0.804 l -0.216,-0.756 -1.272,0 -1.26,0 -0.228,0.768 c -0.144,0.51201 -0.224,0.78001 -0.24,0.804 -0.04,0.11201 -0.112,0.2 -0.216,0.264 -0.16,0.112 -0.332,0.132 -0.516,0.06 -0.184,-0.08 -0.3,-0.21599 -0.348,-0.408 -0.024,-0.088 -0.024,-0.17599 0,-0.264 0.008,-0.048 0.388,-1.35199 1.14,-3.912 0.75199,-2.56799 1.13199,-3.86399 1.14,-3.888 0.024,-0.064 0.068,-0.12799 0.132,-0.192 0.088,-0.088 0.18799,-0.14399 0.3,-0.168 m 0.564,4.212 c -0.30401,-1.05599 -0.45601,-1.58399 -0.456,-1.584 -1e-5,-0.008 -0.024,0.06 -0.072,0.204 -0.04,0.13601 -0.096,0.32801 -0.168,0.576 -0.072,0.24001 -0.14801,0.50401 -0.228,0.792 l -0.468,1.584 0.468,0 c 0.31199,1e-5 0.61999,1e-5 0.924,0 l 0.468,0 -0.468,-1.572" />
    <path
       inkscape:connector-curvature="0"
       id="path3017"
       style="font-size:12px;font-style:normal;font-variant:normal;font-weight:500;font-stretch:normal;text-align:start;line-height:125%;letter-spacing:0px;word-spacing:0px;writing-mode:lr-tb;text-anchor:start;fill:#000000;fill-opacity:1;stroke:none;font-family:OCRA;-inkscape-font-specification:OCRA Medium"
       d="m 234.35965,506.87323 0,-4.44 1.788,0 1.788,0.012 0.108,0.012 c 0.52,0.08 0.956,0.30001 1.308,0.66 0.112,0.11201 0.212,0.23201 0.3,0.36 0.2,0.30401 0.32,0.64801 0.36,1.032 0.008,0.072 0.012,0.21601 0.012,0.432 0,0.21601 -0.004,0.36001 -0.012,0.432 -0.056,0.55201 -0.276,1.01601 -0.66,1.392 l -0.108,0.108 0.108,0.108 c 0.112,0.10401 0.212,0.22401 0.3,0.36 0.184,0.28001 0.3,0.59601 0.348,0.948 0.016,0.08 0.024,0.25201 0.024,0.516 0,0.26401 -0.008,0.43601 -0.024,0.516 -0.064,0.42401 -0.224,0.80001 -0.48,1.128 -0.104,0.13601 -0.224,0.25601 -0.36,0.36 -0.304,0.24001 -0.648,0.396 -1.032,0.468 -0.136,0.024 -0.812,0.036 -2.028,0.036 l -1.74,0 0,-4.44 m 3.588,-3.264 -0.084,-0.024 -1.176,0 -1.188,0 0,1.356 0,1.356 1.188,0 1.176,0 0.084,-0.024 c 0.224,-0.048 0.412,-0.14399 0.564,-0.288 0.16,-0.15199 0.268,-0.33599 0.324,-0.552 0.024,-0.10399 0.036,-0.28399 0.036,-0.54 0,-0.19999 -0.008,-0.32399 -0.024,-0.372 -0.072,-0.37599 -0.276,-0.64799 -0.612,-0.816 -0.088,-0.04 -0.184,-0.072 -0.288,-0.096 m 0,3.852 -0.084,-0.012 -1.176,0 -1.188,0 0,1.356 0,1.356 1.188,0 1.176,0 0.084,-0.012 c 0.368,-0.08 0.636,-0.28399 0.804,-0.612 0.048,-0.096 0.08,-0.19999 0.096,-0.312 0.016,-0.048 0.024,-0.18799 0.024,-0.42 0,-0.23199 -0.008,-0.37199 -0.024,-0.42 -0.072,-0.37599 -0.276,-0.64799 -0.612,-0.816 -0.088,-0.048 -0.184,-0.084 -0.288,-0.108" />
    <path
       inkscape:connector-curvature="0"
       id="path3019"
       style="font-size:12px;font-style:normal;font-variant:normal;font-weight:500;font-stretch:normal;text-align:start;line-height:125%;letter-spacing:0px;word-spacing:0px;writing-mode:lr-tb;text-anchor:start;fill:#000000;fill-opacity:1;stroke:none;font-family:OCRA;-inkscape-font-specification:OCRA Medium"
       d="m 244.05378,502.44523 c 0.048,-0.008 0.576,-0.012 1.584,-0.012 1.00799,1e-5 1.53999,0.004 1.596,0.012 0.36799,0.048 0.67599,0.20001 0.924,0.456 0.24799,0.25601 0.39199,0.56401 0.432,0.924 0.032,0.24001 -0.024,0.42801 -0.168,0.564 -0.11201,0.10401 -0.24401,0.15601 -0.396,0.156 -0.056,10e-6 -0.10801,-0.004 -0.156,-0.012 -0.10401,-0.032 -0.18801,-0.084 -0.252,-0.156 -0.096,-0.10399 -0.15201,-0.23599 -0.168,-0.396 -1e-5,-0.056 -0.008,-0.10399 -0.024,-0.144 -0.04,-0.11199 -0.12001,-0.18799 -0.24,-0.228 l -0.048,-0.024 -1.476,0 -1.488,0 -0.024,0.024 c -0.072,0.048 -0.092,0.10801 -0.06,0.18 0.016,0.016 0.72799,0.93201 2.136,2.748 1.41599,1.81601 2.13599,2.74001 2.16,2.772 0.11199,0.16801 0.17999,0.35201 0.204,0.552 0.04,0.32001 -0.032,0.61601 -0.216,0.888 -0.18401,0.26401 -0.43201,0.436 -0.744,0.516 -0.088,0.024 -0.19601,0.04 -0.324,0.048 -0.12001,0 -0.59601,0 -1.428,0 -1.00001,0 -1.528,-0.004 -1.584,-0.012 -0.368,-0.048 -0.676,-0.2 -0.924,-0.456 -0.248,-0.25599 -0.392,-0.56399 -0.432,-0.924 -0.024,-0.22399 0.028,-0.40399 0.156,-0.54 0.072,-0.08 0.16,-0.13199 0.264,-0.156 0.04,-0.016 0.088,-0.024 0.144,-0.024 0.152,10e-6 0.284,0.052 0.396,0.156 0.112,0.10401 0.172,0.24001 0.18,0.408 0.008,0.064 0.016,0.11201 0.024,0.144 0.048,0.11201 0.128,0.18801 0.24,0.228 l 0.048,0.024 1.476,0 1.464,0 0.036,-0.012 c 0.088,-0.04 0.11199,-0.1 0.072,-0.18 -1e-5,-0.016 -0.71201,-0.93199 -2.136,-2.748 -1.416,-1.82399 -2.136,-2.75199 -2.16,-2.784 -0.136,-0.21599 -0.204,-0.45199 -0.204,-0.708 0,-0.26399 0.072,-0.49999 0.216,-0.708 0.216,-0.32799 0.516,-0.51999 0.9,-0.576" />
    <path
       inkscape:connector-curvature="0"
       id="path3096"
       style="font-size:28px;font-style:normal;font-variant:normal;font-weight:500;font-stretch:normal;text-align:start;line-height:125%;letter-spacing:0px;word-spacing:0px;writing-mode:lr-tb;text-anchor:start;fill:#000000;fill-opacity:1;stroke:none;font-family:OCRA;-inkscape-font-specification:OCRA Medium"
       d="m 182.34374,502.29445 c 0.18667,-0.0373 0.38267,-0.028 0.588,0.028 0.056,0.0187 0.14,0.0467 0.252,0.084 0.26133,0.13069 0.45733,0.33602 0.588,0.616 0.0747,0.14935 0.112,0.30802 0.112,0.476 0.0187,0.14935 0.028,0.85869 0.028,2.128 l 0.028,2.268 1.96,5.012 c 0.336,0.91468 0.65333,1.75468 0.952,2.52 0.31733,0.76534 0.55999,1.37201 0.728,1.82 0.18666,0.44801 0.27999,0.67201 0.28,0.672 -10e-6,-0.0187 0.65333,-1.69866 1.96,-5.04 l 1.96,-5.012 0,-2.184 c -1e-5,-1.53065 0.028,-2.37065 0.084,-2.52 0.056,-0.16798 0.15866,-0.32665 0.308,-0.476 0.16799,-0.16798 0.33599,-0.27998 0.504,-0.336 0.35466,-0.11198 0.69999,-0.0933 1.036,0.056 0.27999,0.13069 0.48532,0.33602 0.616,0.616 0.0746,0.14935 0.11199,0.31735 0.112,0.504 0.0186,0.16802 0.028,0.95202 0.028,2.352 l 0,2.492 -2.688,6.916 c -1.79201,4.592 -2.70667,6.916 -2.744,6.972 -0.056,0.13067 -0.14934,0.252 -0.28,0.364 -0.33601,0.31733 -0.72801,0.42933 -1.176,0.336 -0.42934,-0.0933 -0.74667,-0.34533 -0.952,-0.756 -0.0187,-0.0747 -0.896,-2.324 -2.632,-6.748 -1.71733,-4.42399 -2.604,-6.71065 -2.66,-6.86 l -0.084,-0.224 0,-2.436 c 0,-1.69865 0.028,-2.62265 0.084,-2.772 0.056,-0.16798 0.15867,-0.32665 0.308,-0.476 0.20533,-0.20531 0.43867,-0.33598 0.7,-0.392" />
    <path
       inkscape:connector-curvature="0"
       id="path3098"
       style="font-size:28px;font-style:normal;font-variant:normal;font-weight:500;font-stretch:normal;text-align:start;line-height:125%;letter-spacing:0px;word-spacing:0px;writing-mode:lr-tb;text-anchor:start;fill:#000000;fill-opacity:1;stroke:none;font-family:OCRA;-inkscape-font-specification:OCRA Medium"
       d="m 205.54326,502.29445 c 0.14932,-0.0186 0.95199,-0.028 2.408,-0.028 1.45598,2e-5 2.22132,0.009 2.296,0.028 0.31732,0.056 0.57865,0.21469 0.784,0.476 0.20532,0.24269 0.30798,0.52269 0.308,0.84 -2e-5,0.26135 -0.0747,0.51335 -0.224,0.756 -0.14935,0.22402 -0.34535,0.38269 -0.588,0.476 -0.13068,0.056 -0.28002,0.0933 -0.448,0.112 -0.14935,2e-5 -0.83068,2e-5 -2.044,0 -1.25068,2e-5 -1.96001,0.009 -2.128,0.028 -0.14935,2e-5 -0.29868,0.0374 -0.448,0.112 -0.14935,0.0747 -0.30801,0.21468 -0.476,0.42 -0.16801,0.18668 -0.75601,0.93335 -1.764,2.24 -1.23201,1.58668 -1.87601,2.41735 -1.932,2.492 -0.18667,0.28001 -0.32667,0.61601 -0.42,1.008 l -0.028,0.168 0,3.892 c -1e-5,2.57601 0.009,3.90134 0.028,3.976 0.11199,0.41067 0.35466,0.7 0.728,0.868 0.13066,0.0747 0.28932,0.12134 0.476,0.14 0.20532,0 1.09199,0 2.66,0 1.58665,0 2.47332,0 2.66,0 0.20532,-0.0187 0.38265,-0.0653 0.532,-0.14 0.27999,-0.13066 0.48532,-0.336 0.616,-0.616 0.0746,-0.14933 0.11198,-0.28 0.112,-0.392 0.0186,-0.13066 0.028,-0.60666 0.028,-1.428 l 0,-1.512 -1.372,0 c -0.97068,10e-6 -1.54001,-0.028 -1.708,-0.084 -0.16801,-0.056 -0.32668,-0.15866 -0.476,-0.308 -0.14934,-0.14933 -0.25201,-0.31733 -0.308,-0.504 -0.11201,-0.27999 -0.12134,-0.56932 -0.028,-0.868 0.0747,-0.18666 0.18666,-0.35466 0.336,-0.504 0.14932,-0.14932 0.30799,-0.25199 0.476,-0.308 0.16799,-0.056 1.18532,-0.084 3.052,-0.084 l 2.716,0 0,2.828 c -2e-5,1.86667 -0.009,2.89334 -0.028,3.08 -0.056,0.448 -0.18668,0.87734 -0.392,1.288 -0.29868,0.59734 -0.72802,1.092 -1.288,1.484 -0.54135,0.392 -1.14802,0.63467 -1.82,0.728 -0.18668,0.0187 -1.21335,0.028 -3.08,0.028 -2.01601,0 -3.16401,-0.028 -3.444,-0.084 -0.44801,-0.112 -0.86801,-0.28 -1.26,-0.504 -1.10134,-0.69067 -1.72667,-1.68933 -1.876,-2.996 -0.0373,-0.168 -0.056,-1.52133 -0.056,-4.06 0.0187,-2.53866 0.0373,-3.90132 0.056,-4.088 0.0747,-0.91465 0.36399,-1.73599 0.868,-2.464 0.0933,-0.13065 0.76533,-1.00798 2.016,-2.632 1.26932,-1.64265 1.96932,-2.51998 2.1,-2.632 0.65332,-0.69065 1.44666,-1.10131 2.38,-1.232" />
    <path
       inkscape:connector-curvature="0"
       id="path3100"
       style="font-size:28px;font-style:normal;font-variant:normal;font-weight:500;font-stretch:normal;text-align:start;line-height:125%;letter-spacing:0px;word-spacing:0px;writing-mode:lr-tb;text-anchor:start;fill:#000000;fill-opacity:1;stroke:none;font-family:OCRA;-inkscape-font-specification:OCRA Medium"
       d="m 219.25888,502.29445 c 0.18667,-0.0373 0.38267,-0.028 0.588,0.028 0.18666,0.0374 0.35466,0.12135 0.504,0.252 0.20533,0.18669 0.35466,0.42002 0.448,0.7 0.0187,0.0747 0.028,2.93068 0.028,8.568 l 0,8.456 4.676,0 c 3.09866,0 4.68532,0.009 4.76,0.028 0.31732,0.056 0.57865,0.21467 0.784,0.476 0.20532,0.24267 0.30799,0.52267 0.308,0.84 -1e-5,0.31733 -0.10268,0.60667 -0.308,0.868 -0.20535,0.24267 -0.46668,0.392 -0.784,0.448 -0.0747,0.0187 -2.10934,0.028 -6.104,0.028 l -5.992,0 0,-9.744 c 0,-5.28265 0,-8.25065 0,-8.904 0,-0.67198 0.028,-1.07331 0.084,-1.204 0.056,-0.14931 0.15867,-0.29865 0.308,-0.448 0.20533,-0.20531 0.43867,-0.33598 0.7,-0.392" />
  </g>
</svg>
