<?xml version="1.0" encoding="UTF-8" standalone="no"?>
<!-- Created with Inkscape (http://www.inkscape.org/) -->

<svg
   width="210mm"
   height="297mm"
   viewBox="0 0 210 297"
   version="1.1"
   id="svg4148"
   inkscape:version="1.2.2 (b0a8486541, 2022-12-01)"
   sodipodi:docname="WhiteRed.svg"
   xmlns:inkscape="http://www.inkscape.org/namespaces/inkscape"
   xmlns:sodipodi="http://sodipodi.sourceforge.net/DTD/sodipodi-0.dtd"
   xmlns="http://www.w3.org/2000/svg"
   xmlns:svg="http://www.w3.org/2000/svg">
  <sodipodi:namedview
     id="namedview4150"
     pagecolor="#ffffff"
     bordercolor="#000000"
     borderopacity="0.25"
     inkscape:showpageshadow="2"
     inkscape:pageopacity="0.0"
     inkscape:pagecheckerboard="0"
     inkscape:deskcolor="#d1d1d1"
     inkscape:document-units="mm"
     showgrid="false"
     inkscape:zoom="24.829854"
     inkscape:cx="259.48602"
     inkscape:cy="423.70366"
     inkscape:window-width="1920"
     inkscape:window-height="1018"
     inkscape:window-x="0"
     inkscape:window-y="0"
     inkscape:window-maximized="1"
     inkscape:current-layer="layer1" />
  <defs
     id="defs4145" />
  <g
     inkscape:label="Layer 1"
     inkscape:groupmode="layer"
     id="layer1">
    <g
       id="g9424"
       transform="matrix(0.03777338,0,0,0.03777338,61.415648,105.69327)">
      <path
         id="path4632"
         style="fill:#ff0000;stroke:none;stroke-width:0.1;stroke-linejoin:round"
         d="m 125.03371,171.05002 -43.249555,43.24956 a 61.207233,61.207233 0 0 0 19.839095,13.26844 z" />
      <path
         id="path4732"
         style="fill:#ffffff;stroke:none;stroke-width:0.1;stroke-linejoin:round"
         d="m 125.03371,171.05002 -23.41046,56.518 a 61.207233,61.207233 0 0 0 23.41046,4.6886 z" />
      <path
         id="path4730"
         style="fill:#ff0000;stroke:none;stroke-width:0.1;stroke-linejoin:round"
         d="m 125.03371,171.05002 v 61.2066 a 61.207233,61.207233 0 0 0 23.41046,-4.6886 z" />
      <path
         id="path4728"
         style="fill:#ffffff;stroke:none;stroke-width:0.1;stroke-linejoin:round"
         d="m 125.03371,171.05002 23.41046,56.518 a 61.207233,61.207233 0 0 0 19.8391,-13.26844 z" />
      <path
         id="path4726"
         style="fill:#ffffff;stroke:none;stroke-width:0.1;stroke-linejoin:round"
         d="M 125.03371,171.04951 101.62274,114.53099 A 61.207233,61.207233 0 0 0 81.784155,127.79995 Z" />
      <path
         id="path4724"
         style="fill:#ff0000;stroke:none;stroke-width:0.1;stroke-linejoin:round"
         d="M 125.03371,171.04951 81.784155,127.79995 a 61.207233,61.207233 0 0 0 -13.268957,19.83858 z" />
      <path
         id="path4722"
         style="fill:#ffffff;stroke:none;stroke-width:0.1;stroke-linejoin:round"
         d="M 125.03371,171.04951 68.515198,147.63853 a 61.207233,61.207233 0 0 0 -4.688603,23.41098 z" />
      <path
         id="path4720"
         style="fill:#ff0000;stroke:none;stroke-width:0.1;stroke-linejoin:round"
         d="M 125.03371,171.04951 H 63.826595 a 61.207233,61.207233 0 0 0 4.688603,23.41097 z" />
      <path
         id="path4718"
         style="fill:#ffffff;stroke:none;stroke-width:0.1;stroke-linejoin:round"
         d="m 125.03371,171.04951 -56.518512,23.41097 a 61.207233,61.207233 0 0 0 13.268957,19.8391 l 43.249555,-43.24956 z" />
      <path
         id="path4716"
         style="fill:#ff0000;stroke:none;stroke-width:0.1;stroke-linejoin:round"
         d="m 125.03371,171.04951 v 5.1e-4 l 43.24956,43.24956 a 61.207233,61.207233 0 0 0 13.26896,-19.8391 z" />
      <path
         id="path4714"
         style="fill:#ffffff;stroke:none;stroke-width:0.1;stroke-linejoin:round"
         d="m 125.03371,171.04951 56.51852,23.41097 a 61.207233,61.207233 0 0 0 4.6886,-23.41097 z" />
      <path
         id="path4712"
         style="fill:#ff0000;stroke:none;stroke-width:0.1;stroke-linejoin:round"
         d="m 125.03371,171.04951 h 61.20712 a 61.207233,61.207233 0 0 0 -4.66225,-23.42183 z" />
      <path
         id="path4710"
         style="fill:#ffffff;stroke:none;stroke-width:0.1;stroke-linejoin:round"
         d="m 125.03371,171.04951 56.54487,-23.42183 a 61.207233,61.207233 0 0 0 -13.26844,-19.8546 z" />
      <path
         id="path4708"
         style="fill:#ff0000;stroke:none;stroke-width:0.1;stroke-linejoin:round"
         d="m 125.03371,171.04951 43.27643,-43.27643 a 61.207233,61.207233 0 0 0 -19.8546,-13.26792 z" />
      <path
         id="path4706"
         style="fill:#ff0000;stroke:none;stroke-width:0.1;stroke-linejoin:round"
         d="m 125.03371,109.84239 a 61.207233,61.207233 0 0 0 -23.41097,4.6886 l 23.41097,56.51852 z" />
      <path
         id="path4704"
         style="fill:#ffffff;stroke:none;stroke-width:0.1;stroke-linejoin:round;stroke-opacity:1"
         d="m 125.03371,109.84239 v 61.20712 l 23.42183,-56.54435 a 61.207233,61.207233 0 0 0 -23.42183,-4.66277 z" />
    </g>
  </g>
</svg>
